<svg xmlns="http://www.w3.org/2000/svg" xmlns:xlink="http://www.w3.org/1999/xlink" contentStyleType="text/css" data-diagram-type="DESCRIPTION" height="182px" preserveAspectRatio="none" style="width:847px;height:182px;background:#FFFFFF;" version="1.1" viewBox="0 0 847 182" width="847px" zoomAndPan="magnify"><defs/><g><!--cluster common--><g class="cluster" data-entity="common" data-source-line="1" data-uid="ent0002" id="cluster_common"><path d="M8.5,78.29 L76.1777,78.29 A3.75,3.75 0 0 1 78.6777,80.79 L85.6777,100.5869 L756.5,100.5869 A2.5,2.5 0 0 1 759,103.0869 L759,173.09 A2.5,2.5 0 0 1 756.5,175.59 L8.5,175.59 A2.5,2.5 0 0 1 6,173.09 L6,80.79 A2.5,2.5 0 0 1 8.5,78.29" fill="none" style="stroke:#000000;stroke-width:1.5;"/><line style="stroke:#000000;stroke-width:1.5;" x1="6" x2="85.6777" y1="100.5869" y2="100.5869"/><text fill="#000000" font-family="sans-serif" font-size="14" font-weight="bold" lengthAdjust="spacing" textLength="66.6777" x="10" y="93.2851">common</text></g><!--entity Network--><g class="entity" data-entity="Network" data-source-line="2" data-uid="ent0003" id="entity_Network"><rect fill="#F1F1F1" height="46.2969" rx="2.5" ry="2.5" style="stroke:#181818;stroke-width:0.5;" width="98.4541" x="21.77" y="113.29"/><rect fill="#F1F1F1" height="10" style="stroke:#181818;stroke-width:0.5;" width="15" x="100.2241" y="118.29"/><rect fill="#F1F1F1" height="2" style="stroke:#181818;stroke-width:0.5;" width="4" x="98.2241" y="120.29"/><rect fill="#F1F1F1" height="2" style="stroke:#181818;stroke-width:0.5;" width="4" x="98.2241" y="124.29"/><text fill="#000000" font-family="sans-serif" font-size="14" lengthAdjust="spacing" textLength="58.4541" x="36.77" y="146.2851">Network</text></g><!--entity Persistence--><g class="entity" data-entity="Persistence" data-source-line="3" data-uid="ent0004" id="entity_Persistence"><rect fill="#F1F1F1" height="46.2969" rx="2.5" ry="2.5" style="stroke:#181818;stroke-width:0.5;" width="120.5752" x="155.71" y="113.29"/><rect fill="#F1F1F1" height="10" style="stroke:#181818;stroke-width:0.5;" width="15" x="256.2852" y="118.29"/><rect fill="#F1F1F1" height="2" style="stroke:#181818;stroke-width:0.5;" width="4" x="254.2852" y="120.29"/><rect fill="#F1F1F1" height="2" style="stroke:#181818;stroke-width:0.5;" width="4" x="254.2852" y="124.29"/><text fill="#000000" font-family="sans-serif" font-size="14" lengthAdjust="spacing" textLength="80.5752" x="170.71" y="146.2851">Persistence</text></g><!--entity RabbitMQClient--><g class="entity" data-entity="RabbitMQClient" data-source-line="4" data-uid="ent0005" id="entity_RabbitMQClient"><rect fill="#F1F1F1" height="46.2969" rx="2.5" ry="2.5" style="stroke:#181818;stroke-width:0.5;" width="149.0879" x="311.46" y="113.29"/><rect fill="#F1F1F1" height="10" style="stroke:#181818;stroke-width:0.5;" width="15" x="440.5479" y="118.29"/><rect fill="#F1F1F1" height="2" style="stroke:#181818;stroke-width:0.5;" width="4" x="438.5479" y="120.29"/><rect fill="#F1F1F1" height="2" style="stroke:#181818;stroke-width:0.5;" width="4" x="438.5479" y="124.29"/><text fill="#000000" font-family="sans-serif" font-size="14" lengthAdjust="spacing" textLength="109.0879" x="326.46" y="146.2851">RabbitMQClient</text></g><!--entity RedisCache--><g class="entity" data-entity="RedisCache" data-source-line="5" data-uid="ent0006" id="entity_RedisCache"><rect fill="#F1F1F1" height="46.2969" rx="2.5" ry="2.5" style="stroke:#181818;stroke-width:0.5;" width="121.9492" x="496.03" y="113.29"/><rect fill="#F1F1F1" height="10" style="stroke:#181818;stroke-width:0.5;" width="15" x="597.9792" y="118.29"/><rect fill="#F1F1F1" height="2" style="stroke:#181818;stroke-width:0.5;" width="4" x="595.9792" y="120.29"/><rect fill="#F1F1F1" height="2" style="stroke:#181818;stroke-width:0.5;" width="4" x="595.9792" y="124.29"/><text fill="#000000" font-family="sans-serif" font-size="14" lengthAdjust="spacing" textLength="81.9492" x="511.03" y="146.2851">RedisCache</text></g><!--entity Metrics--><g class="entity" data-entity="Metrics" data-source-line="6" data-uid="ent0007" id="entity_Metrics"><rect fill="#F1F1F1" height="46.2969" rx="2.5" ry="2.5" style="stroke:#181818;stroke-width:0.5;" width="90.8184" x="652.59" y="113.29"/><rect fill="#F1F1F1" height="10" style="stroke:#181818;stroke-width:0.5;" width="15" x="723.4084" y="118.29"/><rect fill="#F1F1F1" height="2" style="stroke:#181818;stroke-width:0.5;" width="4" x="721.4084" y="120.29"/><rect fill="#F1F1F1" height="2" style="stroke:#181818;stroke-width:0.5;" width="4" x="721.4084" y="124.29"/><text fill="#000000" font-family="sans-serif" font-size="14" lengthAdjust="spacing" textLength="50.8184" x="667.59" y="146.2851">Metrics</text></g><!--entity Gateway--><g class="entity" data-entity="Gateway" data-source-line="9" data-uid="ent0008" id="entity_Gateway"><rect fill="#F1F1F1" height="46.2969" rx="2.5" ry="2.5" style="stroke:#181818;stroke-width:0.5;" width="101.8447" x="18.08" y="7"/><rect fill="#F1F1F1" height="10" style="stroke:#181818;stroke-width:0.5;" width="15" x="99.9247" y="12"/><rect fill="#F1F1F1" height="2" style="stroke:#181818;stroke-width:0.5;" width="4" x="97.9247" y="14"/><rect fill="#F1F1F1" height="2" style="stroke:#181818;stroke-width:0.5;" width="4" x="97.9247" y="18"/><text fill="#000000" font-family="sans-serif" font-size="14" lengthAdjust="spacing" textLength="61.8447" x="33.08" y="39.9951">Gateway</text></g><!--entity AuthService--><g class="entity" data-entity="AuthService" data-source-line="10" data-uid="ent0010" id="entity_AuthService"><rect fill="#F1F1F1" height="46.2969" rx="2.5" ry="2.5" style="stroke:#181818;stroke-width:0.5;" width="124.5537" x="154.72" y="7"/><rect fill="#F1F1F1" height="10" style="stroke:#181818;stroke-width:0.5;" width="15" x="259.2737" y="12"/><rect fill="#F1F1F1" height="2" style="stroke:#181818;stroke-width:0.5;" width="4" x="257.2737" y="14"/><rect fill="#F1F1F1" height="2" style="stroke:#181818;stroke-width:0.5;" width="4" x="257.2737" y="18"/><text fill="#000000" font-family="sans-serif" font-size="14" lengthAdjust="spacing" textLength="84.5537" x="169.72" y="39.9951">AuthService</text></g><!--entity ChatService--><g class="entity" data-entity="ChatService" data-source-line="11" data-uid="ent0012" id="entity_ChatService"><rect fill="#F1F1F1" height="46.2969" rx="2.5" ry="2.5" style="stroke:#181818;stroke-width:0.5;" width="124.458" x="320.77" y="7"/><rect fill="#F1F1F1" height="10" style="stroke:#181818;stroke-width:0.5;" width="15" x="425.228" y="12"/><rect fill="#F1F1F1" height="2" style="stroke:#181818;stroke-width:0.5;" width="4" x="423.228" y="14"/><rect fill="#F1F1F1" height="2" style="stroke:#181818;stroke-width:0.5;" width="4" x="423.228" y="18"/><text fill="#000000" font-family="sans-serif" font-size="14" lengthAdjust="spacing" textLength="84.458" x="335.77" y="39.9951">ChatService</text></g><!--entity MessageService--><g class="entity" data-entity="MessageService" data-source-line="12" data-uid="ent0014" id="entity_MessageService"><rect fill="#F1F1F1" height="46.2969" rx="2.5" ry="2.5" style="stroke:#181818;stroke-width:0.5;" width="153.1006" x="480.45" y="7"/><rect fill="#F1F1F1" height="10" style="stroke:#181818;stroke-width:0.5;" width="15" x="613.5506" y="12"/><rect fill="#F1F1F1" height="2" style="stroke:#181818;stroke-width:0.5;" width="4" x="611.5506" y="14"/><rect fill="#F1F1F1" height="2" style="stroke:#181818;stroke-width:0.5;" width="4" x="611.5506" y="18"/><text fill="#000000" font-family="sans-serif" font-size="14" lengthAdjust="spacing" textLength="113.1006" x="495.45" y="39.9951">MessageService</text></g><!--entity NotificationService--><g class="entity" data-entity="NotificationService" data-source-line="13" data-uid="ent0016" id="entity_NotificationService"><rect fill="#F1F1F1" height="46.2969" rx="2.5" ry="2.5" style="stroke:#181818;stroke-width:0.5;" width="172.0703" x="668.96" y="7"/><rect fill="#F1F1F1" height="10" style="stroke:#181818;stroke-width:0.5;" width="15" x="821.0303" y="12"/><rect fill="#F1F1F1" height="2" style="stroke:#181818;stroke-width:0.5;" width="4" x="819.0303" y="14"/><rect fill="#F1F1F1" height="2" style="stroke:#181818;stroke-width:0.5;" width="4" x="819.0303" y="18"/><text fill="#000000" font-family="sans-serif" font-size="14" lengthAdjust="spacing" textLength="132.0703" x="683.96" y="39.9951">NotificationService</text></g><!--link Gateway to Network--><g class="link" data-entity-1="Gateway" data-entity-2="Network" data-source-line="9" data-uid="lnk9" id="link_Gateway_Network"><path d="M69.43,53.78 C69.77,71.27 70.1133,89.3711 70.4533,106.8511" fill="none" id="Gateway-to-Network" style="stroke:#181818;stroke-width:1;"/><polygon fill="#181818" points="70.57,112.85,74.3942,103.7739,70.4728,107.8509,66.3957,103.9295,70.57,112.85" style="stroke:#181818;stroke-width:1;"/></g><!--link AuthService to Persistence--><g class="link" data-entity-1="AuthService" data-entity-2="Persistence" data-source-line="10" data-uid="lnk11" id="link_AuthService_Persistence"><path d="M216.78,53.78 C216.62,71.27 216.4349,89.3703 216.2749,106.8503" fill="none" id="AuthService-to-Persistence" style="stroke:#181818;stroke-width:1;"/><polygon fill="#181818" points="216.22,112.85,220.3022,103.887,216.2658,107.8502,212.3025,103.8138,216.22,112.85" style="stroke:#181818;stroke-width:1;"/></g><!--link ChatService to RabbitMQClient--><g class="link" data-entity-1="ChatService" data-entity-2="RabbitMQClient" data-source-line="11" data-uid="lnk13" id="link_ChatService_RabbitMQClient"><path d="M383.65,53.78 C384.15,71.27 384.6784,89.3725 385.1784,106.8525" fill="none" id="ChatService-to-RabbitMQClient" style="stroke:#181818;stroke-width:1;"/><polygon fill="#181818" points="385.35,112.85,389.091,103.7393,385.207,107.852,381.0943,103.968,385.35,112.85" style="stroke:#181818;stroke-width:1;"/></g><!--link MessageService to RedisCache--><g class="link" data-entity-1="MessageService" data-entity-2="RedisCache" data-source-line="12" data-uid="lnk15" id="link_MessageService_RedisCache"><path d="M557,53.78 C557,71.27 557,89.37 557,106.85" fill="none" id="MessageService-to-RedisCache" style="stroke:#181818;stroke-width:1;"/><polygon fill="#181818" points="557,112.85,561,103.85,557,107.85,553,103.85,557,112.85" style="stroke:#181818;stroke-width:1;"/></g><!--link NotificationService to Metrics--><g class="link" data-entity-1="NotificationService" data-entity-2="Metrics" data-source-line="13" data-uid="lnk17" id="link_NotificationService_Metrics"><path d="M742.63,53.78 C733.07,71.27 722.779,90.1059 713.219,107.5859" fill="none" id="NotificationService-to-Metrics" style="stroke:#181818;stroke-width:1;"/><polygon fill="#181818" points="710.34,112.85,718.168,106.8731,712.7392,108.4632,711.1491,103.0344,710.34,112.85" style="stroke:#181818;stroke-width:1;"/></g><!--SRC=[NOxD2i8m48JlUOhGUrz1a1uyjVXp33biusgMsaIIhKN4TpSQaAQtdPrXvhk36U2AiZ9-7Bshv4j8gJhasOT1V-yzXaYHqHdywIFqFN5xQ6w4ZlCBpnGRC3OdMkH09chn5aBjW766fvPrlLaKg-t4zeJXGQasUyMGQYnmwQ-7qqwCYNsLMh2epZDTo02JTsNip_W1]--></g></svg>