<svg xmlns="http://www.w3.org/2000/svg" xmlns:xlink="http://www.w3.org/1999/xlink" contentStyleType="text/css" data-diagram-type="DESCRIPTION" height="288px" preserveAspectRatio="none" style="width:968px;height:288px;background:#FFFFFF;" version="1.1" viewBox="0 0 968 288" width="968px" zoomAndPan="magnify"><defs/><g><!--cluster common--><g class="cluster" data-entity="common" data-source-line="1" data-uid="ent0002" id="cluster_common"><path d="M162.78,78.3 L230.4577,78.3 A3.75,3.75 0 0 1 232.9577,80.8 L239.9577,100.5969 L754.78,100.5969 A2.5,2.5 0 0 1 757.28,103.0969 L757.28,279.39 A2.5,2.5 0 0 1 754.78,281.89 L162.78,281.89 A2.5,2.5 0 0 1 160.28,279.39 L160.28,80.8 A2.5,2.5 0 0 1 162.78,78.3" fill="none" style="stroke:#000000;stroke-width:1.5;"/><line style="stroke:#000000;stroke-width:1.5;" x1="160.28" x2="239.9577" y1="100.5969" y2="100.5969"/><text fill="#000000" font-family="sans-serif" font-size="14" font-weight="bold" lengthAdjust="spacing" textLength="66.6777" x="164.28" y="93.2951">common</text></g><!--entity Network--><g class="entity" data-entity="Network" data-source-line="2" data-uid="ent0003" id="entity_Network"><rect fill="#F1F1F1" height="46.2969" rx="2.5" ry="2.5" style="stroke:#181818;stroke-width:0.5;" width="98.4541" x="332.05" y="113.3"/><rect fill="#F1F1F1" height="10" style="stroke:#181818;stroke-width:0.5;" width="15" x="410.5041" y="118.3"/><rect fill="#F1F1F1" height="2" style="stroke:#181818;stroke-width:0.5;" width="4" x="408.5041" y="120.3"/><rect fill="#F1F1F1" height="2" style="stroke:#181818;stroke-width:0.5;" width="4" x="408.5041" y="124.3"/><text fill="#000000" font-family="sans-serif" font-size="14" lengthAdjust="spacing" textLength="58.4541" x="347.05" y="146.2951">Network</text></g><!--entity Persistence--><g class="entity" data-entity="Persistence" data-source-line="3" data-uid="ent0004" id="entity_Persistence"><rect fill="#F1F1F1" height="46.2969" rx="2.5" ry="2.5" style="stroke:#181818;stroke-width:0.5;" width="120.5752" x="175.99" y="113.3"/><rect fill="#F1F1F1" height="10" style="stroke:#181818;stroke-width:0.5;" width="15" x="276.5652" y="118.3"/><rect fill="#F1F1F1" height="2" style="stroke:#181818;stroke-width:0.5;" width="4" x="274.5652" y="120.3"/><rect fill="#F1F1F1" height="2" style="stroke:#181818;stroke-width:0.5;" width="4" x="274.5652" y="124.3"/><text fill="#000000" font-family="sans-serif" font-size="14" lengthAdjust="spacing" textLength="80.5752" x="190.99" y="146.2951">Persistence</text></g><!--entity RabbitMQClient--><g class="entity" data-entity="RabbitMQClient" data-source-line="4" data-uid="ent0005" id="entity_RabbitMQClient"><rect fill="#F1F1F1" height="46.2969" rx="2.5" ry="2.5" style="stroke:#181818;stroke-width:0.5;" width="149.0879" x="591.73" y="113.3"/><rect fill="#F1F1F1" height="10" style="stroke:#181818;stroke-width:0.5;" width="15" x="720.8179" y="118.3"/><rect fill="#F1F1F1" height="2" style="stroke:#181818;stroke-width:0.5;" width="4" x="718.8179" y="120.3"/><rect fill="#F1F1F1" height="2" style="stroke:#181818;stroke-width:0.5;" width="4" x="718.8179" y="124.3"/><text fill="#000000" font-family="sans-serif" font-size="14" lengthAdjust="spacing" textLength="109.0879" x="606.73" y="146.2951">RabbitMQClient</text></g><!--entity RedisCache--><g class="entity" data-entity="RedisCache" data-source-line="5" data-uid="ent0006" id="entity_RedisCache"><rect fill="#F1F1F1" height="46.2969" rx="2.5" ry="2.5" style="stroke:#181818;stroke-width:0.5;" width="121.9492" x="321.3" y="219.59"/><rect fill="#F1F1F1" height="10" style="stroke:#181818;stroke-width:0.5;" width="15" x="423.2492" y="224.59"/><rect fill="#F1F1F1" height="2" style="stroke:#181818;stroke-width:0.5;" width="4" x="421.2492" y="226.59"/><rect fill="#F1F1F1" height="2" style="stroke:#181818;stroke-width:0.5;" width="4" x="421.2492" y="230.59"/><text fill="#000000" font-family="sans-serif" font-size="14" lengthAdjust="spacing" textLength="81.9492" x="336.3" y="252.5851">RedisCache</text></g><!--entity Metrics--><g class="entity" data-entity="Metrics" data-source-line="6" data-uid="ent0007" id="entity_Metrics"><rect fill="#F1F1F1" height="46.2969" rx="2.5" ry="2.5" style="stroke:#181818;stroke-width:0.5;" width="90.8184" x="465.87" y="113.3"/><rect fill="#F1F1F1" height="10" style="stroke:#181818;stroke-width:0.5;" width="15" x="536.6884" y="118.3"/><rect fill="#F1F1F1" height="2" style="stroke:#181818;stroke-width:0.5;" width="4" x="534.6884" y="120.3"/><rect fill="#F1F1F1" height="2" style="stroke:#181818;stroke-width:0.5;" width="4" x="534.6884" y="124.3"/><text fill="#000000" font-family="sans-serif" font-size="14" lengthAdjust="spacing" textLength="50.8184" x="480.87" y="146.2951">Metrics</text></g><!--entity ThreadPool--><g class="entity" data-entity="ThreadPool" data-source-line="7" data-uid="ent0008" id="entity_ThreadPool"><rect fill="#F1F1F1" height="46.2969" rx="2.5" ry="2.5" style="stroke:#181818;stroke-width:0.5;" width="118.7227" x="549.92" y="219.59"/><rect fill="#F1F1F1" height="10" style="stroke:#181818;stroke-width:0.5;" width="15" x="648.6427" y="224.59"/><rect fill="#F1F1F1" height="2" style="stroke:#181818;stroke-width:0.5;" width="4" x="646.6427" y="226.59"/><rect fill="#F1F1F1" height="2" style="stroke:#181818;stroke-width:0.5;" width="4" x="646.6427" y="230.59"/><text fill="#000000" font-family="sans-serif" font-size="14" lengthAdjust="spacing" textLength="78.7227" x="564.92" y="252.5851">ThreadPool</text></g><!--entity Gateway--><g class="entity" data-entity="Gateway" data-source-line="10" data-uid="ent0009" id="entity_Gateway"><rect fill="#F1F1F1" height="46.2969" rx="2.5" ry="2.5" style="stroke:#181818;stroke-width:0.5;" width="101.8447" x="860.35" y="7"/><rect fill="#F1F1F1" height="10" style="stroke:#181818;stroke-width:0.5;" width="15" x="942.1947" y="12"/><rect fill="#F1F1F1" height="2" style="stroke:#181818;stroke-width:0.5;" width="4" x="940.1947" y="14"/><rect fill="#F1F1F1" height="2" style="stroke:#181818;stroke-width:0.5;" width="4" x="940.1947" y="18"/><text fill="#000000" font-family="sans-serif" font-size="14" lengthAdjust="spacing" textLength="61.8447" x="875.35" y="39.9951">Gateway</text></g><!--entity AuthService--><g class="entity" data-entity="AuthService" data-source-line="11" data-uid="ent0011" id="entity_AuthService"><rect fill="#F1F1F1" height="46.2969" rx="2.5" ry="2.5" style="stroke:#181818;stroke-width:0.5;" width="124.5537" x="7" y="7"/><rect fill="#F1F1F1" height="10" style="stroke:#181818;stroke-width:0.5;" width="15" x="111.5537" y="12"/><rect fill="#F1F1F1" height="2" style="stroke:#181818;stroke-width:0.5;" width="4" x="109.5537" y="14"/><rect fill="#F1F1F1" height="2" style="stroke:#181818;stroke-width:0.5;" width="4" x="109.5537" y="18"/><text fill="#000000" font-family="sans-serif" font-size="14" lengthAdjust="spacing" textLength="84.5537" x="22" y="39.9951">AuthService</text></g><!--entity MessageService--><g class="entity" data-entity="MessageService" data-source-line="12" data-uid="ent0013" id="entity_MessageService"><rect fill="#F1F1F1" height="46.2969" rx="2.5" ry="2.5" style="stroke:#181818;stroke-width:0.5;" width="153.1006" x="326.73" y="7"/><rect fill="#F1F1F1" height="10" style="stroke:#181818;stroke-width:0.5;" width="15" x="459.8306" y="12"/><rect fill="#F1F1F1" height="2" style="stroke:#181818;stroke-width:0.5;" width="4" x="457.8306" y="14"/><rect fill="#F1F1F1" height="2" style="stroke:#181818;stroke-width:0.5;" width="4" x="457.8306" y="18"/><text fill="#000000" font-family="sans-serif" font-size="14" lengthAdjust="spacing" textLength="113.1006" x="341.73" y="39.9951">MessageService</text></g><!--entity ChatService--><g class="entity" data-entity="ChatService" data-source-line="13" data-uid="ent0015" id="entity_ChatService"><rect fill="#F1F1F1" height="46.2969" rx="2.5" ry="2.5" style="stroke:#181818;stroke-width:0.5;" width="124.458" x="167.05" y="7"/><rect fill="#F1F1F1" height="10" style="stroke:#181818;stroke-width:0.5;" width="15" x="271.508" y="12"/><rect fill="#F1F1F1" height="2" style="stroke:#181818;stroke-width:0.5;" width="4" x="269.508" y="14"/><rect fill="#F1F1F1" height="2" style="stroke:#181818;stroke-width:0.5;" width="4" x="269.508" y="18"/><text fill="#000000" font-family="sans-serif" font-size="14" lengthAdjust="spacing" textLength="84.458" x="182.05" y="39.9951">ChatService</text></g><!--entity NotificationService--><g class="entity" data-entity="NotificationService" data-source-line="14" data-uid="ent0017" id="entity_NotificationService"><rect fill="#F1F1F1" height="46.2969" rx="2.5" ry="2.5" style="stroke:#181818;stroke-width:0.5;" width="172.0703" x="515.24" y="7"/><rect fill="#F1F1F1" height="10" style="stroke:#181818;stroke-width:0.5;" width="15" x="667.3103" y="12"/><rect fill="#F1F1F1" height="2" style="stroke:#181818;stroke-width:0.5;" width="4" x="665.3103" y="14"/><rect fill="#F1F1F1" height="2" style="stroke:#181818;stroke-width:0.5;" width="4" x="665.3103" y="18"/><text fill="#000000" font-family="sans-serif" font-size="14" lengthAdjust="spacing" textLength="132.0703" x="530.24" y="39.9951">NotificationService</text></g><!--entity Frontend--><g class="entity" data-entity="Frontend" data-source-line="29" data-uid="ent0028" id="entity_Frontend"><rect fill="#F1F1F1" height="46.2969" rx="2.5" ry="2.5" style="stroke:#181818;stroke-width:0.5;" width="103.1094" x="722.72" y="7"/><rect fill="#F1F1F1" height="10" style="stroke:#181818;stroke-width:0.5;" width="15" x="805.8294" y="12"/><rect fill="#F1F1F1" height="2" style="stroke:#181818;stroke-width:0.5;" width="4" x="803.8294" y="14"/><rect fill="#F1F1F1" height="2" style="stroke:#181818;stroke-width:0.5;" width="4" x="803.8294" y="18"/><text fill="#000000" font-family="sans-serif" font-size="14" lengthAdjust="spacing" textLength="63.1094" x="737.72" y="39.9951">Frontend</text></g><!--link Gateway to Network--><g class="link" data-entity-1="Gateway" data-entity-2="Network" data-source-line="10" data-uid="lnk10" id="link_Gateway_Network"><path d="M860.05,49.46 C854.44,50.97 848.77,52.3 843.28,53.3 C756.82,68.93 528.95,35.5 448.28,70.3 C427.42,79.29 413.1014,93.2554 400.9914,108.3054" fill="none" id="Gateway-to-Network" style="stroke:#181818;stroke-width:1;"/><polygon fill="#181818" points="397.23,112.98,405.9885,108.4757,400.3645,109.0845,399.7557,103.4605,397.23,112.98" style="stroke:#181818;stroke-width:1;"/></g><!--link AuthService to Network--><g class="link" data-entity-1="AuthService" data-entity-2="Network" data-source-line="11" data-uid="lnk12" id="link_AuthService_Network"><path d="M131.93,49.56 C137.76,50.95 143.61,52.23 149.28,53.3 C221.72,66.96 247.48,39.09 314.28,70.3 C334.71,79.84 348.8988,93.5959 361.0788,108.4059" fill="none" id="AuthService-to-Network" style="stroke:#181818;stroke-width:1;"/><polygon fill="#181818" points="364.89,113.04,362.2626,103.5481,361.714,109.1782,356.0838,108.6296,364.89,113.04" style="stroke:#181818;stroke-width:1;"/></g><!--link MessageService to Network--><g class="link" data-entity-1="MessageService" data-entity-2="Network" data-source-line="12" data-uid="lnk14" id="link_MessageService_Network"><path d="M398.5,53.78 C394.81,71.27 390.9693,89.5094 387.2793,106.9894" fill="none" id="MessageService-to-Network" style="stroke:#181818;stroke-width:1;"/><polygon fill="#181818" points="386.04,112.86,391.8127,104.8803,387.0727,107.9678,383.9852,103.2279,386.04,112.86" style="stroke:#181818;stroke-width:1;"/></g><!--link ChatService to Network--><g class="link" data-entity-1="ChatService" data-entity-2="Network" data-source-line="13" data-uid="lnk16" id="link_ChatService_Network"><path d="M285.18,53.58 C295.2,58.52 305.3,64.14 314.28,70.3 C331.93,82.42 345.1226,94.9583 357.6926,108.5283" fill="none" id="ChatService-to-Network" style="stroke:#181818;stroke-width:1;"/><polygon fill="#181818" points="361.77,112.93,358.5885,103.6092,358.3722,109.2619,352.7195,109.0456,361.77,112.93" style="stroke:#181818;stroke-width:1;"/></g><!--link NotificationService to Network--><g class="link" data-entity-1="NotificationService" data-entity-2="Network" data-source-line="14" data-uid="lnk18" id="link_NotificationService_Network"><path d="M515.03,49.18 C487.24,55.85 460.47,63.46 448.28,70.3 C429.03,81.09 415.2564,94.2718 402.8864,108.5018" fill="none" id="NotificationService-to-Network" style="stroke:#181818;stroke-width:1;"/><polygon fill="#181818" points="398.95,113.03,407.8734,108.8619,402.2303,109.2565,401.8357,103.6134,398.95,113.03" style="stroke:#181818;stroke-width:1;"/></g><!--link AuthService to Persistence--><g class="link" data-entity-1="AuthService" data-entity-2="Persistence" data-source-line="16" data-uid="lnk19" id="link_AuthService_Persistence"><path d="M105.51,53.78 C133.52,71.27 167.0309,92.2018 195.0209,109.6818" fill="none" id="AuthService-to-Persistence" style="stroke:#181818;stroke-width:1;"/><polygon fill="#181818" points="200.11,112.86,194.5951,104.7,195.8691,110.2115,190.3575,111.4854,200.11,112.86" style="stroke:#181818;stroke-width:1;"/></g><!--link MessageService to Persistence--><g class="link" data-entity-1="MessageService" data-entity-2="Persistence" data-source-line="17" data-uid="lnk20" id="link_MessageService_Persistence"><path d="M345.56,53.69 C334.88,58.65 324.03,64.25 314.28,70.3 C294.48,82.57 278.8052,95.4691 263.9552,108.9991" fill="none" id="MessageService-to-Persistence" style="stroke:#181818;stroke-width:1;"/><polygon fill="#181818" points="259.52,113.04,268.8667,109.9354,263.216,109.6726,263.4788,104.0218,259.52,113.04" style="stroke:#181818;stroke-width:1;"/></g><!--link ChatService to Persistence--><g class="link" data-entity-1="ChatService" data-entity-2="Persistence" data-source-line="18" data-uid="lnk21" id="link_ChatService_Persistence"><path d="M230.8,53.78 C231.97,71.27 233.1893,89.3934 234.3593,106.8734" fill="none" id="ChatService-to-Persistence" style="stroke:#181818;stroke-width:1;"/><polygon fill="#181818" points="234.76,112.86,238.15,103.613,234.4261,107.8712,230.1679,104.1472,234.76,112.86" style="stroke:#181818;stroke-width:1;"/></g><!--link MessageService to RabbitMQClient--><g class="link" data-entity-1="MessageService" data-entity-2="RabbitMQClient" data-source-line="20" data-uid="lnk22" id="link_MessageService_RabbitMQClient"><path d="M480.2,49.37 C485.98,50.71 491.72,52.03 497.28,53.3 C531.44,61.09 542.23,56.11 574.28,70.3 C598.62,81.07 618.3987,95.0021 635.9687,109.2421" fill="none" id="MessageService-to-RabbitMQClient" style="stroke:#181818;stroke-width:1;"/><polygon fill="#181818" points="640.63,113.02,636.1566,104.2457,636.7456,109.8718,631.1195,110.4607,640.63,113.02" style="stroke:#181818;stroke-width:1;"/></g><!--link NotificationService to RabbitMQClient--><g class="link" data-entity-1="NotificationService" data-entity-2="RabbitMQClient" data-source-line="21" data-uid="lnk23" id="link_NotificationService_RabbitMQClient"><path d="M615.38,53.78 C626.28,71.27 638.1252,90.2887 649.0252,107.7687" fill="none" id="NotificationService-to-RabbitMQClient" style="stroke:#181818;stroke-width:1;"/><polygon fill="#181818" points="652.2,112.86,650.832,103.1066,649.5544,108.6173,644.0437,107.3396,652.2,112.86" style="stroke:#181818;stroke-width:1;"/></g><!--link Persistence to RedisCache--><g class="link" data-entity-1="Persistence" data-entity-2="RedisCache" data-source-line="23" data-uid="lnk24" id="link_Persistence_RedisCache"><path d="M267.96,160.08 C292.45,177.57 321.3077,198.1824 345.7777,215.6624" fill="none" id="Persistence-to-RedisCache" style="stroke:#181818;stroke-width:1;"/><polygon fill="#181818" points="350.66,219.15,345.6617,210.6637,346.5914,216.2437,341.0115,217.1734,350.66,219.15" style="stroke:#181818;stroke-width:1;"/></g><!--link Gateway to RedisCache--><g class="link" data-entity-1="Gateway" data-entity-2="RedisCache" data-source-line="24" data-uid="lnk25" id="link_Gateway_RedisCache"><path d="M866.94,53.68 C858.45,58.71 849.86,64.34 842.28,70.3 C799.43,103.96 805.68,132.73 758.28,159.59 C705.08,189.73 541.7311,217.8531 449.5211,231.9531" fill="none" id="Gateway-to-RedisCache" style="stroke:#181818;stroke-width:1;"/><polygon fill="#181818" points="443.59,232.86,453.0912,235.4536,448.5326,232.1042,451.882,227.5456,443.59,232.86" style="stroke:#181818;stroke-width:1;"/></g><!--link Persistence to ThreadPool--><g class="link" data-entity-1="Persistence" data-entity-2="ThreadPool" data-source-line="26" data-uid="lnk26" id="link_Persistence_ThreadPool"><path d="M296.74,154.64 C302.66,156.32 308.59,157.99 314.28,159.59 C395.78,182.51 484.258,207.1073 543.858,223.6273" fill="none" id="Persistence-to-ThreadPool" style="stroke:#181818;stroke-width:1;"/><polygon fill="#181818" points="549.64,225.23,542.0354,218.9713,544.8217,223.8944,539.8986,226.6807,549.64,225.23" style="stroke:#181818;stroke-width:1;"/></g><!--link Gateway to ThreadPool--><g class="link" data-entity-1="Gateway" data-entity-2="ThreadPool" data-source-line="27" data-uid="lnk27" id="link_Gateway_ThreadPool"><path d="M905.62,53.44 C897.29,81.93 879.03,130.98 846.28,159.59 C796.1,203.43 727.1403,223.1207 675.0303,232.7407" fill="none" id="Gateway-to-ThreadPool" style="stroke:#181818;stroke-width:1;"/><polygon fill="#181818" points="669.13,233.83,678.7066,236.1297,674.0469,232.9223,677.2543,228.2626,669.13,233.83" style="stroke:#181818;stroke-width:1;"/></g><!--link Frontend to Metrics--><g class="link" data-entity-1="Frontend" data-entity-2="Metrics" data-source-line="29" data-uid="lnk29" id="link_Frontend_Metrics"><path d="M722.56,48.86 C716.77,50.51 710.92,52.03 705.28,53.3 C647.98,66.1 626.74,43.94 574.28,70.3 C554.88,80.04 541.75,93.4633 530.4,108.1433" fill="none" id="Frontend-to-Metrics" style="stroke:#181818;stroke-width:1;"/><polygon fill="#181818" points="526.73,112.89,535.3994,108.2166,529.7883,108.9344,529.0705,103.3233,526.73,112.89" style="stroke:#181818;stroke-width:1;"/></g><!--link Gateway to Metrics--><g class="link" data-entity-1="Gateway" data-entity-2="Metrics" data-source-line="30" data-uid="lnk30" id="link_Gateway_Metrics"><path d="M860.03,49.34 C854.42,50.88 848.76,52.25 843.28,53.3 C784.45,64.55 628.66,45.18 574.28,70.3 C554.42,79.47 541.1649,93.0912 529.8949,108.0212" fill="none" id="Gateway-to-Metrics" style="stroke:#181818;stroke-width:1;"/><polygon fill="#181818" points="526.28,112.81,534.8948,108.0367,529.2924,108.8193,528.5098,103.2169,526.28,112.81" style="stroke:#181818;stroke-width:1;"/></g><!--link AuthService to Metrics--><g class="link" data-entity-1="AuthService" data-entity-2="Metrics" data-source-line="31" data-uid="lnk31" id="link_AuthService_Metrics"><path d="M131.88,49.84 C137.73,51.17 143.59,52.36 149.28,53.3 C214.94,64.13 387.77,42.58 448.28,70.3 C468.3,79.47 481.668,93.2915 492.928,108.2915" fill="none" id="AuthService-to-Metrics" style="stroke:#181818;stroke-width:1;"/><polygon fill="#181818" points="496.53,113.09,494.3259,103.4909,493.5283,109.0913,487.928,108.2937,496.53,113.09" style="stroke:#181818;stroke-width:1;"/></g><!--link MessageService to Metrics--><g class="link" data-entity-1="MessageService" data-entity-2="Metrics" data-source-line="32" data-uid="lnk32" id="link_MessageService_Metrics"><path d="M429.79,53.55 C435.95,58.93 442.42,64.74 448.28,70.3 C462.77,84.05 474.2704,95.8278 486.3304,108.5978" fill="none" id="MessageService-to-Metrics" style="stroke:#181818;stroke-width:1;"/><polygon fill="#181818" points="490.45,112.96,487.1787,103.6703,487.017,109.3249,481.3624,109.1632,490.45,112.96" style="stroke:#181818;stroke-width:1;"/></g><!--link ChatService to Metrics--><g class="link" data-entity-1="ChatService" data-entity-2="Metrics" data-source-line="33" data-uid="lnk33" id="link_ChatService_Metrics"><path d="M291.95,49.45 C297.78,50.86 303.62,52.17 309.28,53.3 C370.32,65.41 392.56,42.56 448.28,70.3 C467.71,79.97 480.8332,93.4009 492.1832,108.1009" fill="none" id="ChatService-to-Metrics" style="stroke:#181818;stroke-width:1;"/><polygon fill="#181818" points="495.85,112.85,493.5158,103.2817,492.7943,108.8924,487.1836,108.1709,495.85,112.85" style="stroke:#181818;stroke-width:1;"/></g><!--link NotificationService to Metrics--><g class="link" data-entity-1="NotificationService" data-entity-2="Metrics" data-source-line="34" data-uid="lnk34" id="link_NotificationService_Metrics"><path d="M581.75,53.78 C566.65,71.27 549.7693,90.837 534.6893,108.317" fill="none" id="NotificationService-to-Metrics" style="stroke:#181818;stroke-width:1;"/><polygon fill="#181818" points="530.77,112.86,539.6776,108.6583,534.0361,109.0741,533.6202,103.4326,530.77,112.86" style="stroke:#181818;stroke-width:1;"/></g><!--SRC=[VP5B3i8m34JtEKN4dYiWeKgmQiLlLtNXfePQG88I0qA8krC-ecdQi4lynXbdV0ArXntAaJB7ez4ZUHTIvXdorTXzyJelq3foZ5hX-xw2iYHEbyc1KFEdX1Mv15JzKQJ8bfHxdpUrHQWMnXmAyH0YdmFZ5Mw578ydday-FNEzHdkXnYLaAJhNp1Z3IGqSOvbXsf829gCZcY7lpf-7_RkI_WmT7daZZFBFkA5KT0o-6cyDGT0-6chrrnIq-aZaCsjqqrXzuM_LGLDRxuVRii5GMjmFjMNnf7uQ8Pu0]--></g></svg>