<svg xmlns="http://www.w3.org/2000/svg" xmlns:xlink="http://www.w3.org/1999/xlink" contentStyleType="text/css" data-diagram-type="DESCRIPTION" height="551px" preserveAspectRatio="none" style="width:857px;height:551px;background:#FFFFFF;" version="1.1" viewBox="0 0 857 551" width="857px" zoomAndPan="magnify"><defs/><g><!--cluster User Device\n(Dekstop)--><g class="cluster" data-entity="User Device.n.Dekstop." data-source-line="2" data-uid="ent0002" id="cluster_User Device.n.Dekstop."><polygon fill="none" points="329,16,339,6,499,6,499,107.3,489,117.3,329,117.3,329,16" style="stroke:#181818;stroke-width:1;"/><line style="stroke:#181818;stroke-width:1;" x1="489" x2="499" y1="16" y2="6"/><line style="stroke:#181818;stroke-width:1;" x1="329" x2="489" y1="16" y2="16"/><line style="stroke:#181818;stroke-width:1;" x1="489" x2="489" y1="16" y2="117.3"/><text fill="#000000" font-family="sans-serif" font-size="14" font-weight="bold" lengthAdjust="spacing" textLength="93.8096" x="363.0952" y="31.9951">User Device</text><text fill="#000000" font-family="sans-serif" font-size="14" font-weight="bold" lengthAdjust="spacing" textLength="77.8887" x="371.0557" y="48.292">(Dekstop)</text></g><!--cluster API Gateway Server--><g class="cluster" data-entity="API Gateway Server" data-source-line="6" data-uid="ent0004" id="cluster_API Gateway Server"><polygon fill="none" points="298,176.3,308,166.3,530,166.3,530,251.6,520,261.6,298,261.6,298,176.3" style="stroke:#181818;stroke-width:1;"/><line style="stroke:#181818;stroke-width:1;" x1="520" x2="530" y1="176.3" y2="166.3"/><line style="stroke:#181818;stroke-width:1;" x1="298" x2="520" y1="176.3" y2="176.3"/><line style="stroke:#181818;stroke-width:1;" x1="520" x2="520" y1="176.3" y2="261.6"/><text fill="#000000" font-family="sans-serif" font-size="14" font-weight="bold" lengthAdjust="spacing" textLength="156.6934" x="331.6533" y="192.2951">API Gateway Server</text></g><!--cluster Backend Server--><g class="cluster" data-entity="Backend Server" data-source-line="10" data-uid="ent0006" id="cluster_Backend Server"><polygon fill="none" points="101,320.6,111,310.6,790,310.6,790,395.89,780,405.89,101,405.89,101,320.6" style="stroke:#181818;stroke-width:1;"/><line style="stroke:#181818;stroke-width:1;" x1="780" x2="790" y1="320.6" y2="310.6"/><line style="stroke:#181818;stroke-width:1;" x1="101" x2="780" y1="320.6" y2="320.6"/><line style="stroke:#181818;stroke-width:1;" x1="780" x2="780" y1="320.6" y2="405.89"/><text fill="#000000" font-family="sans-serif" font-size="14" font-weight="bold" lengthAdjust="spacing" textLength="124.0928" x="379.4536" y="336.5951">Backend Server</text></g><!--cluster Database Server--><g class="cluster" data-entity="Database Server" data-source-line="17" data-uid="ent0011" id="cluster_Database Server"><polygon fill="none" points="16,448.89,26,438.89,410,438.89,410,524.19,400,534.19,16,534.19,16,448.89" style="stroke:#181818;stroke-width:1;"/><line style="stroke:#181818;stroke-width:1;" x1="400" x2="410" y1="448.89" y2="438.89"/><line style="stroke:#181818;stroke-width:1;" x1="16" x2="400" y1="448.89" y2="448.89"/><line style="stroke:#181818;stroke-width:1;" x1="400" x2="400" y1="448.89" y2="534.19"/><text fill="#000000" font-family="sans-serif" font-size="14" font-weight="bold" lengthAdjust="spacing" textLength="131.3867" x="143.3066" y="464.8851">Database Server</text></g><!--cluster Cache Server--><g class="cluster" data-entity="Cache Server" data-source-line="23" data-uid="ent0015" id="cluster_Cache Server"><polygon fill="none" points="434,448.89,444,438.89,614,438.89,614,524.19,604,534.19,434,534.19,434,448.89" style="stroke:#181818;stroke-width:1;"/><line style="stroke:#181818;stroke-width:1;" x1="604" x2="614" y1="448.89" y2="438.89"/><line style="stroke:#181818;stroke-width:1;" x1="434" x2="604" y1="448.89" y2="448.89"/><line style="stroke:#181818;stroke-width:1;" x1="604" x2="604" y1="448.89" y2="534.19"/><text fill="#000000" font-family="sans-serif" font-size="14" font-weight="bold" lengthAdjust="spacing" textLength="104.3643" x="467.8179" y="464.8851">Cache Server</text></g><!--cluster Message Broker--><g class="cluster" data-entity="Message Broker" data-source-line="27" data-uid="ent0017" id="cluster_Message Broker"><polygon fill="none" points="638,448.89,648,438.89,840,438.89,840,524.19,830,534.19,638,534.19,638,448.89" style="stroke:#181818;stroke-width:1;"/><line style="stroke:#181818;stroke-width:1;" x1="830" x2="840" y1="448.89" y2="438.89"/><line style="stroke:#181818;stroke-width:1;" x1="638" x2="830" y1="448.89" y2="448.89"/><line style="stroke:#181818;stroke-width:1;" x1="830" x2="830" y1="448.89" y2="534.19"/><text fill="#000000" font-family="sans-serif" font-size="14" font-weight="bold" lengthAdjust="spacing" textLength="126.834" x="671.583" y="464.8851">Message Broker</text></g><!--entity Messenger App--><g class="entity" data-entity="Messenger App" data-source-line="3" data-uid="ent0003" id="entity_Messenger App"><rect fill="#F1F1F1" height="39.2969" rx="2.5" ry="2.5" style="stroke:#181818;stroke-width:0.5;" width="137.8232" x="345.09" y="62"/><polygon fill="#F1F1F1" points="465.9132,67,465.9132,81,477.9132,81,477.9132,73,471.9132,67,465.9132,67" style="stroke:#181818;stroke-width:0.5;"/><line style="stroke:#181818;stroke-width:0.5;" x1="471.9132" x2="471.9132" y1="67" y2="73"/><line style="stroke:#181818;stroke-width:0.5;" x1="477.9132" x2="471.9132" y1="73" y2="73"/><text fill="#000000" font-family="sans-serif" font-size="14" lengthAdjust="spacing" textLength="107.8232" x="355.09" y="87.9951">Messenger App</text></g><!--entity Gateway Service--><g class="entity" data-entity="Gateway Service" data-source-line="7" data-uid="ent0005" id="entity_Gateway Service"><rect fill="#F1F1F1" height="39.2969" rx="2.5" ry="2.5" style="stroke:#181818;stroke-width:0.5;" width="148.0361" x="339.98" y="206.3"/><polygon fill="#F1F1F1" points="471.0161,211.3,471.0161,225.3,483.0161,225.3,483.0161,217.3,477.0161,211.3,471.0161,211.3" style="stroke:#181818;stroke-width:0.5;"/><line style="stroke:#181818;stroke-width:0.5;" x1="477.0161" x2="477.0161" y1="211.3" y2="217.3"/><line style="stroke:#181818;stroke-width:0.5;" x1="483.0161" x2="477.0161" y1="217.3" y2="217.3"/><text fill="#000000" font-family="sans-serif" font-size="14" lengthAdjust="spacing" textLength="118.0361" x="349.98" y="232.2951">Gateway Service</text></g><!--entity Auth Service--><g class="entity" data-entity="Auth Service" data-source-line="11" data-uid="ent0007" id="entity_Auth Service"><rect fill="#F1F1F1" height="39.2969" rx="2.5" ry="2.5" style="stroke:#181818;stroke-width:0.5;" width="119.0039" x="117.5" y="350.6"/><polygon fill="#F1F1F1" points="219.5039,355.6,219.5039,369.6,231.5039,369.6,231.5039,361.6,225.5039,355.6,219.5039,355.6" style="stroke:#181818;stroke-width:0.5;"/><line style="stroke:#181818;stroke-width:0.5;" x1="225.5039" x2="225.5039" y1="355.6" y2="361.6"/><line style="stroke:#181818;stroke-width:0.5;" x1="231.5039" x2="225.5039" y1="361.6" y2="361.6"/><text fill="#000000" font-family="sans-serif" font-size="14" lengthAdjust="spacing" textLength="89.0039" x="127.5" y="376.5951">Auth Service</text></g><!--entity Chat Service--><g class="entity" data-entity="Chat Service" data-source-line="12" data-uid="ent0008" id="entity_Chat Service"><rect fill="#F1F1F1" height="39.2969" rx="2.5" ry="2.5" style="stroke:#181818;stroke-width:0.5;" width="118.9082" x="271.55" y="350.6"/><polygon fill="#F1F1F1" points="373.4582,355.6,373.4582,369.6,385.4582,369.6,385.4582,361.6,379.4582,355.6,373.4582,355.6" style="stroke:#181818;stroke-width:0.5;"/><line style="stroke:#181818;stroke-width:0.5;" x1="379.4582" x2="379.4582" y1="355.6" y2="361.6"/><line style="stroke:#181818;stroke-width:0.5;" x1="385.4582" x2="379.4582" y1="361.6" y2="361.6"/><text fill="#000000" font-family="sans-serif" font-size="14" lengthAdjust="spacing" textLength="88.9082" x="281.55" y="376.5951">Chat Service</text></g><!--entity Message Service--><g class="entity" data-entity="Message Service" data-source-line="13" data-uid="ent0009" id="entity_Message Service"><rect fill="#F1F1F1" height="39.2969" rx="2.5" ry="2.5" style="stroke:#181818;stroke-width:0.5;" width="147.5508" x="425.22" y="350.6"/><polygon fill="#F1F1F1" points="555.7708,355.6,555.7708,369.6,567.7708,369.6,567.7708,361.6,561.7708,355.6,555.7708,355.6" style="stroke:#181818;stroke-width:0.5;"/><line style="stroke:#181818;stroke-width:0.5;" x1="561.7708" x2="561.7708" y1="355.6" y2="361.6"/><line style="stroke:#181818;stroke-width:0.5;" x1="567.7708" x2="561.7708" y1="361.6" y2="361.6"/><text fill="#000000" font-family="sans-serif" font-size="14" lengthAdjust="spacing" textLength="117.5508" x="435.22" y="376.5951">Message Service</text></g><!--entity Notification Service--><g class="entity" data-entity="Notification Service" data-source-line="14" data-uid="ent0010" id="entity_Notification Service"><rect fill="#F1F1F1" height="39.2969" rx="2.5" ry="2.5" style="stroke:#181818;stroke-width:0.5;" width="166.5205" x="607.74" y="350.6"/><polygon fill="#F1F1F1" points="757.2605,355.6,757.2605,369.6,769.2605,369.6,769.2605,361.6,763.2605,355.6,757.2605,355.6" style="stroke:#181818;stroke-width:0.5;"/><line style="stroke:#181818;stroke-width:0.5;" x1="763.2605" x2="763.2605" y1="355.6" y2="361.6"/><line style="stroke:#181818;stroke-width:0.5;" x1="769.2605" x2="763.2605" y1="361.6" y2="361.6"/><text fill="#000000" font-family="sans-serif" font-size="14" lengthAdjust="spacing" textLength="136.5205" x="617.74" y="376.5951">Notification Service</text></g><!--entity Auth DB--><g class="entity" data-entity="Auth DB" data-source-line="18" data-uid="ent0012" id="entity_Auth DB"><rect fill="#F1F1F1" height="39.2969" rx="2.5" ry="2.5" style="stroke:#181818;stroke-width:0.5;" width="87.6475" x="32.18" y="478.89"/><polygon fill="#F1F1F1" points="102.8275,483.89,102.8275,497.89,114.8275,497.89,114.8275,489.89,108.8275,483.89,102.8275,483.89" style="stroke:#181818;stroke-width:0.5;"/><line style="stroke:#181818;stroke-width:0.5;" x1="108.8275" x2="108.8275" y1="483.89" y2="489.89"/><line style="stroke:#181818;stroke-width:0.5;" x1="114.8275" x2="108.8275" y1="489.89" y2="489.89"/><text fill="#000000" font-family="sans-serif" font-size="14" lengthAdjust="spacing" textLength="57.6475" x="42.18" y="504.8851">Auth DB</text></g><!--entity Chat DB--><g class="entity" data-entity="Chat DB" data-source-line="19" data-uid="ent0013" id="entity_Chat DB"><rect fill="#F1F1F1" height="39.2969" rx="2.5" ry="2.5" style="stroke:#181818;stroke-width:0.5;" width="87.5518" x="155.22" y="478.89"/><polygon fill="#F1F1F1" points="225.7718,483.89,225.7718,497.89,237.7718,497.89,237.7718,489.89,231.7718,483.89,225.7718,483.89" style="stroke:#181818;stroke-width:0.5;"/><line style="stroke:#181818;stroke-width:0.5;" x1="231.7718" x2="231.7718" y1="483.89" y2="489.89"/><line style="stroke:#181818;stroke-width:0.5;" x1="237.7718" x2="231.7718" y1="489.89" y2="489.89"/><text fill="#000000" font-family="sans-serif" font-size="14" lengthAdjust="spacing" textLength="57.5518" x="165.22" y="504.8851">Chat DB</text></g><!--entity Message DB--><g class="entity" data-entity="Message DB" data-source-line="20" data-uid="ent0014" id="entity_Message DB"><rect fill="#F1F1F1" height="39.2969" rx="2.5" ry="2.5" style="stroke:#181818;stroke-width:0.5;" width="116.1943" x="277.9" y="478.89"/><polygon fill="#F1F1F1" points="377.0943,483.89,377.0943,497.89,389.0943,497.89,389.0943,489.89,383.0943,483.89,377.0943,483.89" style="stroke:#181818;stroke-width:0.5;"/><line style="stroke:#181818;stroke-width:0.5;" x1="383.0943" x2="383.0943" y1="483.89" y2="489.89"/><line style="stroke:#181818;stroke-width:0.5;" x1="389.0943" x2="383.0943" y1="489.89" y2="489.89"/><text fill="#000000" font-family="sans-serif" font-size="14" lengthAdjust="spacing" textLength="86.1943" x="287.9" y="504.8851">Message DB</text></g><!--entity Redis--><g class="entity" data-entity="Redis" data-source-line="24" data-uid="ent0016" id="entity_Redis"><rect fill="#F1F1F1" height="39.2969" rx="2.5" ry="2.5" style="stroke:#181818;stroke-width:0.5;" width="68.4111" x="449.79" y="478.89"/><polygon fill="#F1F1F1" points="501.2011,483.89,501.2011,497.89,513.2011,497.89,513.2011,489.89,507.2011,483.89,501.2011,483.89" style="stroke:#181818;stroke-width:0.5;"/><line style="stroke:#181818;stroke-width:0.5;" x1="507.2011" x2="507.2011" y1="483.89" y2="489.89"/><line style="stroke:#181818;stroke-width:0.5;" x1="513.2011" x2="507.2011" y1="489.89" y2="489.89"/><text fill="#000000" font-family="sans-serif" font-size="14" lengthAdjust="spacing" textLength="38.4111" x="459.79" y="504.8851">Redis</text></g><!--entity RabbitMQ--><g class="entity" data-entity="RabbitMQ" data-source-line="28" data-uid="ent0018" id="entity_RabbitMQ"><rect fill="#F1F1F1" height="39.2969" rx="2.5" ry="2.5" style="stroke:#181818;stroke-width:0.5;" width="98.5576" x="653.72" y="478.89"/><polygon fill="#F1F1F1" points="735.2776,483.89,735.2776,497.89,747.2776,497.89,747.2776,489.89,741.2776,483.89,735.2776,483.89" style="stroke:#181818;stroke-width:0.5;"/><line style="stroke:#181818;stroke-width:0.5;" x1="741.2776" x2="741.2776" y1="483.89" y2="489.89"/><line style="stroke:#181818;stroke-width:0.5;" x1="747.2776" x2="741.2776" y1="489.89" y2="489.89"/><text fill="#000000" font-family="sans-serif" font-size="14" lengthAdjust="spacing" textLength="68.5576" x="663.72" y="504.8851">RabbitMQ</text></g><!--link Messenger App to Gateway Service--><g class="link" data-entity-1="Messenger App" data-entity-2="Gateway Service" data-source-line="31" data-uid="lnk19" id="link_Messenger App_Gateway Service"><path d="M414,101.55 C414,128.76 414,172.71 414,199.97" fill="none" id="Messenger App-to-Gateway Service" style="stroke:#181818;stroke-width:1;"/><polygon fill="#181818" points="414,205.97,418,196.97,414,200.97,410,196.97,414,205.97" style="stroke:#181818;stroke-width:1;"/><text fill="#000000" font-family="sans-serif" font-size="13" lengthAdjust="spacing" textLength="127.4736" x="415" y="146.3669">HTTPS / WebSocket</text></g><!--link Gateway Service to Auth Service--><g class="link" data-entity-1="Gateway Service" data-entity-2="Auth Service" data-source-line="32" data-uid="lnk20" id="link_Gateway Service_Auth Service"><path d="M364.93,246.04 C332.29,259.71 289.14,279.7 254,302.6 C232.67,316.5 215.3033,331.7 200.4033,345.97" fill="none" id="Gateway Service-to-Auth Service" style="stroke:#181818;stroke-width:1;"/><polygon fill="#181818" points="196.07,350.12,205.3366,346.7838,199.6811,346.6616,199.8032,341.0061,196.07,350.12" style="stroke:#181818;stroke-width:1;"/><text fill="#000000" font-family="sans-serif" font-size="13" lengthAdjust="spacing" textLength="33.4966" x="296.95" y="290.6669">HTTP</text></g><!--link Gateway Service to Chat Service--><g class="link" data-entity-1="Gateway Service" data-entity-2="Chat Service" data-source-line="33" data-uid="lnk21" id="link_Gateway Service_Chat Service"><path d="M402.98,245.84 C387.1,273.06 360.993,317.8272 345.093,345.0872" fill="none" id="Gateway Service-to-Chat Service" style="stroke:#181818;stroke-width:1;"/><polygon fill="#181818" points="342.07,350.27,350.0597,344.5111,344.5892,345.951,343.1493,340.4805,342.07,350.27" style="stroke:#181818;stroke-width:1;"/><text fill="#000000" font-family="sans-serif" font-size="13" lengthAdjust="spacing" textLength="33.4966" x="383.38" y="290.6669">HTTP</text></g><!--link Gateway Service to Message Service--><g class="link" data-entity-1="Gateway Service" data-entity-2="Message Service" data-source-line="34" data-uid="lnk22" id="link_Gateway Service_Message Service"><path d="M425.29,245.84 C441.54,273.06 468.3022,317.8595 484.5922,345.1195" fill="none" id="Gateway Service-to-Message Service" style="stroke:#181818;stroke-width:1;"/><polygon fill="#181818" points="487.67,350.27,486.4869,340.4925,485.1052,345.978,479.6197,344.5962,487.67,350.27" style="stroke:#181818;stroke-width:1;"/><text fill="#000000" font-family="sans-serif" font-size="13" lengthAdjust="spacing" textLength="33.4966" x="454.95" y="290.6669">HTTP</text></g><!--link Gateway Service to Notification Service--><g class="link" data-entity-1="Gateway Service" data-entity-2="Notification Service" data-source-line="35" data-uid="lnk23" id="link_Gateway Service_Notification Service"><path d="M464.8,246.01 C500.57,260.09 549.16,280.57 590,302.6 C616.63,316.96 640.3637,332.7821 660.3137,346.9121" fill="none" id="Gateway Service-to-Notification Service" style="stroke:#181818;stroke-width:1;"/><polygon fill="#181818" points="665.21,350.38,660.1775,341.914,661.1298,347.4901,655.5536,348.4423,665.21,350.38" style="stroke:#181818;stroke-width:1;"/><text fill="#000000" font-family="sans-serif" font-size="13" lengthAdjust="spacing" textLength="73.0806" x="572.58" y="290.6669">WebSocket</text></g><!--link Auth Service to Auth DB--><g class="link" data-entity-1="Auth Service" data-entity-2="Auth DB" data-source-line="37" data-uid="lnk24" id="link_Auth Service_Auth DB"><path d="M161.88,390.15 C142.84,413.96 114.0575,449.9442 94.9675,473.8142" fill="none" id="Auth Service-to-Auth DB" style="stroke:#181818;stroke-width:1;"/><polygon fill="#181818" points="91.22,478.5,99.965,473.9696,94.3429,474.5952,93.7173,468.973,91.22,478.5" style="stroke:#181818;stroke-width:1;"/></g><!--link Chat Service to Chat DB--><g class="link" data-entity-1="Chat Service" data-entity-2="Chat DB" data-source-line="38" data-uid="lnk25" id="link_Chat Service_Chat DB"><path d="M306.66,390.37 C292.63,401.72 274.88,416.63 260,430.89 C244.03,446.2 231.0973,460.3413 219.1473,474.0213" fill="none" id="Chat Service-to-Chat DB" style="stroke:#181818;stroke-width:1;"/><polygon fill="#181818" points="215.2,478.54,224.1334,474.3934,218.4894,474.7744,218.1084,469.1304,215.2,478.54" style="stroke:#181818;stroke-width:1;"/></g><!--link Message Service to Message DB--><g class="link" data-entity-1="Message Service" data-entity-2="Message DB" data-source-line="39" data-uid="lnk26" id="link_Message Service_Message DB"><path d="M474.6,390.15 C443.87,413.96 396.1231,450.9553 365.3131,474.8253" fill="none" id="Message Service-to-Message DB" style="stroke:#181818;stroke-width:1;"/><polygon fill="#181818" points="360.57,478.5,370.1344,476.15,364.5226,475.4378,365.2348,469.8259,360.57,478.5" style="stroke:#181818;stroke-width:1;"/></g><!--link Auth Service to Redis--><g class="link" data-entity-1="Auth Service" data-entity-2="Redis" data-source-line="41" data-uid="lnk27" id="link_Auth Service_Redis"><path d="M205.02,390.31 C219.11,398.95 236.81,408.44 254,413.89 C320.48,434.98 346.34,402.4 410,430.89 C433.83,441.56 451.3558,458.2999 464.9558,473.9599" fill="none" id="Auth Service-to-Redis" style="stroke:#181818;stroke-width:1;"/><polygon fill="#181818" points="468.89,478.49,466.0088,469.072,465.6115,474.7149,459.9686,474.3176,468.89,478.49" style="stroke:#181818;stroke-width:1;"/></g><!--link Chat Service to Redis--><g class="link" data-entity-1="Chat Service" data-entity-2="Redis" data-source-line="42" data-uid="lnk28" id="link_Chat Service_Redis"><path d="M357.41,390.3 C372.97,401.75 392.9,416.78 410,430.89 C428.8,446.41 444.9443,460.9661 459.6043,474.5861" fill="none" id="Chat Service-to-Redis" style="stroke:#181818;stroke-width:1;"/><polygon fill="#181818" points="464,478.67,460.129,469.6138,460.3369,475.2668,454.6839,475.4747,464,478.67" style="stroke:#181818;stroke-width:1;"/></g><!--link Message Service to Redis--><g class="link" data-entity-1="Message Service" data-entity-2="Redis" data-source-line="43" data-uid="lnk29" id="link_Message Service_Redis"><path d="M496.75,390.15 C493.93,413.96 489.8089,448.672 486.9689,472.542" fill="none" id="Message Service-to-Redis" style="stroke:#181818;stroke-width:1;"/><polygon fill="#181818" points="486.26,478.5,491.2953,470.0356,486.8507,473.535,483.3513,469.0905,486.26,478.5" style="stroke:#181818;stroke-width:1;"/></g><!--link Message Service to RabbitMQ--><g class="link" data-entity-1="Message Service" data-entity-2="RabbitMQ" data-source-line="45" data-uid="lnk30" id="link_Message Service_RabbitMQ"><path d="M529.54,390.15 C568,413.96 628.5884,451.4719 667.1484,475.3419" fill="none" id="Message Service-to-RabbitMQ" style="stroke:#181818;stroke-width:1;"/><polygon fill="#181818" points="672.25,478.5,666.703,470.3618,667.9987,475.8683,662.4922,477.164,672.25,478.5" style="stroke:#181818;stroke-width:1;"/></g><!--link Notification Service to RabbitMQ--><g class="link" data-entity-1="Notification Service" data-entity-2="RabbitMQ" data-source-line="46" data-uid="lnk31" id="link_Notification Service_RabbitMQ"><path d="M692.8,390.15 C695.06,413.96 698.352,448.6569 700.622,472.5269" fill="none" id="Notification Service-to-RabbitMQ" style="stroke:#181818;stroke-width:1;"/><polygon fill="#181818" points="701.19,478.5,704.32,469.1617,700.7166,473.5225,696.3559,469.9191,701.19,478.5" style="stroke:#181818;stroke-width:1;"/></g><!--SRC=[XP4zJyCm48Pt_ufJ9XWgTWQaf960eQYG8XQMYtCqLYGxiaqHGlntd2Xf7CUXc-Ntmu_lfAe8abT36d8w2KxlyYgdnbZLNYVmmm1GM_61t4Ao8sD87fqrRTk4_J8c-tIwVuHxjFI5tr2GFf4Eaxxgtl2o6VA6PBMIIpzjFOLyPLkZZIiT9HufBZufTn8ShL0oGfEZnH8D_OUJPn6Iy7A4wExFxLlazLhr2rN2UDwn8DEgYRYnB8NTFVU1O2-msTmj9mwty70ux0kuWJSg2-McRjdIrMTdKn-2QzxP7YvumyrSi4TtvJBU1rZ0Ek5tWm_W9jvUND3C63jBj7rOLAnxbEBDWxegdrUwyl70zGS0]--></g></svg>