<svg xmlns="http://www.w3.org/2000/svg" xmlns:xlink="http://www.w3.org/1999/xlink" contentStyleType="text/css" data-diagram-type="DESCRIPTION" height="551px" preserveAspectRatio="none" style="width:1139px;height:551px;background:#FFFFFF;" version="1.1" viewBox="0 0 1139 551" width="1139px" zoomAndPan="magnify"><defs/><g><!--cluster User Device\n(Desktop)--><g class="cluster" data-entity="User Device.n.Desktop." data-source-line="2" data-uid="ent0002" id="cluster_User Device.n.Desktop."><polygon fill="none" points="448,16,458,6,617,6,617,107.3,607,117.3,448,117.3,448,16" style="stroke:#181818;stroke-width:1;"/><line style="stroke:#181818;stroke-width:1;" x1="607" x2="617" y1="16" y2="6"/><line style="stroke:#181818;stroke-width:1;" x1="448" x2="607" y1="16" y2="16"/><line style="stroke:#181818;stroke-width:1;" x1="607" x2="607" y1="16" y2="117.3"/><text fill="#000000" font-family="sans-serif" font-size="14" font-weight="bold" lengthAdjust="spacing" textLength="93.8096" x="481.5952" y="31.9951">User Device</text><text fill="#000000" font-family="sans-serif" font-size="14" font-weight="bold" lengthAdjust="spacing" textLength="77.8887" x="489.5557" y="48.292">(Desktop)</text></g><!--cluster API Gateway--><g class="cluster" data-entity="API Gateway" data-source-line="6" data-uid="ent0004" id="cluster_API Gateway"><polygon fill="none" points="442,176.3,452,166.3,622,166.3,622,251.6,612,261.6,442,261.6,442,176.3" style="stroke:#181818;stroke-width:1;"/><line style="stroke:#181818;stroke-width:1;" x1="612" x2="622" y1="176.3" y2="166.3"/><line style="stroke:#181818;stroke-width:1;" x1="442" x2="612" y1="176.3" y2="176.3"/><line style="stroke:#181818;stroke-width:1;" x1="612" x2="612" y1="176.3" y2="261.6"/><text fill="#000000" font-family="sans-serif" font-size="14" font-weight="bold" lengthAdjust="spacing" textLength="99.8115" x="478.0942" y="192.2951">API Gateway</text></g><!--cluster Auth Service Cluster--><g class="cluster" data-entity="Auth Service Cluster" data-source-line="10" data-uid="ent0006" id="cluster_Auth Service Cluster"><polygon fill="none" points="16,320.6,26,310.6,253,310.6,253,395.89,243,405.89,16,405.89,16,320.6" style="stroke:#181818;stroke-width:1;"/><line style="stroke:#181818;stroke-width:1;" x1="243" x2="253" y1="320.6" y2="310.6"/><line style="stroke:#181818;stroke-width:1;" x1="16" x2="243" y1="320.6" y2="320.6"/><line style="stroke:#181818;stroke-width:1;" x1="243" x2="243" y1="320.6" y2="405.89"/><text fill="#000000" font-family="sans-serif" font-size="14" font-weight="bold" lengthAdjust="spacing" textLength="161.875" x="49.5625" y="336.5951">Auth Service Cluster</text></g><!--cluster Chat Service Cluster--><g class="cluster" data-entity="Chat Service Cluster" data-source-line="14" data-uid="ent0008" id="cluster_Chat Service Cluster"><polygon fill="none" points="277,320.6,287,310.6,513,310.6,513,395.89,503,405.89,277,405.89,277,320.6" style="stroke:#181818;stroke-width:1;"/><line style="stroke:#181818;stroke-width:1;" x1="503" x2="513" y1="320.6" y2="310.6"/><line style="stroke:#181818;stroke-width:1;" x1="277" x2="503" y1="320.6" y2="320.6"/><line style="stroke:#181818;stroke-width:1;" x1="503" x2="503" y1="320.6" y2="405.89"/><text fill="#000000" font-family="sans-serif" font-size="14" font-weight="bold" lengthAdjust="spacing" textLength="160.7949" x="310.6025" y="336.5951">Chat Service Cluster</text></g><!--cluster Message Service Cluster--><g class="cluster" data-entity="Message Service Cluster" data-source-line="18" data-uid="ent0010" id="cluster_Message Service Cluster"><polygon fill="none" points="537,320.6,547,310.6,806,310.6,806,395.89,796,405.89,537,405.89,537,320.6" style="stroke:#181818;stroke-width:1;"/><line style="stroke:#181818;stroke-width:1;" x1="796" x2="806" y1="320.6" y2="310.6"/><line style="stroke:#181818;stroke-width:1;" x1="537" x2="796" y1="320.6" y2="320.6"/><line style="stroke:#181818;stroke-width:1;" x1="796" x2="796" y1="320.6" y2="405.89"/><text fill="#000000" font-family="sans-serif" font-size="14" font-weight="bold" lengthAdjust="spacing" textLength="193.4707" x="570.7646" y="336.5951">Message Service Cluster</text></g><!--cluster Notification Service Cluster--><g class="cluster" data-entity="Notification Service Cluster" data-source-line="22" data-uid="ent0012" id="cluster_Notification Service Cluster"><polygon fill="none" points="830,320.6,840,310.6,1122,310.6,1122,395.89,1112,405.89,830,405.89,830,320.6" style="stroke:#181818;stroke-width:1;"/><line style="stroke:#181818;stroke-width:1;" x1="1112" x2="1122" y1="320.6" y2="310.6"/><line style="stroke:#181818;stroke-width:1;" x1="830" x2="1112" y1="320.6" y2="320.6"/><line style="stroke:#181818;stroke-width:1;" x1="1112" x2="1112" y1="320.6" y2="405.89"/><text fill="#000000" font-family="sans-serif" font-size="14" font-weight="bold" lengthAdjust="spacing" textLength="216.9521" x="863.5239" y="336.5951">Notification Service Cluster</text></g><!--cluster Database Server--><g class="cluster" data-entity="Database Server" data-source-line="26" data-uid="ent0014" id="cluster_Database Server"><polygon fill="none" points="283,448.89,293,438.89,677,438.89,677,524.19,667,534.19,283,534.19,283,448.89" style="stroke:#181818;stroke-width:1;"/><line style="stroke:#181818;stroke-width:1;" x1="667" x2="677" y1="448.89" y2="438.89"/><line style="stroke:#181818;stroke-width:1;" x1="283" x2="667" y1="448.89" y2="448.89"/><line style="stroke:#181818;stroke-width:1;" x1="667" x2="667" y1="448.89" y2="534.19"/><text fill="#000000" font-family="sans-serif" font-size="14" font-weight="bold" lengthAdjust="spacing" textLength="131.3867" x="410.3066" y="464.8851">Database Server</text></g><!--cluster Cache Server--><g class="cluster" data-entity="Cache Server" data-source-line="32" data-uid="ent0018" id="cluster_Cache Server"><polygon fill="none" points="79,448.89,89,438.89,259,438.89,259,524.19,249,534.19,79,534.19,79,448.89" style="stroke:#181818;stroke-width:1;"/><line style="stroke:#181818;stroke-width:1;" x1="249" x2="259" y1="448.89" y2="438.89"/><line style="stroke:#181818;stroke-width:1;" x1="79" x2="249" y1="448.89" y2="448.89"/><line style="stroke:#181818;stroke-width:1;" x1="249" x2="249" y1="448.89" y2="534.19"/><text fill="#000000" font-family="sans-serif" font-size="14" font-weight="bold" lengthAdjust="spacing" textLength="104.3643" x="112.8179" y="464.8851">Cache Server</text></g><!--cluster Message Broker--><g class="cluster" data-entity="Message Broker" data-source-line="36" data-uid="ent0020" id="cluster_Message Broker"><polygon fill="none" points="796,448.89,806,438.89,998,438.89,998,524.19,988,534.19,796,534.19,796,448.89" style="stroke:#181818;stroke-width:1;"/><line style="stroke:#181818;stroke-width:1;" x1="988" x2="998" y1="448.89" y2="438.89"/><line style="stroke:#181818;stroke-width:1;" x1="796" x2="988" y1="448.89" y2="448.89"/><line style="stroke:#181818;stroke-width:1;" x1="988" x2="988" y1="448.89" y2="534.19"/><text fill="#000000" font-family="sans-serif" font-size="14" font-weight="bold" lengthAdjust="spacing" textLength="126.834" x="829.583" y="464.8851">Message Broker</text></g><!--entity Frontend--><g class="entity" data-entity="Frontend" data-source-line="3" data-uid="ent0003" id="entity_Frontend"><rect fill="#F1F1F1" height="39.2969" rx="2.5" ry="2.5" style="stroke:#181818;stroke-width:0.5;" width="93.1094" x="485.45" y="62"/><polygon fill="#F1F1F1" points="561.5594,67,561.5594,81,573.5594,81,573.5594,73,567.5594,67,561.5594,67" style="stroke:#181818;stroke-width:0.5;"/><line style="stroke:#181818;stroke-width:0.5;" x1="567.5594" x2="567.5594" y1="67" y2="73"/><line style="stroke:#181818;stroke-width:0.5;" x1="573.5594" x2="567.5594" y1="73" y2="73"/><text fill="#000000" font-family="sans-serif" font-size="14" lengthAdjust="spacing" textLength="63.1094" x="495.45" y="87.9951">Frontend</text></g><!--entity Gateway Service--><g class="entity" data-entity="Gateway Service" data-source-line="7" data-uid="ent0005" id="entity_Gateway Service"><rect fill="#F1F1F1" height="39.2969" rx="2.5" ry="2.5" style="stroke:#181818;stroke-width:0.5;" width="148.0361" x="457.98" y="206.3"/><polygon fill="#F1F1F1" points="589.0161,211.3,589.0161,225.3,601.0161,225.3,601.0161,217.3,595.0161,211.3,589.0161,211.3" style="stroke:#181818;stroke-width:0.5;"/><line style="stroke:#181818;stroke-width:0.5;" x1="595.0161" x2="595.0161" y1="211.3" y2="217.3"/><line style="stroke:#181818;stroke-width:0.5;" x1="601.0161" x2="595.0161" y1="217.3" y2="217.3"/><text fill="#000000" font-family="sans-serif" font-size="14" lengthAdjust="spacing" textLength="118.0361" x="467.98" y="232.2951">Gateway Service</text></g><!--entity Auth Service--><g class="entity" data-entity="Auth Service" data-source-line="11" data-uid="ent0007" id="entity_Auth Service"><rect fill="#F1F1F1" height="39.2969" rx="2.5" ry="2.5" style="stroke:#181818;stroke-width:0.5;" width="119.0039" x="117.5" y="350.6"/><polygon fill="#F1F1F1" points="219.5039,355.6,219.5039,369.6,231.5039,369.6,231.5039,361.6,225.5039,355.6,219.5039,355.6" style="stroke:#181818;stroke-width:0.5;"/><line style="stroke:#181818;stroke-width:0.5;" x1="225.5039" x2="225.5039" y1="355.6" y2="361.6"/><line style="stroke:#181818;stroke-width:0.5;" x1="231.5039" x2="225.5039" y1="361.6" y2="361.6"/><text fill="#000000" font-family="sans-serif" font-size="14" lengthAdjust="spacing" textLength="89.0039" x="127.5" y="376.5951">Auth Service</text></g><!--entity Chat Service--><g class="entity" data-entity="Chat Service" data-source-line="15" data-uid="ent0009" id="entity_Chat Service"><rect fill="#F1F1F1" height="39.2969" rx="2.5" ry="2.5" style="stroke:#181818;stroke-width:0.5;" width="118.9082" x="378.55" y="350.6"/><polygon fill="#F1F1F1" points="480.4582,355.6,480.4582,369.6,492.4582,369.6,492.4582,361.6,486.4582,355.6,480.4582,355.6" style="stroke:#181818;stroke-width:0.5;"/><line style="stroke:#181818;stroke-width:0.5;" x1="486.4582" x2="486.4582" y1="355.6" y2="361.6"/><line style="stroke:#181818;stroke-width:0.5;" x1="492.4582" x2="486.4582" y1="361.6" y2="361.6"/><text fill="#000000" font-family="sans-serif" font-size="14" lengthAdjust="spacing" textLength="88.9082" x="388.55" y="376.5951">Chat Service</text></g><!--entity Message Service--><g class="entity" data-entity="Message Service" data-source-line="19" data-uid="ent0011" id="entity_Message Service"><rect fill="#F1F1F1" height="39.2969" rx="2.5" ry="2.5" style="stroke:#181818;stroke-width:0.5;" width="147.5508" x="553.22" y="350.6"/><polygon fill="#F1F1F1" points="683.7708,355.6,683.7708,369.6,695.7708,369.6,695.7708,361.6,689.7708,355.6,683.7708,355.6" style="stroke:#181818;stroke-width:0.5;"/><line style="stroke:#181818;stroke-width:0.5;" x1="689.7708" x2="689.7708" y1="355.6" y2="361.6"/><line style="stroke:#181818;stroke-width:0.5;" x1="695.7708" x2="689.7708" y1="361.6" y2="361.6"/><text fill="#000000" font-family="sans-serif" font-size="14" lengthAdjust="spacing" textLength="117.5508" x="563.22" y="376.5951">Message Service</text></g><!--entity Notification Service--><g class="entity" data-entity="Notification Service" data-source-line="23" data-uid="ent0013" id="entity_Notification Service"><rect fill="#F1F1F1" height="39.2969" rx="2.5" ry="2.5" style="stroke:#181818;stroke-width:0.5;" width="166.5205" x="845.74" y="350.6"/><polygon fill="#F1F1F1" points="995.2605,355.6,995.2605,369.6,1007.2605,369.6,1007.2605,361.6,1001.2605,355.6,995.2605,355.6" style="stroke:#181818;stroke-width:0.5;"/><line style="stroke:#181818;stroke-width:0.5;" x1="1001.2605" x2="1001.2605" y1="355.6" y2="361.6"/><line style="stroke:#181818;stroke-width:0.5;" x1="1007.2605" x2="1001.2605" y1="361.6" y2="361.6"/><text fill="#000000" font-family="sans-serif" font-size="14" lengthAdjust="spacing" textLength="136.5205" x="855.74" y="376.5951">Notification Service</text></g><!--entity Auth DB--><g class="entity" data-entity="Auth DB" data-source-line="27" data-uid="ent0015" id="entity_Auth DB"><rect fill="#F1F1F1" height="39.2969" rx="2.5" ry="2.5" style="stroke:#181818;stroke-width:0.5;" width="87.6475" x="299.18" y="478.89"/><polygon fill="#F1F1F1" points="369.8275,483.89,369.8275,497.89,381.8275,497.89,381.8275,489.89,375.8275,483.89,369.8275,483.89" style="stroke:#181818;stroke-width:0.5;"/><line style="stroke:#181818;stroke-width:0.5;" x1="375.8275" x2="375.8275" y1="483.89" y2="489.89"/><line style="stroke:#181818;stroke-width:0.5;" x1="381.8275" x2="375.8275" y1="489.89" y2="489.89"/><text fill="#000000" font-family="sans-serif" font-size="14" lengthAdjust="spacing" textLength="57.6475" x="309.18" y="504.8851">Auth DB</text></g><!--entity Chat DB--><g class="entity" data-entity="Chat DB" data-source-line="28" data-uid="ent0016" id="entity_Chat DB"><rect fill="#F1F1F1" height="39.2969" rx="2.5" ry="2.5" style="stroke:#181818;stroke-width:0.5;" width="87.5518" x="422.22" y="478.89"/><polygon fill="#F1F1F1" points="492.7718,483.89,492.7718,497.89,504.7718,497.89,504.7718,489.89,498.7718,483.89,492.7718,483.89" style="stroke:#181818;stroke-width:0.5;"/><line style="stroke:#181818;stroke-width:0.5;" x1="498.7718" x2="498.7718" y1="483.89" y2="489.89"/><line style="stroke:#181818;stroke-width:0.5;" x1="504.7718" x2="498.7718" y1="489.89" y2="489.89"/><text fill="#000000" font-family="sans-serif" font-size="14" lengthAdjust="spacing" textLength="57.5518" x="432.22" y="504.8851">Chat DB</text></g><!--entity Message DB--><g class="entity" data-entity="Message DB" data-source-line="29" data-uid="ent0017" id="entity_Message DB"><rect fill="#F1F1F1" height="39.2969" rx="2.5" ry="2.5" style="stroke:#181818;stroke-width:0.5;" width="116.1943" x="544.9" y="478.89"/><polygon fill="#F1F1F1" points="644.0943,483.89,644.0943,497.89,656.0943,497.89,656.0943,489.89,650.0943,483.89,644.0943,483.89" style="stroke:#181818;stroke-width:0.5;"/><line style="stroke:#181818;stroke-width:0.5;" x1="650.0943" x2="650.0943" y1="483.89" y2="489.89"/><line style="stroke:#181818;stroke-width:0.5;" x1="656.0943" x2="650.0943" y1="489.89" y2="489.89"/><text fill="#000000" font-family="sans-serif" font-size="14" lengthAdjust="spacing" textLength="86.1943" x="554.9" y="504.8851">Message DB</text></g><!--entity Redis--><g class="entity" data-entity="Redis" data-source-line="33" data-uid="ent0019" id="entity_Redis"><rect fill="#F1F1F1" height="39.2969" rx="2.5" ry="2.5" style="stroke:#181818;stroke-width:0.5;" width="68.4111" x="174.79" y="478.89"/><polygon fill="#F1F1F1" points="226.2011,483.89,226.2011,497.89,238.2011,497.89,238.2011,489.89,232.2011,483.89,226.2011,483.89" style="stroke:#181818;stroke-width:0.5;"/><line style="stroke:#181818;stroke-width:0.5;" x1="232.2011" x2="232.2011" y1="483.89" y2="489.89"/><line style="stroke:#181818;stroke-width:0.5;" x1="238.2011" x2="232.2011" y1="489.89" y2="489.89"/><text fill="#000000" font-family="sans-serif" font-size="14" lengthAdjust="spacing" textLength="38.4111" x="184.79" y="504.8851">Redis</text></g><!--entity RabbitMQ--><g class="entity" data-entity="RabbitMQ" data-source-line="37" data-uid="ent0021" id="entity_RabbitMQ"><rect fill="#F1F1F1" height="39.2969" rx="2.5" ry="2.5" style="stroke:#181818;stroke-width:0.5;" width="98.5576" x="847.72" y="478.89"/><polygon fill="#F1F1F1" points="929.2776,483.89,929.2776,497.89,941.2776,497.89,941.2776,489.89,935.2776,483.89,929.2776,483.89" style="stroke:#181818;stroke-width:0.5;"/><line style="stroke:#181818;stroke-width:0.5;" x1="935.2776" x2="935.2776" y1="483.89" y2="489.89"/><line style="stroke:#181818;stroke-width:0.5;" x1="941.2776" x2="935.2776" y1="489.89" y2="489.89"/><text fill="#000000" font-family="sans-serif" font-size="14" lengthAdjust="spacing" textLength="68.5576" x="857.72" y="504.8851">RabbitMQ</text></g><!--link Frontend to Gateway Service--><g class="link" data-entity-1="Frontend" data-entity-2="Gateway Service" data-source-line="40" data-uid="lnk22" id="link_Frontend_Gateway Service"><path d="M532,101.55 C532,128.76 532,172.71 532,199.97" fill="none" id="Frontend-to-Gateway Service" style="stroke:#181818;stroke-width:1;"/><polygon fill="#181818" points="532,205.97,536,196.97,532,200.97,528,196.97,532,205.97" style="stroke:#181818;stroke-width:1;"/><text fill="#000000" font-family="sans-serif" font-size="13" lengthAdjust="spacing" textLength="127.4736" x="533" y="146.3669">HTTPS / WebSocket</text></g><!--link Gateway Service to Auth Service--><g class="link" data-entity-1="Gateway Service" data-entity-2="Auth Service" data-source-line="41" data-uid="lnk23" id="link_Gateway Service_Auth Service"><path d="M484.49,245.99 C416.57,273.22 297.9991,320.7373 230.0791,347.9673" fill="none" id="Gateway Service-to-Auth Service" style="stroke:#181818;stroke-width:1;"/><polygon fill="#181818" points="224.51,350.2,234.3521,350.5636,229.1509,348.3394,231.3752,343.1382,224.51,350.2" style="stroke:#181818;stroke-width:1;"/><text fill="#000000" font-family="sans-serif" font-size="13" lengthAdjust="spacing" textLength="33.4966" x="397.74" y="290.6669">HTTP</text></g><!--link Gateway Service to Chat Service--><g class="link" data-entity-1="Gateway Service" data-entity-2="Chat Service" data-source-line="42" data-uid="lnk24" id="link_Gateway Service_Chat Service"><path d="M519.52,245.84 C501.54,273.06 471.8474,318.0039 453.8374,345.2639" fill="none" id="Gateway Service-to-Chat Service" style="stroke:#181818;stroke-width:1;"/><polygon fill="#181818" points="450.53,350.27,458.8285,344.9658,453.2862,346.0982,452.1537,340.5559,450.53,350.27" style="stroke:#181818;stroke-width:1;"/><text fill="#000000" font-family="sans-serif" font-size="13" lengthAdjust="spacing" textLength="33.4966" x="497.18" y="290.6669">HTTP</text></g><!--link Gateway Service to Message Service--><g class="link" data-entity-1="Gateway Service" data-entity-2="Message Service" data-source-line="43" data-uid="lnk25" id="link_Gateway Service_Message Service"><path d="M544.62,245.84 C562.79,273.06 592.7984,318.02 610.9984,345.28" fill="none" id="Gateway Service-to-Message Service" style="stroke:#181818;stroke-width:1;"/><polygon fill="#181818" points="614.33,350.27,612.6593,340.5639,611.5537,346.1116,606.0059,345.006,614.33,350.27" style="stroke:#181818;stroke-width:1;"/><text fill="#000000" font-family="sans-serif" font-size="13" lengthAdjust="spacing" textLength="33.4966" x="577.65" y="290.6669">HTTP</text></g><!--link Gateway Service to Notification Service--><g class="link" data-entity-1="Gateway Service" data-entity-2="Notification Service" data-source-line="44" data-uid="lnk26" id="link_Gateway Service_Notification Service"><path d="M585.13,245.99 C661.09,273.22 794.2619,320.9453 870.2219,348.1753" fill="none" id="Gateway Service-to-Notification Service" style="stroke:#181818;stroke-width:1;"/><polygon fill="#181818" points="875.87,350.2,868.7477,343.3976,871.1633,348.5127,866.0481,350.9283,875.87,350.2" style="stroke:#181818;stroke-width:1;"/><text fill="#000000" font-family="sans-serif" font-size="13" lengthAdjust="spacing" textLength="73.0806" x="719.6" y="290.6669">WebSocket</text></g><!--link Auth Service to Auth DB--><g class="link" data-entity-1="Auth Service" data-entity-2="Auth DB" data-source-line="46" data-uid="lnk27" id="link_Auth Service_Auth DB"><path d="M203.8,390.31 C219.92,401.88 240.78,417.05 259,430.89 C279.75,446.66 298.2568,461.3569 314.9968,474.8369" fill="none" id="Auth Service-to-Auth DB" style="stroke:#181818;stroke-width:1;"/><polygon fill="#181818" points="319.67,478.6,315.1689,469.8398,315.7757,475.4641,310.1514,476.0708,319.67,478.6" style="stroke:#181818;stroke-width:1;"/></g><!--link Chat Service to Chat DB--><g class="link" data-entity-1="Chat Service" data-entity-2="Chat DB" data-source-line="47" data-uid="lnk28" id="link_Chat Service_Chat DB"><path d="M442.19,390.15 C447.47,413.96 455.1918,448.7721 460.4818,472.6421" fill="none" id="Chat Service-to-Chat DB" style="stroke:#181818;stroke-width:1;"/><polygon fill="#181818" points="461.78,478.5,463.7379,468.8477,460.6982,473.6184,455.9274,470.5787,461.78,478.5" style="stroke:#181818;stroke-width:1;"/></g><!--link Message Service to Message DB--><g class="link" data-entity-1="Message Service" data-entity-2="Message DB" data-source-line="48" data-uid="lnk29" id="link_Message Service_Message DB"><path d="M623.41,390.15 C618.88,413.96 612.2687,448.7352 607.7387,472.6052" fill="none" id="Message Service-to-Message DB" style="stroke:#181818;stroke-width:1;"/><polygon fill="#181818" points="606.62,478.5,612.2279,470.4036,607.5523,473.5877,604.3682,468.912,606.62,478.5" style="stroke:#181818;stroke-width:1;"/></g><!--link Auth Service to Redis--><g class="link" data-entity-1="Auth Service" data-entity-2="Redis" data-source-line="50" data-uid="lnk30" id="link_Auth Service_Redis"><path d="M181.79,390.15 C187.82,413.96 196.6559,448.8139 202.7059,472.6839" fill="none" id="Auth Service-to-Redis" style="stroke:#181818;stroke-width:1;"/><polygon fill="#181818" points="204.18,478.5,205.8462,468.7931,202.9516,473.6533,198.0914,470.7586,204.18,478.5" style="stroke:#181818;stroke-width:1;"/></g><!--link Chat Service to Redis--><g class="link" data-entity-1="Chat Service" data-entity-2="Redis" data-source-line="51" data-uid="lnk31" id="link_Chat Service_Redis"><path d="M378.21,388.54 C348.39,398.56 312.49,412.8 283,430.89 C261.48,444.09 244.6096,459.5956 230.4996,474.1956" fill="none" id="Chat Service-to-Redis" style="stroke:#181818;stroke-width:1;"/><polygon fill="#181818" points="226.33,478.51,235.4607,474.8181,229.8047,474.9146,229.7082,469.2586,226.33,478.51" style="stroke:#181818;stroke-width:1;"/></g><!--link Message Service to Redis--><g class="link" data-entity-1="Message Service" data-entity-2="Redis" data-source-line="52" data-uid="lnk32" id="link_Message Service_Redis"><path d="M584.83,390.3 C563.7,398.99 537.46,408.53 513,413.89 C487.97,419.38 306.57,420.83 283,430.89 C258.83,441.21 241.1681,458.2088 227.6481,474.0288" fill="none" id="Message Service-to-Redis" style="stroke:#181818;stroke-width:1;"/><polygon fill="#181818" points="223.75,478.59,232.638,474.3469,226.9984,474.789,226.5563,469.1494,223.75,478.59" style="stroke:#181818;stroke-width:1;"/></g><!--link Message Service to RabbitMQ--><g class="link" data-entity-1="Message Service" data-entity-2="RabbitMQ" data-source-line="54" data-uid="lnk33" id="link_Message Service_RabbitMQ"><path d="M667.71,390.29 C718.69,414.13 800.0452,452.1877 850.9652,476.0077" fill="none" id="Message Service-to-RabbitMQ" style="stroke:#181818;stroke-width:1;"/><polygon fill="#181818" points="856.4,478.55,849.9428,471.1133,851.871,476.4314,846.553,478.3597,856.4,478.55" style="stroke:#181818;stroke-width:1;"/></g><!--link Notification Service to RabbitMQ--><g class="link" data-entity-1="Notification Service" data-entity-2="RabbitMQ" data-source-line="55" data-uid="lnk34" id="link_Notification Service_RabbitMQ"><path d="M924.21,390.15 C918.18,413.96 909.3441,448.8139 903.2941,472.6839" fill="none" id="Notification Service-to-RabbitMQ" style="stroke:#181818;stroke-width:1;"/><polygon fill="#181818" points="901.82,478.5,907.9086,470.7586,903.0484,473.6533,900.1538,468.7931,901.82,478.5" style="stroke:#181818;stroke-width:1;"/></g><!--SRC=[XP6zJiGm48HxFyNA5HGdUWeaxY9-YaC7EKH3iqaMOWNPoDu38SIxSma9SHnRQNU_6SzwjAa8vACZ2nbzg9AUzKb6hc7pVYhXMm2WPVM29OEyiaOpwKgA7o5q9xpStS8rCdtYLqZtOyZ9jhw-wC3rC8RDsy4nsL3jCvvqKoClINt6asx9ENob9NM0UGPtviYe4baPlUGIOpsh31aBT7-l98xFrd9-LZWSqhRpyPEmh5FM3rGf5_cLjJLDXCQYKBozxmHZ_x1QNSmBXdEusUztEPp14nMvAHjYCQSwxQJUNfXY9tqki65x2tYqfgF6Eq04MSVuxPy7uSQytNAMPfAnHQBkVKSnxs4LT-wtoVL_cud30-eN]--></g></svg>