<svg xmlns="http://www.w3.org/2000/svg" xmlns:xlink="http://www.w3.org/1999/xlink" contentStyleType="text/css" data-diagram-type="CLASS" height="399px" preserveAspectRatio="none" style="width:1960px;height:399px;background:#FFFFFF;" version="1.1" viewBox="0 0 1960 399" width="1960px" zoomAndPan="magnify"><defs/><g><g class="entity" data-entity="user1" data-source-line="2" data-uid="ent0002" id="entity_user1"><rect fill="#F1F1F1" height="93.4844" rx="2.5" ry="2.5" style="stroke:#181818;stroke-width:0.5;" width="204.0215" x="221" y="299.08"/><text fill="#000000" font-family="sans-serif" font-size="14" lengthAdjust="spacing" textLength="39.4434" x="303.2891" y="314.0751">user1</text><line style="stroke:#181818;stroke-width:0.5;" x1="222" x2="424.0215" y1="319.3769" y2="319.3769"/><text fill="#000000" font-family="sans-serif" font-size="14" lengthAdjust="spacing" textLength="42.3145" x="227" y="336.372">id = 1</text><text fill="#000000" font-family="sans-serif" font-size="14" lengthAdjust="spacing" textLength="106.8799" x="227" y="352.6689">name = "Alice"</text><text fill="#000000" font-family="sans-serif" font-size="14" lengthAdjust="spacing" textLength="192.0215" x="227" y="368.9657">email = "alice@gmail.com"</text><text fill="#000000" font-family="sans-serif" font-size="14" lengthAdjust="spacing" textLength="131.7627" x="227" y="385.2626">tag = "alice_2291"</text></g><g class="entity" data-entity="user2" data-source-line="9" data-uid="ent0003" id="entity_user2"><rect fill="#F1F1F1" height="93.4844" rx="2.5" ry="2.5" style="stroke:#181818;stroke-width:0.5;" width="207.8906" x="1219.07" y="299.08"/><text fill="#000000" font-family="sans-serif" font-size="14" lengthAdjust="spacing" textLength="39.4434" x="1303.2936" y="314.0751">user2</text><line style="stroke:#181818;stroke-width:0.5;" x1="1220.07" x2="1425.9606" y1="319.3769" y2="319.3769"/><text fill="#000000" font-family="sans-serif" font-size="14" lengthAdjust="spacing" textLength="42.3145" x="1225.07" y="336.372">id = 2</text><text fill="#000000" font-family="sans-serif" font-size="14" lengthAdjust="spacing" textLength="113.7227" x="1225.07" y="352.6689">name = "Roma"</text><text fill="#000000" font-family="sans-serif" font-size="14" lengthAdjust="spacing" textLength="195.8906" x="1225.07" y="368.9657">email = "roma@gmail.com"</text><text fill="#000000" font-family="sans-serif" font-size="14" lengthAdjust="spacing" textLength="138.2363" x="1225.07" y="385.2626">tag = "r_131_eqq1"</text></g><g class="entity" data-entity="credentials1" data-source-line="16" data-uid="ent0004" id="entity_credentials1"><rect fill="#F1F1F1" height="60.8906" rx="2.5" ry="2.5" style="stroke:#181818;stroke-width:0.5;" width="204.0215" x="7" y="144.89"/><text fill="#000000" font-family="sans-serif" font-size="14" lengthAdjust="spacing" textLength="86.4883" x="65.7666" y="159.8851">credentials1</text><line style="stroke:#181818;stroke-width:0.5;" x1="8" x2="210.0215" y1="165.1869" y2="165.1869"/><text fill="#000000" font-family="sans-serif" font-size="14" lengthAdjust="spacing" textLength="192.0215" x="13" y="182.182">email = "alice@gmail.com"</text><text fill="#000000" font-family="sans-serif" font-size="14" lengthAdjust="spacing" textLength="171.4795" x="13" y="198.4789">password = "12345678"</text></g><g class="entity" data-entity="credentials2" data-source-line="21" data-uid="ent0005" id="entity_credentials2"><rect fill="#F1F1F1" height="60.8906" rx="2.5" ry="2.5" style="stroke:#181818;stroke-width:0.5;" width="236.9229" x="1481.55" y="144.89"/><text fill="#000000" font-family="sans-serif" font-size="14" lengthAdjust="spacing" textLength="86.4883" x="1556.7673" y="159.8851">credentials2</text><line style="stroke:#181818;stroke-width:0.5;" x1="1482.55" x2="1717.4729" y1="165.1869" y2="165.1869"/><text fill="#000000" font-family="sans-serif" font-size="14" lengthAdjust="spacing" textLength="195.8906" x="1487.55" y="182.182">email = "roma@gmail.com"</text><text fill="#000000" font-family="sans-serif" font-size="14" lengthAdjust="spacing" textLength="224.9229" x="1487.55" y="198.4789">password = "12332112345678"</text></g><g class="entity" data-entity="chat1" data-source-line="26" data-uid="ent0006" id="entity_chat1"><rect fill="#F1F1F1" height="93.4844" rx="2.5" ry="2.5" style="stroke:#181818;stroke-width:0.5;" width="219.8945" x="717.06" y="299.08"/><text fill="#000000" font-family="sans-serif" font-size="14" lengthAdjust="spacing" textLength="39.5459" x="807.2343" y="314.0751">chat1</text><line style="stroke:#181818;stroke-width:0.5;" x1="718.06" x2="935.9545" y1="319.3769" y2="319.3769"/><text fill="#000000" font-family="sans-serif" font-size="14" lengthAdjust="spacing" textLength="97.7676" x="723.06" y="336.372">chat_id = 101</text><text fill="#000000" font-family="sans-serif" font-size="14" lengthAdjust="spacing" textLength="147.1025" x="723.06" y="352.6689">title = "Private Chat"</text><text fill="#000000" font-family="sans-serif" font-size="14" lengthAdjust="spacing" textLength="114.2832" x="723.06" y="368.9657">type = "private"</text><text fill="#000000" font-family="sans-serif" font-size="14" lengthAdjust="spacing" textLength="207.8945" x="723.06" y="385.2626">last_message = "Hello Alice!"</text></g><g class="entity" data-entity="chatMember1" data-source-line="33" data-uid="ent0007" id="entity_chatMember1"><rect fill="#F1F1F1" height="93.4844" rx="2.5" ry="2.5" style="stroke:#181818;stroke-width:0.5;" width="236.5879" x="373.72" y="128.59"/><text fill="#000000" font-family="sans-serif" font-size="14" lengthAdjust="spacing" textLength="97.1318" x="443.448" y="143.5851">chatMember1</text><line style="stroke:#181818;stroke-width:0.5;" x1="374.72" x2="609.3079" y1="148.8869" y2="148.8869"/><text fill="#000000" font-family="sans-serif" font-size="14" lengthAdjust="spacing" textLength="79.8506" x="379.72" y="165.882">user_id = 1</text><text fill="#000000" font-family="sans-serif" font-size="14" lengthAdjust="spacing" textLength="97.7676" x="379.72" y="182.1789">chat_id = 101</text><text fill="#000000" font-family="sans-serif" font-size="14" lengthAdjust="spacing" textLength="224.5879" x="379.72" y="198.4757">added_at = "2026-02-10 09:15"</text><text fill="#000000" font-family="sans-serif" font-size="14" lengthAdjust="spacing" textLength="119.4785" x="379.72" y="214.7726">role = "member"</text></g><g class="entity" data-entity="chatMember2" data-source-line="40" data-uid="ent0008" id="entity_chatMember2"><rect fill="#F1F1F1" height="93.4844" rx="2.5" ry="2.5" style="stroke:#181818;stroke-width:0.5;" width="236.5879" x="927.72" y="128.59"/><text fill="#000000" font-family="sans-serif" font-size="14" lengthAdjust="spacing" textLength="97.1318" x="997.448" y="143.5851">chatMember2</text><line style="stroke:#181818;stroke-width:0.5;" x1="928.72" x2="1163.3079" y1="148.8869" y2="148.8869"/><text fill="#000000" font-family="sans-serif" font-size="14" lengthAdjust="spacing" textLength="79.8506" x="933.72" y="165.882">user_id = 2</text><text fill="#000000" font-family="sans-serif" font-size="14" lengthAdjust="spacing" textLength="97.7676" x="933.72" y="182.1789">chat_id = 101</text><text fill="#000000" font-family="sans-serif" font-size="14" lengthAdjust="spacing" textLength="224.5879" x="933.72" y="198.4757">added_at = "2026-02-10 09:16"</text><text fill="#000000" font-family="sans-serif" font-size="14" lengthAdjust="spacing" textLength="119.4785" x="933.72" y="214.7726">role = "member"</text></g><g class="entity" data-entity="msg1" data-source-line="47" data-uid="ent0009" id="entity_msg1"><rect fill="#F1F1F1" height="77.1875" rx="2.5" ry="2.5" style="stroke:#181818;stroke-width:0.5;" width="247.1836" x="645.42" y="136.74"/><text fill="#000000" font-family="sans-serif" font-size="14" lengthAdjust="spacing" textLength="38.7256" x="749.649" y="151.7351">msg1</text><line style="stroke:#181818;stroke-width:0.5;" x1="646.42" x2="891.6036" y1="157.0369" y2="157.0369"/><text fill="#000000" font-family="sans-serif" font-size="14" lengthAdjust="spacing" textLength="112.2324" x="651.42" y="174.032">message_id = 1</text><text fill="#000000" font-family="sans-serif" font-size="14" lengthAdjust="spacing" textLength="126.376" x="651.42" y="190.3289">text = "Hi Roma!"</text><text fill="#000000" font-family="sans-serif" font-size="14" lengthAdjust="spacing" textLength="235.1836" x="651.42" y="206.6257">timestamp = "2026-02-10 10:15"</text></g><g class="entity" data-entity="msg2" data-source-line="53" data-uid="ent0010" id="entity_msg2"><rect fill="#F1F1F1" height="77.1875" rx="2.5" ry="2.5" style="stroke:#181818;stroke-width:0.5;" width="247.1836" x="1199.42" y="136.74"/><text fill="#000000" font-family="sans-serif" font-size="14" lengthAdjust="spacing" textLength="38.7256" x="1303.649" y="151.7351">msg2</text><line style="stroke:#181818;stroke-width:0.5;" x1="1200.42" x2="1445.6036" y1="157.0369" y2="157.0369"/><text fill="#000000" font-family="sans-serif" font-size="14" lengthAdjust="spacing" textLength="112.2324" x="1205.42" y="174.032">message_id = 2</text><text fill="#000000" font-family="sans-serif" font-size="14" lengthAdjust="spacing" textLength="140.6016" x="1205.42" y="190.3289">text = "Hello Alice!"</text><text fill="#000000" font-family="sans-serif" font-size="14" lengthAdjust="spacing" textLength="235.1836" x="1205.42" y="206.6257">timestamp = "2026-02-10 10:16"</text></g><g class="entity" data-entity="reaction1" data-source-line="59" data-uid="ent0011" id="entity_reaction1"><rect fill="#F1F1F1" height="44.5938" rx="2.5" ry="2.5" style="stroke:#181818;stroke-width:0.5;" width="136.5918" x="1254.71" y="7"/><text fill="#000000" font-family="sans-serif" font-size="14" lengthAdjust="spacing" textLength="66.3701" x="1289.8208" y="21.9951">reaction1</text><line style="stroke:#181818;stroke-width:0.5;" x1="1255.71" x2="1390.3018" y1="27.2969" y2="27.2969"/><text fill="#000000" font-family="sans-serif" font-size="14" lengthAdjust="spacing" textLength="124.5918" x="1260.71" y="44.292">reaction_id = 134</text></g><g class="entity" data-entity="reactionInfo1" data-source-line="63" data-uid="ent0012" id="entity_reactionInfo1"><rect fill="#F1F1F1" height="77.1875" rx="2.5" ry="2.5" style="stroke:#181818;stroke-width:0.5;" width="200.0293" x="1753" y="136.74"/><text fill="#000000" font-family="sans-serif" font-size="14" lengthAdjust="spacing" textLength="92.8662" x="1806.5815" y="151.7351">reactionInfo1</text><line style="stroke:#181818;stroke-width:0.5;" x1="1754" x2="1952.0293" y1="157.0369" y2="157.0369"/><text fill="#000000" font-family="sans-serif" font-size="14" lengthAdjust="spacing" textLength="60.1289" x="1759" y="174.032">id = 134</text><text fill="#000000" font-family="sans-serif" font-size="14" lengthAdjust="spacing" textLength="97.7129" x="1759" y="190.3289">name = "like"</text><text fill="#000000" font-family="sans-serif" font-size="14" lengthAdjust="spacing" textLength="188.0293" x="1759" y="206.6257">image = "path/to/like.png"</text></g><!--reverse link credentials1 to user1--><g class="link" data-entity-1="credentials1" data-entity-2="user1" data-source-line="69" data-uid="lnk13" id="link_credentials1_user1"><path codeLine="69" d="M135.794,215.7539 C149.854,235.3139 163.07,250.85 185.01,269.08 C197.94,279.81 212.62,289.77 227.47,298.69" fill="none" id="credentials1-backto-user1" style="stroke:#181818;stroke-width:1;"/><polygon fill="#181818" points="128.79,206.01,129.0441,213.2166,135.794,215.7539,135.54,208.5473,128.79,206.01" style="stroke:#181818;stroke-width:1;"/><text fill="#000000" font-family="sans-serif" font-size="13" lengthAdjust="spacing" textLength="68.2627" x="186.01" y="265.1469">belongs to</text></g><!--reverse link credentials2 to user2--><g class="link" data-entity-1="credentials2" data-entity-2="user2" data-source-line="70" data-uid="lnk14" id="link_credentials2_user2"><path codeLine="70" d="M1540.5581,212.4968 C1498.4281,238.1268 1447.33,269.2 1398.91,298.65" fill="none" id="credentials2-backto-user2" style="stroke:#181818;stroke-width:1;"/><polygon fill="#181818" points="1550.81,206.26,1543.6051,205.9611,1540.5581,212.4968,1547.763,212.7957,1550.81,206.26" style="stroke:#181818;stroke-width:1;"/><text fill="#000000" font-family="sans-serif" font-size="13" lengthAdjust="spacing" textLength="68.2627" x="1470.82" y="265.1469">belongs to</text></g><!--link chatMember1 to user1--><g class="link" data-entity-1="chatMember1" data-entity-2="user1" data-source-line="72" data-uid="lnk15" id="link_chatMember1_user1"><path codeLine="72" d="M445.83,222.37 C421.98,246.15 397.2198,270.8345 373.3798,294.5945" fill="none" id="chatMember1-to-user1" style="stroke:#181818;stroke-width:1;"/><polygon fill="#181818" points="369.13,298.83,378.3283,295.3099,372.6715,295.3004,372.681,289.6436,369.13,298.83" style="stroke:#181818;stroke-width:1;"/><text fill="#000000" font-family="sans-serif" font-size="13" lengthAdjust="spacing" textLength="69.8179" x="413.58" y="265.1469">represents</text></g><!--link chatMember1 to chat1--><g class="link" data-entity-1="chatMember1" data-entity-2="chat1" data-source-line="73" data-uid="lnk16" id="link_chatMember1_chat1"><path codeLine="73" d="M594.2699,227.7629 C641.4399,251.4929 682.7298,272.254 729.9298,295.994" fill="none" id="chatMember1-chat1" style="stroke:#181818;stroke-width:1;"/><polygon fill="#181818" points="583.55,222.37,587.1123,228.6398,594.2699,227.7629,590.7076,221.4932,583.55,222.37" style="stroke:#181818;stroke-width:1;"/><polygon fill="#181818" points="735.29,298.69,729.047,291.0726,730.8232,296.4433,725.4524,298.2195,735.29,298.69" style="stroke:#181818;stroke-width:1;"/><text fill="#000000" font-family="sans-serif" font-size="13" lengthAdjust="spacing" textLength="71.5825" x="670.56" y="265.1469">member of</text></g><!--link chatMember2 to user2--><g class="link" data-entity-1="chatMember2" data-entity-2="user2" data-source-line="75" data-uid="lnk17" id="link_chatMember2_user2"><path codeLine="75" d="M1121.7,222.37 C1160.79,246.15 1203.2135,271.9524 1242.2835,295.7124" fill="none" id="chatMember2-to-user2" style="stroke:#181818;stroke-width:1;"/><polygon fill="#181818" points="1247.41,298.83,1241.7987,290.736,1243.138,296.232,1237.6419,297.5712,1247.41,298.83" style="stroke:#181818;stroke-width:1;"/><text fill="#000000" font-family="sans-serif" font-size="13" lengthAdjust="spacing" textLength="69.8179" x="1193.82" y="265.1469">represents</text></g><!--link chatMember2 to chat1--><g class="link" data-entity-1="chatMember2" data-entity-2="chat1" data-source-line="76" data-uid="lnk18" id="link_chatMember2_chat1"><path codeLine="76" d="M976.6601,229.6886 C945.7601,253.4686 922.4259,271.4119 891.5359,295.1719" fill="none" id="chatMember2-chat1" style="stroke:#181818;stroke-width:1;"/><polygon fill="#181818" points="986.17,222.37,978.9755,222.8593,976.6601,229.6886,983.8546,229.1993,986.17,222.37" style="stroke:#181818;stroke-width:1;"/><polygon fill="#181818" points="886.78,298.83,896.3525,296.5134,890.7432,295.7816,891.475,290.1723,886.78,298.83" style="stroke:#181818;stroke-width:1;"/><text fill="#000000" font-family="sans-serif" font-size="13" lengthAdjust="spacing" textLength="71.5825" x="944.08" y="265.1469">member of</text></g><!--link msg1 to chat1--><g class="link" data-entity-1="msg1" data-entity-2="chat1" data-source-line="78" data-uid="lnk19" id="link_msg1_chat1"><path codeLine="78" d="M774.9682,225.906 C777.5482,243.026 779.81,251.47 786.01,269.08 C789.49,278.95 791.3797,283.7475 796.2897,293.2675" fill="none" id="msg1-chat1" style="stroke:#181818;stroke-width:1;"/><polygon fill="#181818" points="773.18,214.04,770.1188,220.5691,774.9682,225.906,778.0294,219.3769,773.18,214.04" style="stroke:#181818;stroke-width:1;"/><polygon fill="#181818" points="799.04,298.6,798.4696,288.7677,796.7481,294.1562,791.3595,292.4347,799.04,298.6" style="stroke:#181818;stroke-width:1;"/><text fill="#000000" font-family="sans-serif" font-size="13" lengthAdjust="spacing" textLength="44.0908" x="787.01" y="265.1469">sent in</text></g><!--link msg1 to user1--><g class="link" data-entity-1="msg1" data-entity-2="user1" data-source-line="79" data-uid="lnk20" id="link_msg1_user1"><path codeLine="79" d="M668.36,214.35 C595.78,241.77 503.7727,276.5293 430.8327,304.0893" fill="none" id="msg1-to-user1" style="stroke:#181818;stroke-width:1;"/><polygon fill="#181818" points="425.22,306.21,435.0529,306.7707,429.8973,304.4427,432.2252,299.2871,425.22,306.21" style="stroke:#181818;stroke-width:1;"/><text fill="#000000" font-family="sans-serif" font-size="13" lengthAdjust="spacing" textLength="48.1851" x="560.38" y="265.1469">sent by</text></g><!--link msg2 to chat1--><g class="link" data-entity-1="msg2" data-entity-2="chat1" data-source-line="81" data-uid="lnk21" id="link_msg2_chat1"><path codeLine="81" d="M1199.7178,218.21 C1117.8578,246.02 1024.3912,277.7702 942.9312,305.4402" fill="none" id="msg2-chat1" style="stroke:#181818;stroke-width:1;"/><polygon fill="#181818" points="1211.08,214.35,1204.1122,212.4926,1199.7178,218.21,1206.6856,220.0674,1211.08,214.35" style="stroke:#181818;stroke-width:1;"/><polygon fill="#181818" points="937.25,307.37,947.0583,308.2628,941.9843,305.7619,944.4853,300.6879,937.25,307.37" style="stroke:#181818;stroke-width:1;"/><text fill="#000000" font-family="sans-serif" font-size="13" lengthAdjust="spacing" textLength="44.0908" x="1090.88" y="265.1469">sent in</text></g><!--link msg2 to user2--><g class="link" data-entity-1="msg2" data-entity-2="user2" data-source-line="82" data-uid="lnk22" id="link_msg2_user2"><path codeLine="82" d="M1323.01,214.14 C1323.01,239.18 1323.01,266.16 1323.01,292.73" fill="none" id="msg2-to-user2" style="stroke:#181818;stroke-width:1;"/><polygon fill="#181818" points="1323.01,298.73,1327.01,289.73,1323.01,293.73,1319.01,289.73,1323.01,298.73" style="stroke:#181818;stroke-width:1;"/><text fill="#000000" font-family="sans-serif" font-size="13" lengthAdjust="spacing" textLength="48.1851" x="1324.01" y="265.1469">sent by</text></g><!--link reaction1 to msg2--><g class="link" data-entity-1="reaction1" data-entity-2="msg2" data-source-line="84" data-uid="lnk23" id="link_reaction1_msg2"><path codeLine="84" d="M1323.01,63.86 C1323.01,86.15 1323.01,103.39 1323.01,130.36" fill="none" id="reaction1-msg2" style="stroke:#181818;stroke-width:1;"/><polygon fill="#181818" points="1323.01,51.86,1319.01,57.86,1323.01,63.86,1327.01,57.86,1323.01,51.86" style="stroke:#181818;stroke-width:1;"/><polygon fill="#181818" points="1323.01,136.36,1327.01,127.36,1323.01,131.36,1319.01,127.36,1323.01,136.36" style="stroke:#181818;stroke-width:1;"/><text fill="#000000" font-family="sans-serif" font-size="13" lengthAdjust="spacing" textLength="57.5098" x="1324.01" y="94.6569">reacts to</text></g><!--link reaction1 to user1--><g class="link" data-entity-1="reaction1" data-entity-2="user1" data-source-line="85" data-uid="lnk24" id="link_reaction1_user1"><path codeLine="85" d="M1254.49,31.65 C1035.38,36.68 362.33,57.81 298.01,128.59 C256.33,174.46 275.9111,244.8004 297.1011,293.3804" fill="none" id="reaction1-to-user1" style="stroke:#181818;stroke-width:1;"/><polygon fill="#181818" points="299.5,298.88,299.5681,289.0314,297.501,294.297,292.2353,292.2298,299.5,298.88" style="stroke:#181818;stroke-width:1;"/><text fill="#000000" font-family="sans-serif" font-size="13" lengthAdjust="spacing" textLength="56.9575" x="299.01" y="179.8969">made by</text></g><!--link reaction1 to reactionInfo1--><g class="link" data-entity-1="reaction1" data-entity-2="reactionInfo1" data-source-line="86" data-uid="lnk25" id="link_reaction1_reactionInfo1"><path codeLine="86" d="M1391.76,43.6 C1474.38,60.29 1616.78,91.29 1736.01,128.59 C1743.5,130.94 1745.5426,131.5215 1753.2426,134.2415" fill="none" id="reaction1-to-reactionInfo1" style="stroke:#181818;stroke-width:1;"/><polygon fill="#181818" points="1758.9,136.24,1751.7462,129.4707,1754.1855,134.5746,1749.0816,137.0139,1758.9,136.24" style="stroke:#181818;stroke-width:1;"/><text fill="#000000" font-family="sans-serif" font-size="13" lengthAdjust="spacing" textLength="29.0405" x="1624.91" y="94.6569">type</text></g><!--SRC=[bLJRJjmm47tFLvXzH0h4ix0jaK2Wlj27IbL_8F8cGp3OSR3T2whwxutjPDSEIL7tAPupSyvSL-sViBRakq5DoU-C33_Ua6j2_MV790wFpPtWDMwy2INZmjcOizssxdbMAnbGoze3LW5SqKts9ylKKGHY4KX4lYd9PXfwCAr8w8fkQOKlBub4hR71pd8cp5JElnFkcJ4_bNRPR2XiBovt7pwk4CASS2cx6TyMw2Bh8xDJVkwx2ZqlGjSjjy9tvAlcFvX5ycbm6Oj_xJtI1oGO1JEsacWCQpruZq8eucTsCbVzWd9_7BMRI1ND-sqkh6cmgPXrl530BYyWfmKfhafw6TIr2ibApxoi1s_quF_rTk_fITDEXOtTY6kp-CkptdFYDkraR2WVN2sJ_KoG5hx0X1oMo24bJrh_di0k5j38QijLDvKmlSSQjXSBlf-x1vMUxU0MtvJWp-EIS3bkHy_iuxbLvmuwwxlMvv3SpMcUZty89TcZK5rhY5LPSWgJ3wG-MRnZUNvpuD7OQpH3k4bSJfrFk8QIX8aIzH3Jm846rcXWbSPlH0AwMCAxWCG9Uc3_wcDWDIRDvX1pd9qFz8vbc99lon6F9ILhq8MdQ3hRqfzyzXS0]--></g></svg>