<svg xmlns="http://www.w3.org/2000/svg" xmlns:xlink="http://www.w3.org/1999/xlink" contentStyleType="text/css" data-diagram-type="STATE" height="861px" preserveAspectRatio="none" style="width:542px;height:861px;background:#FFFFFF;" version="1.1" viewBox="0 0 542 861" width="542px" zoomAndPan="magnify"><defs/><g><ellipse cx="438.65" cy="16" fill="#222222" rx="10" ry="10" style="stroke:#222222;stroke-width:1;"/><g id="Draft"><rect fill="#F1F1F1" height="50" rx="12.5" ry="12.5" style="stroke:#181818;stroke-width:0.5;" width="55.5332" x="410.88" y="87"/><line style="stroke:#181818;stroke-width:0.5;" x1="410.88" x2="466.4132" y1="113.2969" y2="113.2969"/><text fill="#000000" font-family="sans-serif" font-size="14" lengthAdjust="spacing" textLength="35.5332" x="420.88" y="104.9951">Draft</text></g><g id="Sending"><rect fill="#F1F1F1" height="50" rx="12.5" ry="12.5" style="stroke:#181818;stroke-width:0.5;" width="76.9092" x="400.19" y="214"/><line style="stroke:#181818;stroke-width:0.5;" x1="400.19" x2="477.0992" y1="240.2969" y2="240.2969"/><text fill="#000000" font-family="sans-serif" font-size="14" lengthAdjust="spacing" textLength="56.9092" x="410.19" y="231.9951">Sending</text></g><g id="Sent"><rect fill="#F1F1F1" height="50" rx="12.5" ry="12.5" style="stroke:#181818;stroke-width:0.5;" width="51.8623" x="320.72" y="341"/><line style="stroke:#181818;stroke-width:0.5;" x1="320.72" x2="372.5823" y1="367.2969" y2="367.2969"/><text fill="#000000" font-family="sans-serif" font-size="14" lengthAdjust="spacing" textLength="31.8623" x="330.72" y="358.9951">Sent</text></g><g id="Failed"><rect fill="#F1F1F1" height="50" rx="12.5" ry="12.5" style="stroke:#181818;stroke-width:0.5;" width="61.9111" x="460.69" y="341"/><line style="stroke:#181818;stroke-width:0.5;" x1="460.69" x2="522.6011" y1="367.2969" y2="367.2969"/><text fill="#000000" font-family="sans-serif" font-size="14" lengthAdjust="spacing" textLength="41.9111" x="470.69" y="358.9951">Failed</text></g><ellipse cx="435.65" cy="844" fill="none" rx="11" ry="11" style="stroke:#222222;stroke-width:1;"/><ellipse cx="435.65" cy="844" fill="#222222" rx="6" ry="6" style="stroke:#222222;stroke-width:1;"/><g id="Delivered"><rect fill="#F1F1F1" height="50" rx="12.5" ry="12.5" style="stroke:#181818;stroke-width:0.5;" width="87.3271" x="302.98" y="468"/><line style="stroke:#181818;stroke-width:0.5;" x1="302.98" x2="390.3071" y1="494.2969" y2="494.2969"/><text fill="#000000" font-family="sans-serif" font-size="14" lengthAdjust="spacing" textLength="67.3271" x="312.98" y="485.9951">Delivered</text></g><g id="Read"><rect fill="#F1F1F1" height="50" rx="12.5" ry="12.5" style="stroke:#181818;stroke-width:0.5;" width="55.8066" x="205.75" y="595"/><line style="stroke:#181818;stroke-width:0.5;" x1="205.75" x2="261.5566" y1="621.2969" y2="621.2969"/><text fill="#000000" font-family="sans-serif" font-size="14" lengthAdjust="spacing" textLength="35.8066" x="215.75" y="612.9951">Read</text></g><g id="Liked"><rect fill="#F1F1F1" height="50" rx="12.5" ry="12.5" style="stroke:#181818;stroke-width:0.5;" width="57.2969" x="7" y="722"/><line style="stroke:#181818;stroke-width:0.5;" x1="7" x2="64.2969" y1="748.2969" y2="748.2969"/><text fill="#000000" font-family="sans-serif" font-size="14" lengthAdjust="spacing" textLength="37.2969" x="17" y="739.9951">Liked</text></g><g id="Edited"><rect fill="#F1F1F1" height="50" rx="12.5" ry="12.5" style="stroke:#181818;stroke-width:0.5;" width="64.6113" x="153.34" y="722"/><line style="stroke:#181818;stroke-width:0.5;" x1="153.34" x2="217.9513" y1="748.2969" y2="748.2969"/><text fill="#000000" font-family="sans-serif" font-size="14" lengthAdjust="spacing" textLength="44.6113" x="163.34" y="739.9951">Edited</text></g><g id="Deleted"><rect fill="#F1F1F1" height="50" rx="12.5" ry="12.5" style="stroke:#181818;stroke-width:0.5;" width="74.8857" x="342.21" y="722"/><line style="stroke:#181818;stroke-width:0.5;" x1="342.21" x2="417.0957" y1="748.2969" y2="748.2969"/><text fill="#000000" font-family="sans-serif" font-size="14" lengthAdjust="spacing" textLength="54.8857" x="352.21" y="739.9951">Deleted</text></g><!--link *start* to Draft--><g class="link" data-entity-1=".start." data-entity-2="Draft" data-source-line="2" data-uid="lnk4" id="link_.start._Draft"><path d="M438.65,26.36 C438.65,40.29 438.65,60.95 438.65,80.65" fill="none" id="*start*-to-Draft" style="stroke:#181818;stroke-width:1;"/><polygon fill="#181818" points="438.65,86.65,442.65,77.65,438.65,81.65,434.65,77.65,438.65,86.65" style="stroke:#181818;stroke-width:1;"/></g><!--link Draft to Sending--><g class="link" data-entity-1="Draft" data-entity-2="Sending" data-source-line="4" data-uid="lnk6" id="link_Draft_Sending"><path d="M438.65,137.4 C438.65,159.42 438.65,185.66 438.65,207.66" fill="none" id="Draft-to-Sending" style="stroke:#181818;stroke-width:1;"/><polygon fill="#181818" points="438.65,213.66,442.65,204.66,438.65,208.66,434.65,204.66,438.65,213.66" style="stroke:#181818;stroke-width:1;"/><text fill="#000000" font-family="sans-serif" font-size="13" lengthAdjust="spacing" textLength="72.0142" x="439.65" y="180.0669">press Send</text></g><!--link Sending to Sent--><g class="link" data-entity-1="Sending" data-entity-2="Sent" data-source-line="6" data-uid="lnk8" id="link_Sending_Sent"><path d="M401.16,264.27 C390.47,272.65 379.58,282.78 371.65,294 C361.76,307.98 356.9738,320.4367 353.1638,334.9467" fill="none" id="Sending-to-Sent" style="stroke:#181818;stroke-width:1;"/><polygon fill="#181818" points="351.64,340.75,357.7946,333.061,352.9098,335.9139,350.0569,331.0292,351.64,340.75" style="stroke:#181818;stroke-width:1;"/><text fill="#000000" font-family="sans-serif" font-size="13" lengthAdjust="spacing" textLength="50.8511" x="372.65" y="307.0669">success</text></g><!--link Sending to Failed--><g class="link" data-entity-1="Sending" data-entity-2="Failed" data-source-line="7" data-uid="lnk10" id="link_Sending_Failed"><path d="M432.57,264.27 C430.23,278.44 429.42,296.35 435.65,311 C440.88,323.31 445.9611,330.1776 455.7211,338.8776" fill="none" id="Sending-to-Failed" style="stroke:#181818;stroke-width:1;"/><polygon fill="#181818" points="460.2,342.87,456.1433,333.8954,456.4676,339.543,450.82,339.8673,460.2,342.87" style="stroke:#181818;stroke-width:1;"/><text fill="#000000" font-family="sans-serif" font-size="13" lengthAdjust="spacing" textLength="31.9858" x="436.65" y="307.0669">error</text></g><!--link Failed to Sending--><g class="link" data-entity-1="Failed" data-entity-2="Sending" data-source-line="9" data-uid="lnk11" id="link_Failed_Sending"><path d="M487.05,340.73 C483.93,326.72 479.18,308.97 472.65,294 C468.22,283.85 465.339,278.4148 459.479,269.4348" fill="none" id="Failed-to-Sending" style="stroke:#181818;stroke-width:1;"/><polygon fill="#181818" points="456.2,264.41,457.7686,274.1331,458.9325,268.5973,464.4683,269.7612,456.2,264.41" style="stroke:#181818;stroke-width:1;"/><text fill="#000000" font-family="sans-serif" font-size="13" lengthAdjust="spacing" textLength="31.478" x="480.02" y="307.0669">retry</text></g><!--link Failed to *end*--><g class="link" data-entity-1="Failed" data-entity-2=".end." data-source-line="10" data-uid="lnk13" id="link_Failed_.end."><path d="M491.65,391.43 C491.65,416.63 491.65,457.06 491.65,492 C491.65,492 491.65,492 491.65,748 C491.65,785.52 463.1589,817.1358 447.7789,831.8258" fill="none" id="Failed-to-*end*" style="stroke:#181818;stroke-width:1;"/><polygon fill="#181818" points="443.44,835.97,452.7111,832.6463,447.0557,832.5165,447.1855,826.8611,443.44,835.97" style="stroke:#181818;stroke-width:1;"/><text fill="#000000" font-family="sans-serif" font-size="13" lengthAdjust="spacing" textLength="42.1104" x="492.65" y="624.5669">cancel</text></g><!--link Sent to Delivered--><g class="link" data-entity-1="Sent" data-entity-2="Delivered" data-source-line="12" data-uid="lnk15" id="link_Sent_Delivered"><path d="M346.65,391.4 C346.65,413.42 346.65,439.66 346.65,461.66" fill="none" id="Sent-to-Delivered" style="stroke:#181818;stroke-width:1;"/><polygon fill="#181818" points="346.65,467.66,350.65,458.66,346.65,462.66,342.65,458.66,346.65,467.66" style="stroke:#181818;stroke-width:1;"/><text fill="#000000" font-family="sans-serif" font-size="13" lengthAdjust="spacing" textLength="101.918" x="347.65" y="434.0669">delivered event</text></g><!--link Delivered to Read--><g class="link" data-entity-1="Delivered" data-entity-2="Read" data-source-line="13" data-uid="lnk17" id="link_Delivered_Read"><path d="M313.63,518.41 C302.85,527.15 291.2,537.45 281.65,548 C268.66,562.34 259.6401,575.3135 250.8001,589.6435" fill="none" id="Delivered-to-Read" style="stroke:#181818;stroke-width:1;"/><polygon fill="#181818" points="247.65,594.75,255.7796,589.1903,250.2751,590.4946,248.9709,584.9901,247.65,594.75" style="stroke:#181818;stroke-width:1;"/><text fill="#000000" font-family="sans-serif" font-size="13" lengthAdjust="spacing" textLength="70.7192" x="282.65" y="561.0669">read event</text></g><!--link Read to Liked--><g class="link" data-entity-1="Read" data-entity-2="Liked" data-source-line="15" data-uid="lnk19" id="link_Read_Liked"><path d="M205.52,622.23 C167.71,625.38 100.62,636.44 60.65,675 C47.95,687.25 42.8741,700.438 39.7941,715.738" fill="none" id="Read-to-Liked" style="stroke:#181818;stroke-width:1;"/><polygon fill="#181818" points="38.61,721.62,44.3075,713.5864,39.5967,716.7183,36.4648,712.0076,38.61,721.62" style="stroke:#181818;stroke-width:1;"/><text fill="#000000" font-family="sans-serif" font-size="13" lengthAdjust="spacing" textLength="108.8433" x="61.65" y="688.0669">add like reaction</text></g><!--link Read to Edited--><g class="link" data-entity-1="Read" data-entity-2="Edited" data-source-line="16" data-uid="lnk21" id="link_Read_Edited"><path d="M205.49,643.11 C196.41,651.94 187.46,662.9 182.65,675 C176.81,689.67 176.6303,701.4925 178.8403,715.5825" fill="none" id="Read-to-Edited" style="stroke:#181818;stroke-width:1;"/><polygon fill="#181818" points="179.77,721.51,182.3271,711.9989,178.9952,716.5704,174.4237,713.2385,179.77,721.51" style="stroke:#181818;stroke-width:1;"/><text fill="#000000" font-family="sans-serif" font-size="13" lengthAdjust="spacing" textLength="87.5151" x="183.65" y="688.0669">edit message</text></g><!--link Delivered to Deleted--><g class="link" data-entity-1="Delivered" data-entity-2="Deleted" data-source-line="18" data-uid="lnk23" id="link_Delivered_Deleted"><path d="M352.1,518.38 C354.04,527.62 356.12,538.26 357.65,548 C367.42,610.19 373.9066,678.052 377.1266,715.542" fill="none" id="Delivered-to-Deleted" style="stroke:#181818;stroke-width:1;"/><polygon fill="#181818" points="377.64,721.52,380.8552,712.2107,377.2121,716.5383,372.8845,712.8953,377.64,721.52" style="stroke:#181818;stroke-width:1;"/><text fill="#000000" font-family="sans-serif" font-size="13" lengthAdjust="spacing" textLength="40.9551" x="371.1" y="624.5669">delete</text></g><!--link Read to Deleted--><g class="link" data-entity-1="Read" data-entity-2="Deleted" data-source-line="19" data-uid="lnk24" id="link_Read_Deleted"><path d="M259.61,645.44 C274.6,659.34 293.93,676.93 311.65,692 C323.36,701.96 331.8256,708.8486 343.4356,717.9886" fill="none" id="Read-to-Deleted" style="stroke:#181818;stroke-width:1;"/><polygon fill="#181818" points="348.15,721.7,343.5527,712.99,344.2213,718.6072,338.6041,719.2758,348.15,721.7" style="stroke:#181818;stroke-width:1;"/><text fill="#000000" font-family="sans-serif" font-size="13" lengthAdjust="spacing" textLength="40.9551" x="312.65" y="688.0669">delete</text></g><!--link Deleted to *end*--><g class="link" data-entity-1="Deleted" data-entity-2=".end." data-source-line="21" data-uid="lnk25" id="link_Deleted_.end."><path d="M394.07,772.46 C406,792.7 419.2146,815.1103 427.4146,829.0303" fill="none" id="Deleted-to-*end*" style="stroke:#181818;stroke-width:1;"/><polygon fill="#181818" points="430.46,834.2,429.3384,824.4152,427.9222,829.8919,422.4455,828.4757,430.46,834.2" style="stroke:#181818;stroke-width:1;"/></g><!--SRC=[POyn3i8m34Ltdo8pKY_GWGcOc62i6ApOL14XHMwenErntOPIc6B_z_DjDvkBgwgjsmbUCu0z9fmvKKYjgzr3kE-j1oZgxCYA-wVtQbYX0uR8f915EW6O-tMkS9RNDsfqbzfvJ9wZZPessN4C0ulbqQVcGJaiR7IU6Cc2iN0mQMJ7SBC4979Hwz7bS-ZIOjbJoDFMMhYx7eKjmyyCxJYNNRHQllyHACfy7Bm1]--></g></svg>