<svg xmlns="http://www.w3.org/2000/svg" xmlns:xlink="http://www.w3.org/1999/xlink" contentStyleType="text/css" data-diagram-type="TIMING" height="264px" preserveAspectRatio="none" style="width:294px;height:264px;background:#FFFFFF;" version="1.1" viewBox="0 0 294 264" width="294px" zoomAndPan="magnify"><defs/><g><line style="stroke:#333333;stroke-width:0.5;" x1="10" x2="10" y1="10" y2="235.1875"/><line style="stroke:#333333;stroke-width:0.5;" x1="270" x2="270" y1="10" y2="235.1875"/><line style="stroke:#333333;stroke-width:0.5;stroke-dasharray:3,5;" x1="15" x2="15" y1="10" y2="235.1875"/><line style="stroke:#333333;stroke-width:0.5;stroke-dasharray:3,5;" x1="65" x2="65" y1="10" y2="235.1875"/><line style="stroke:#333333;stroke-width:0.5;stroke-dasharray:3,5;" x1="115" x2="115" y1="10" y2="235.1875"/><line style="stroke:#333333;stroke-width:0.5;stroke-dasharray:3,5;" x1="165" x2="165" y1="10" y2="235.1875"/><line style="stroke:#333333;stroke-width:0.5;stroke-dasharray:3,5;" x1="215" x2="215" y1="10" y2="235.1875"/><line style="stroke:#333333;stroke-width:0.5;stroke-dasharray:3,5;" x1="265" x2="265" y1="10" y2="235.1875"/><line style="stroke:#333333;stroke-width:0.5;" x1="10" x2="270" y1="10" y2="10"/><text fill="#333333" font-family="sans-serif" font-size="14" font-weight="bold" lengthAdjust="spacing" textLength="55.9658" x="15" y="22.9951">Sender</text><line style="stroke:#333333;stroke-width:0.5;" x1="10" x2="71.9658" y1="27.2969" y2="27.2969"/><line style="stroke:#333333;stroke-width:0.5;" x1="71.9658" x2="81.9658" y1="27.2969" y2="10"/><polygon fill="#E2E2F0" points="27,32.2969,53,32.2969,65,44.2969,53,56.2969,27,56.2969,15,44.2969" style="stroke:#006400;stroke-width:1.5;"/><polygon fill="#E2E2F0" points="77,32.2969,103,32.2969,115,44.2969,103,56.2969,77,56.2969,65,44.2969" style="stroke:#006400;stroke-width:1.5;"/><polygon fill="#E2E2F0" points="127,32.2969,265,32.2969,265,56.2969,127,56.2969,115,44.2969" style="stroke:#E2E2F0;stroke-width:1.5;"/><path d="M265,32.2969 L127,32.2969 L115,44.2969 L127,56.2969 L265,56.2969" fill="#E2E2F0" style="stroke:#006400;stroke-width:1.5;"/><text fill="#333333" font-family="sans-serif" font-size="12" font-weight="bold" lengthAdjust="spacing" textLength="25.3066" x="27.3467" y="48.4512">Idle</text><text fill="#333333" font-family="sans-serif" font-size="12" font-weight="bold" lengthAdjust="spacing" textLength="55.1602" x="62.4199" y="48.4512">Sending</text><text fill="#333333" font-family="sans-serif" font-size="12" font-weight="bold" lengthAdjust="spacing" textLength="25.3066" x="127" y="48.4512">Idle</text><line style="stroke:#333333;stroke-width:0.5;" x1="10" x2="270" y1="66.2969" y2="66.2969"/><text fill="#333333" font-family="sans-serif" font-size="14" font-weight="bold" lengthAdjust="spacing" textLength="52.0078" x="15" y="79.292">Server</text><line style="stroke:#333333;stroke-width:0.5;" x1="10" x2="68.0078" y1="83.5938" y2="83.5938"/><line style="stroke:#333333;stroke-width:0.5;" x1="68.0078" x2="78.0078" y1="83.5938" y2="66.2969"/><polygon fill="#E2E2F0" points="27,88.5938,103,88.5938,115,100.5938,103,112.5938,27,112.5938,15,100.5938" style="stroke:#006400;stroke-width:1.5;"/><polygon fill="#E2E2F0" points="127,88.5938,153,88.5938,165,100.5938,153,112.5938,127,112.5938,115,100.5938" style="stroke:#006400;stroke-width:1.5;"/><polygon fill="#E2E2F0" points="177,88.5938,265,88.5938,265,112.5938,177,112.5938,165,100.5938" style="stroke:#E2E2F0;stroke-width:1.5;"/><path d="M265,88.5938 L177,88.5938 L165,100.5938 L177,112.5938 L265,112.5938" fill="#E2E2F0" style="stroke:#006400;stroke-width:1.5;"/><text fill="#333333" font-family="sans-serif" font-size="12" font-weight="bold" lengthAdjust="spacing" textLength="52.4297" x="38.7852" y="104.748">Waiting</text><text fill="#333333" font-family="sans-serif" font-size="12" font-weight="bold" lengthAdjust="spacing" textLength="73.7402" x="103.1299" y="104.748">Processing</text><text fill="#333333" font-family="sans-serif" font-size="12" font-weight="bold" lengthAdjust="spacing" textLength="52.4297" x="177" y="104.748">Waiting</text><line style="stroke:#333333;stroke-width:0.5;" x1="10" x2="270" y1="122.5938" y2="122.5938"/><text fill="#333333" font-family="sans-serif" font-size="14" font-weight="bold" lengthAdjust="spacing" textLength="68.3936" x="15" y="135.5889">Receiver</text><line style="stroke:#333333;stroke-width:0.5;" x1="10" x2="84.3936" y1="139.8906" y2="139.8906"/><line style="stroke:#333333;stroke-width:0.5;" x1="84.3936" x2="94.3936" y1="139.8906" y2="122.5938"/><polygon fill="#E2E2F0" points="27,144.8906,203,144.8906,215,156.8906,203,168.8906,27,168.8906,15,156.8906" style="stroke:#006400;stroke-width:1.5;"/><polygon fill="#E2E2F0" points="227,144.8906,265,144.8906,265,168.8906,227,168.8906,215,156.8906" style="stroke:#E2E2F0;stroke-width:1.5;"/><path d="M265,144.8906 L227,144.8906 L215,156.8906 L227,168.8906 L265,168.8906" fill="#E2E2F0" style="stroke:#006400;stroke-width:1.5;"/><text fill="#333333" font-family="sans-serif" font-size="12" font-weight="bold" lengthAdjust="spacing" textLength="25.3066" x="102.3467" y="161.0449">Idle</text><text fill="#333333" font-family="sans-serif" font-size="12" font-weight="bold" lengthAdjust="spacing" textLength="55.3125" x="227" y="161.0449">Reading</text><line style="stroke:#333333;stroke-width:0.5;" x1="10" x2="270" y1="178.8906" y2="178.8906"/><text fill="#333333" font-family="sans-serif" font-size="14" font-weight="bold" lengthAdjust="spacing" textLength="69.0566" x="15" y="191.8857">Message</text><line style="stroke:#333333;stroke-width:0.5;" x1="10" x2="85.0566" y1="196.1875" y2="196.1875"/><line style="stroke:#333333;stroke-width:0.5;" x1="85.0566" x2="95.0566" y1="196.1875" y2="178.8906"/><polygon fill="#E2E2F0" points="27,201.1875,53,201.1875,65,213.1875,53,225.1875,27,225.1875,15,213.1875" style="stroke:#006400;stroke-width:1.5;"/><polygon fill="#E2E2F0" points="77,201.1875,103,201.1875,115,213.1875,103,225.1875,77,225.1875,65,213.1875" style="stroke:#006400;stroke-width:1.5;"/><polygon fill="#E2E2F0" points="127,201.1875,153,201.1875,165,213.1875,153,225.1875,127,225.1875,115,213.1875" style="stroke:#006400;stroke-width:1.5;"/><polygon fill="#E2E2F0" points="177,201.1875,203,201.1875,215,213.1875,203,225.1875,177,225.1875,165,213.1875" style="stroke:#006400;stroke-width:1.5;"/><polygon fill="#E2E2F0" points="227,201.1875,265,201.1875,265,225.1875,227,225.1875,215,213.1875" style="stroke:#E2E2F0;stroke-width:1.5;"/><path d="M265,201.1875 L227,201.1875 L215,213.1875 L227,225.1875 L265,225.1875" fill="#E2E2F0" style="stroke:#006400;stroke-width:1.5;"/><text fill="#333333" font-family="sans-serif" font-size="12" font-weight="bold" lengthAdjust="spacing" textLength="53.4258" x="13.2871" y="217.3418">Created</text><text fill="#333333" font-family="sans-serif" font-size="12" font-weight="bold" lengthAdjust="spacing" textLength="31.0605" x="74.4697" y="217.3418">Sent</text><text fill="#333333" font-family="sans-serif" font-size="12" font-weight="bold" lengthAdjust="spacing" textLength="41.291" x="119.3545" y="217.3418">Saved</text><text fill="#333333" font-family="sans-serif" font-size="12" font-weight="bold" lengthAdjust="spacing" textLength="64.9336" x="157.5332" y="217.3418">Delivered</text><text fill="#333333" font-family="sans-serif" font-size="12" font-weight="bold" lengthAdjust="spacing" textLength="34.0664" x="227" y="217.3418">Read</text><line style="stroke:#333333;stroke-width:2;" x1="15" x2="15" y1="235.1875" y2="240.1875"/><line style="stroke:#333333;stroke-width:2;" x1="65" x2="65" y1="235.1875" y2="240.1875"/><line style="stroke:#333333;stroke-width:2;" x1="115" x2="115" y1="235.1875" y2="240.1875"/><line style="stroke:#333333;stroke-width:2;" x1="165" x2="165" y1="235.1875" y2="240.1875"/><line style="stroke:#333333;stroke-width:2;" x1="215" x2="215" y1="235.1875" y2="240.1875"/><line style="stroke:#333333;stroke-width:2;" x1="265" x2="265" y1="235.1875" y2="240.1875"/><line style="stroke:#333333;stroke-width:2;" x1="15" x2="265" y1="235.1875" y2="235.1875"/><text fill="#333333" font-family="sans-serif" font-size="11" lengthAdjust="spacing" textLength="6.9985" x="11.5007" y="251.3979">0</text><text fill="#333333" font-family="sans-serif" font-size="11" lengthAdjust="spacing" textLength="6.9985" x="61.5007" y="251.3979">1</text><text fill="#333333" font-family="sans-serif" font-size="11" lengthAdjust="spacing" textLength="6.9985" x="111.5007" y="251.3979">2</text><text fill="#333333" font-family="sans-serif" font-size="11" lengthAdjust="spacing" textLength="6.9985" x="161.5007" y="251.3979">3</text><text fill="#333333" font-family="sans-serif" font-size="11" lengthAdjust="spacing" textLength="6.9985" x="211.5007" y="251.3979">4</text><!--SRC=[RKvB2iCW5Do_KqXEqDy10kscYq995bsB3a481bHo_lfYZ5QwctdpUQCMguo7w4PO3TS9wKM2f8haraDYMAG12YQBcHJv1U_bX4tTCL5_elH162-UUWQbLgOVQOAn4-MgmxAdcTyTP82EHUUgY14dAsCyXUYwLFrljwXeQ8roZNtDAEglVuPLgGTcdhWjkVqi7Y3RBNoYBm00]--></g></svg>