<svg xmlns="http://www.w3.org/2000/svg" xmlns:xlink="http://www.w3.org/1999/xlink" contentStyleType="text/css" data-diagram-type="DESCRIPTION" height="433px" preserveAspectRatio="none" style="width:412px;height:433px;background:#FFFFFF;" version="1.1" viewBox="0 0 412 433" width="412px" zoomAndPan="magnify"><defs/><g><!--cluster Messanger--><g class="cluster" data-entity="Messanger" data-source-line="9" data-uid="ent0005" id="cluster_Messanger"><path d="M185.53,6 L272.4577,6 A3.75,3.75 0 0 1 274.9577,8.5 L281.9577,28.2969 L403.13,28.2969 A2.5,2.5 0 0 1 405.63,30.7969 L405.63,423.5 A2.5,2.5 0 0 1 403.13,426 L185.53,426 A2.5,2.5 0 0 1 183.03,423.5 L183.03,8.5 A2.5,2.5 0 0 1 185.53,6" fill="none" style="stroke:#000000;stroke-width:1.5;"/><line style="stroke:#000000;stroke-width:1.5;" x1="183.03" x2="281.9577" y1="28.2969" y2="28.2969"/><text fill="#000000" font-family="sans-serif" font-size="14" font-weight="bold" lengthAdjust="spacing" textLength="85.9277" x="187.03" y="20.9951">Messanger</text></g><!--entity send_message--><g class="entity" data-entity="send_message" data-source-line="10" data-uid="ent0006" id="entity_send_message"><ellipse cx="294.3314" cy="186.0043" fill="#F1F1F1" rx="68.5214" ry="16.1043" style="stroke:#181818;stroke-width:0.5;"/><text fill="#000000" font-family="sans-serif" font-size="14" lengthAdjust="spacing" textLength="102.6279" x="243.0174" y="190.6527">Send message</text></g><!--entity search_users--><g class="entity" data-entity="search_users" data-source-line="11" data-uid="ent0007" id="entity_search_users"><ellipse cx="294.3281" cy="252.0016" fill="#F1F1F1" rx="63.9581" ry="15.1916" style="stroke:#181818;stroke-width:0.5;"/><text fill="#000000" font-family="sans-serif" font-size="14" lengthAdjust="spacing" textLength="90.6855" x="248.9854" y="256.6501">Search users</text></g><!--entity reactions--><g class="entity" data-entity="reactions" data-source-line="12" data-uid="ent0008" id="entity_reactions"><ellipse cx="294.3321" cy="317.0044" fill="#F1F1F1" rx="64.5221" ry="15.3044" style="stroke:#181818;stroke-width:0.5;"/><text fill="#000000" font-family="sans-serif" font-size="14" lengthAdjust="spacing" textLength="92.1963" x="248.2339" y="321.6529">Set reactions</text></g><!--entity private_chats--><g class="entity" data-entity="private_chats" data-source-line="13" data-uid="ent0009" id="entity_private_chats"><ellipse cx="294.3296" cy="388.9999" fill="#F1F1F1" rx="95.2996" ry="21.4599" style="stroke:#181818;stroke-width:0.5;"/><text fill="#000000" font-family="sans-serif" font-size="14" lengthAdjust="spacing" textLength="165.6416" x="211.5088" y="393.6484">Create chats with users</text></g><!--entity SignIn--><g class="entity" data-entity="SignIn" data-source-line="14" data-uid="ent0010" id="entity_SignIn"><ellipse cx="294.3261" cy="120.0036" fill="#F1F1F1" rx="33.7861" ry="14.5236" style="stroke:#181818;stroke-width:0.5;"/><text fill="#000000" font-family="sans-serif" font-size="14" lengthAdjust="spacing" textLength="43.5381" x="272.557" y="124.6521">SignIn</text></g><!--entity SignUp--><g class="entity" data-entity="SignUp" data-source-line="15" data-uid="ent0011" id="entity_SignUp"><ellipse cx="294.3319" cy="56.0036" fill="#F1F1F1" rx="38.1219" ry="14.5236" style="stroke:#181818;stroke-width:0.5;"/><text fill="#000000" font-family="sans-serif" font-size="14" lengthAdjust="spacing" textLength="49.6699" x="269.497" y="60.6521">SignUp</text></g><!--entity Guest--><g class="entity" data-entity="Guest" data-source-line="3" data-uid="ent0002" id="entity_Guest"><ellipse cx="118.4691" cy="58.35" fill="#F1F1F1" rx="8" ry="8" style="stroke:#181818;stroke-width:0.5;"/><path d="M118.4691,66.35 L118.4691,93.35 M105.4691,74.35 L131.4691,74.35 M118.4691,93.35 L105.4691,108.35 M118.4691,93.35 L131.4691,108.35" fill="none" style="stroke:#181818;stroke-width:0.5;"/><text fill="#000000" font-family="sans-serif" font-size="14" lengthAdjust="spacing" textLength="41.1182" x="97.91" y="122.8451">Guest</text></g><!--entity User--><g class="entity" data-entity="User" data-source-line="4" data-uid="ent0003" id="entity_User"><ellipse cx="21.9551" cy="220.35" fill="#F1F1F1" rx="8" ry="8" style="stroke:#181818;stroke-width:0.5;"/><path d="M21.9551,228.35 L21.9551,255.35 M8.9551,236.35 L34.9551,236.35 M21.9551,255.35 L8.9551,270.35 M21.9551,255.35 L34.9551,270.35" fill="none" style="stroke:#181818;stroke-width:0.5;"/><text fill="#000000" font-family="sans-serif" font-size="14" lengthAdjust="spacing" textLength="31.9102" x="6" y="284.8451">User</text></g><!--link User to Guest--><g class="link" data-entity-1="User" data-entity-2="Guest" data-source-line="6" data-uid="lnk4" id="link_User_Guest"><path d="M38.35,223.61 C54.46,196 70.7487,168.0771 88.3987,137.8271" fill="none" id="User-to-Guest" style="stroke:#181818;stroke-width:1;"/><polygon fill="none" points="97.47,122.28,83.2164,134.8033,93.5811,140.8508,97.47,122.28" style="stroke:#181818;stroke-width:1;"/></g><!--link Guest to SignIn--><g class="link" data-entity-1="Guest" data-entity-2="SignIn" data-source-line="19" data-uid="lnk12" id="link_Guest_SignIn"><path d="M139.41,91.67 C169.65,97.24 221.4192,106.7635 256.9392,113.3035" fill="none" id="Guest-to-SignIn" style="stroke:#181818;stroke-width:1;"/><polygon fill="#181818" points="262.84,114.39,254.7131,108.8264,257.9227,113.4846,253.2645,116.6942,262.84,114.39" style="stroke:#181818;stroke-width:1;"/></g><!--link Guest to SignUp--><g class="link" data-entity-1="Guest" data-entity-2="SignUp" data-source-line="20" data-uid="lnk13" id="link_Guest_SignUp"><path d="M139.41,84.33 C168.67,78.94 217.709,69.9157 253.419,63.3457" fill="none" id="Guest-to-SignUp" style="stroke:#181818;stroke-width:1;"/><polygon fill="#181818" points="259.32,62.26,249.7448,59.9545,254.4025,63.1647,251.1923,67.8225,259.32,62.26" style="stroke:#181818;stroke-width:1;"/></g><!--link User to send_message--><g class="link" data-entity-1="User" data-entity-2="send_message" data-source-line="22" data-uid="lnk14" id="link_User_send_message"><path d="M38.29,244.26 C53.32,238.78 76.96,230.56 97.91,225 C144.39,212.66 192.1022,203.2778 231.4022,196.3078" fill="none" id="User-to-send_message" style="stroke:#181818;stroke-width:1;"/><polygon fill="#181818" points="237.31,195.26,227.7498,192.8931,232.3868,196.1331,229.1468,200.7702,237.31,195.26" style="stroke:#181818;stroke-width:1;"/></g><!--link User to search_users--><g class="link" data-entity-1="User" data-entity-2="search_users" data-source-line="23" data-uid="lnk15" id="link_User_search_users"><path d="M38.27,250.11 C74.46,250.38 160.9902,251.0262 224.0502,251.4862" fill="none" id="User-to-search_users" style="stroke:#181818;stroke-width:1;"/><polygon fill="#181818" points="230.05,251.53,221.0794,247.4645,225.0501,251.4935,221.0211,255.4642,230.05,251.53" style="stroke:#181818;stroke-width:1;"/></g><!--link User to reactions--><g class="link" data-entity-1="User" data-entity-2="reactions" data-source-line="24" data-uid="lnk16" id="link_User_reactions"><path d="M38.27,253.79 C78.15,263.68 180.5962,289.0667 242.4962,304.4067" fill="none" id="User-to-reactions" style="stroke:#181818;stroke-width:1;"/><polygon fill="#181818" points="248.32,305.85,240.5464,299.8026,243.4668,304.6473,238.6221,307.5677,248.32,305.85" style="stroke:#181818;stroke-width:1;"/></g><!--link User to private_chats--><g class="link" data-entity-1="User" data-entity-2="private_chats" data-source-line="25" data-uid="lnk17" id="link_User_private_chats"><path d="M38.12,261.95 C64.6,282.34 121.54,324.16 175.03,350 C193.14,358.75 207.987,364.4564 226.837,370.5064" fill="none" id="User-to-private_chats" style="stroke:#181818;stroke-width:1;"/><polygon fill="#181818" points="232.55,372.34,225.203,365.781,227.7892,370.812,222.7582,373.3982,232.55,372.34" style="stroke:#181818;stroke-width:1;"/></g><!--SRC=[NP2n3i8W48PtdkB2tbVeuc0Sd4pdve8d9IfjkAiEwhiBMDlIXS3tVxdSpuqk0j93SBOJEBj0HbplbK8ZVO3zI2pJlM4AIgKJgkfTJvbI0vehMe8ZCQEtCNufW97981Fe4_apt5DcIGCoS0Jj14eHW-dIE_0a9j1cK8e2WJ0l-ZFdrrhRHIe4faDXU3fPZnw2UyImpM4nsrb_y7gBca6hJ-oQEyVwzM9kK3B_drINNLTqLMocIuaPbMj-0G00]--></g></svg>