<svg xmlns="http://www.w3.org/2000/svg" xmlns:xlink="http://www.w3.org/1999/xlink" contentStyleType="text/css" data-diagram-type="CLASS" height="636px" preserveAspectRatio="none" style="width:1726px;height:636px;background:#FFFFFF;" version="1.1" viewBox="0 0 1726 636" width="1726px" zoomAndPan="magnify"><defs/><g><!--class Server--><g class="entity" data-entity="Server" data-source-line="2" data-uid="ent0002" id="entity_Server"><rect fill="#F1F1F1" height="64.2969" rx="2.5" ry="2.5" style="stroke:#181818;stroke-width:0.5;" width="103.6699" x="1293.28" y="7"/><ellipse cx="1319.8719" cy="23" fill="#ADD1B2" rx="11" ry="11" style="stroke:#181818;stroke-width:1;"/><path d="M1322.8406,28.6406 Q1322.2625,28.9375 1321.6219,29.0781 Q1320.9813,29.2344 1320.2781,29.2344 Q1317.7781,29.2344 1316.45,27.5938 Q1315.1375,25.9375 1315.1375,22.8125 Q1315.1375,19.6875 1316.45,18.0313 Q1317.7781,16.375 1320.2781,16.375 Q1320.9813,16.375 1321.6219,16.5313 Q1322.2781,16.6875 1322.8406,16.9844 L1322.8406,19.7031 Q1322.2156,19.125 1321.6219,18.8594 Q1321.0281,18.5781 1320.4031,18.5781 Q1319.0594,18.5781 1318.3719,19.6563 Q1317.6844,20.7188 1317.6844,22.8125 Q1317.6844,24.9063 1318.3719,25.9844 Q1319.0594,27.0469 1320.4031,27.0469 Q1321.0281,27.0469 1321.6219,26.7813 Q1322.2156,26.5 1322.8406,25.9219 L1322.8406,28.6406 Z " fill="#000000"/><text fill="#000000" font-family="sans-serif" font-size="14" lengthAdjust="spacing" textLength="45.9102" x="1336.4479" y="27.8467">Server</text><line style="stroke:#181818;stroke-width:0.5;" x1="1294.28" x2="1395.9499" y1="39" y2="39"/><line style="stroke:#181818;stroke-width:0.5;" x1="1294.28" x2="1395.9499" y1="47" y2="47"/><ellipse cx="1304.28" cy="60.6484" fill="#84BE84" rx="3" ry="3" style="stroke:#038048;stroke-width:1;"/><text fill="#000000" font-family="sans-serif" font-size="14" lengthAdjust="spacing" textLength="77.6699" x="1313.28" y="63.9951">run() : void</text></g><!--class Controller--><g class="entity" data-entity="Controller" data-source-line="6" data-uid="ent0003" id="entity_Controller"><rect fill="#F1F1F1" height="145.7813" rx="2.5" ry="2.5" style="stroke:#181818;stroke-width:0.5;" width="457.4297" x="1116.4" y="131.3"/><ellipse cx="1306.2784" cy="147.3" fill="#ADD1B2" rx="11" ry="11" style="stroke:#181818;stroke-width:1;"/><path d="M1309.2472,152.9406 Q1308.669,153.2375 1308.0284,153.3781 Q1307.3878,153.5344 1306.6847,153.5344 Q1304.1847,153.5344 1302.8565,151.8937 Q1301.544,150.2375 1301.544,147.1125 Q1301.544,143.9875 1302.8565,142.3312 Q1304.1847,140.675 1306.6847,140.675 Q1307.3878,140.675 1308.0284,140.8312 Q1308.6847,140.9875 1309.2472,141.2844 L1309.2472,144.0031 Q1308.6222,143.425 1308.0284,143.1594 Q1307.4347,142.8781 1306.8097,142.8781 Q1305.4659,142.8781 1304.7784,143.9562 Q1304.0909,145.0187 1304.0909,147.1125 Q1304.0909,149.2062 1304.7784,150.2844 Q1305.4659,151.3469 1306.8097,151.3469 Q1307.4347,151.3469 1308.0284,151.0812 Q1308.6222,150.8 1309.2472,150.2219 L1309.2472,152.9406 Z " fill="#000000"/><text fill="#000000" font-family="sans-serif" font-size="14" lengthAdjust="spacing" textLength="69.1729" x="1326.7784" y="152.1467">Controller</text><line style="stroke:#181818;stroke-width:0.5;" x1="1117.4" x2="1572.8297" y1="163.3" y2="163.3"/><line style="stroke:#181818;stroke-width:0.5;" x1="1117.4" x2="1572.8297" y1="171.3" y2="171.3"/><ellipse cx="1127.4" cy="184.9484" fill="#84BE84" rx="3" ry="3" style="stroke:#038048;stroke-width:1;"/><text fill="#000000" font-family="sans-serif" font-size="14" lengthAdjust="spacing" textLength="343.4854" x="1136.4" y="188.2951">updateMessage(req, message_id_str) : Response</text><ellipse cx="1127.4" cy="201.2453" fill="#84BE84" rx="3" ry="3" style="stroke:#038048;stroke-width:1;"/><text fill="#000000" font-family="sans-serif" font-size="14" lengthAdjust="spacing" textLength="338.2627" x="1136.4" y="204.592">deleteMessage(req, message_id_str) : Response</text><ellipse cx="1127.4" cy="217.5422" fill="#84BE84" rx="3" ry="3" style="stroke:#038048;stroke-width:1;"/><text fill="#000000" font-family="sans-serif" font-size="14" lengthAdjust="spacing" textLength="315.8955" x="1136.4" y="220.8889">getMessageById(message_id_str) : Response</text><ellipse cx="1127.4" cy="233.8391" fill="#84BE84" rx="3" ry="3" style="stroke:#038048;stroke-width:1;"/><text fill="#000000" font-family="sans-serif" font-size="14" lengthAdjust="spacing" textLength="431.4297" x="1136.4" y="237.1857">getMessagesFromChat(request_pack, chat_id_str) : Response</text><ellipse cx="1127.4" cy="250.1359" fill="#84BE84" rx="3" ry="3" style="stroke:#038048;stroke-width:1;"/><text fill="#000000" font-family="sans-serif" font-size="14" lengthAdjust="spacing" textLength="382.3066" x="1136.4" y="253.4826">getReaction(request_pack, reaction_id_str) : Response</text><ellipse cx="1127.4" cy="266.4328" fill="#84BE84" rx="3" ry="3" style="stroke:#038048;stroke-width:1;"/><text fill="#000000" font-family="sans-serif" font-size="14" lengthAdjust="spacing" textLength="131.5645" x="1136.4" y="269.7795">setup() : Response</text></g><!--class IMessageManager--><g class="entity" data-entity="IMessageManager" data-source-line="15" data-uid="ent0004" id="entity_IMessageManager"><rect fill="#F1F1F1" height="292.4531" rx="2.5" ry="2.5" style="stroke:#181818;stroke-width:0.5;" width="774.3779" x="358.93" y="337.08"/><ellipse cx="678.4417" cy="353.08" fill="#B4A7E5" rx="11" ry="11" style="stroke:#181818;stroke-width:1;"/><path d="M674.3636,348.8456 L674.3636,346.6894 L681.7542,346.6894 L681.7542,348.8456 L679.2855,348.8456 L679.2855,356.9238 L681.7542,356.9238 L681.7542,359.08 L674.3636,359.08 L674.3636,356.9238 L676.8323,356.9238 L676.8323,348.8456 L674.3636,348.8456 Z " fill="#000000"/><text fill="#000000" font-family="sans-serif" font-size="14" font-style="italic" lengthAdjust="spacing" textLength="126.8545" x="698.9417" y="357.9267">IMessageManager</text><line style="stroke:#181818;stroke-width:0.5;" x1="359.93" x2="1132.3079" y1="369.08" y2="369.08"/><line style="stroke:#181818;stroke-width:0.5;" x1="359.93" x2="1132.3079" y1="377.08" y2="377.08"/><ellipse cx="369.93" cy="390.7284" fill="#84BE84" rx="3" ry="3" style="stroke:#038048;stroke-width:1;"/><text fill="#000000" font-family="sans-serif" font-size="14" lengthAdjust="spacing" textLength="212.3242" x="378.93" y="394.0751">saveMessage(message) : boo;</text><ellipse cx="369.93" cy="407.0253" fill="#84BE84" rx="3" ry="3" style="stroke:#038048;stroke-width:1;"/><text fill="#000000" font-family="sans-serif" font-size="14" lengthAdjust="spacing" textLength="252.0137" x="378.93" y="410.372">getMessage(long long message_id);</text><ellipse cx="369.93" cy="423.3222" fill="#84BE84" rx="3" ry="3" style="stroke:#038048;stroke-width:1;"/><text fill="#000000" font-family="sans-serif" font-size="14" lengthAdjust="spacing" textLength="451.8555" x="378.93" y="426.6689">getMessageStatus(long long message_id, long long receiver_id);</text><ellipse cx="369.93" cy="439.6191" fill="#84BE84" rx="3" ry="3" style="stroke:#038048;stroke-width:1;"/><text fill="#000000" font-family="sans-serif" font-size="14" lengthAdjust="spacing" textLength="316.873" x="378.93" y="442.9657">getChatMessages(const GetMessagePack &amp;);</text><ellipse cx="369.93" cy="455.9159" fill="#84BE84" rx="3" ry="3" style="stroke:#038048;stroke-width:1;"/><text fill="#000000" font-family="sans-serif" font-size="14" lengthAdjust="spacing" textLength="318.7393" x="378.93" y="459.2626">saveMessageStatus(MessageStatus &amp;status);</text><ellipse cx="369.93" cy="472.2128" fill="#84BE84" rx="3" ry="3" style="stroke:#038048;stroke-width:1;"/><text fill="#000000" font-family="sans-serif" font-size="14" lengthAdjust="spacing" textLength="311.4795" x="378.93" y="475.5595">getUndeliveredMessages(long long user_id);</text><ellipse cx="369.93" cy="488.5097" fill="#84BE84" rx="3" ry="3" style="stroke:#038048;stroke-width:1;"/><text fill="#000000" font-family="sans-serif" font-size="14" lengthAdjust="spacing" textLength="595.4033" x="378.93" y="491.8564">getMessagesStatus(const std::vector&lt;Message&gt; &amp;messages, long long receiver_id);</text><ellipse cx="369.93" cy="504.8066" fill="#84BE84" rx="3" ry="3" style="stroke:#038048;stroke-width:1;"/><text fill="#000000" font-family="sans-serif" font-size="14" lengthAdjust="spacing" textLength="308.3418" x="378.93" y="508.1532">updateMessage(const Message &amp;message);</text><ellipse cx="369.93" cy="521.1034" fill="#84BE84" rx="3" ry="3" style="stroke:#038048;stroke-width:1;"/><text fill="#000000" font-family="sans-serif" font-size="14" lengthAdjust="spacing" textLength="303.1191" x="378.93" y="524.4501">deleteMessage(const Message &amp;message);</text><ellipse cx="369.93" cy="537.4003" fill="#84BE84" rx="3" ry="3" style="stroke:#038048;stroke-width:1;"/><text fill="#000000" font-family="sans-serif" font-size="14" lengthAdjust="spacing" textLength="365.8389" x="378.93" y="540.747">getReadedMessageStatuses(long long message_id);</text><ellipse cx="369.93" cy="553.6972" fill="#84BE84" rx="3" ry="3" style="stroke:#038048;stroke-width:1;"/><text fill="#000000" font-family="sans-serif" font-size="14" lengthAdjust="spacing" textLength="347.8398" x="378.93" y="557.0439">saveMessageReaction(const Reaction &amp;reaction);</text><ellipse cx="369.93" cy="569.9941" fill="#84BE84" rx="3" ry="3" style="stroke:#038048;stroke-width:1;"/><text fill="#000000" font-family="sans-serif" font-size="14" lengthAdjust="spacing" textLength="359.1738" x="378.93" y="573.3407">deleteMessageReaction(const Reaction &amp;reaction);</text><ellipse cx="369.93" cy="586.2909" fill="#84BE84" rx="3" ry="3" style="stroke:#038048;stroke-width:1;"/><text fill="#000000" font-family="sans-serif" font-size="14" lengthAdjust="spacing" textLength="540.3535" x="378.93" y="589.6376">saveMessageReactionInfo(const std::vector&lt;ReactionInfo&gt; &amp;reaction_infos);</text><ellipse cx="369.93" cy="602.5878" fill="#84BE84" rx="3" ry="3" style="stroke:#038048;stroke-width:1;"/><text fill="#000000" font-family="sans-serif" font-size="14" lengthAdjust="spacing" textLength="748.3779" x="378.93" y="605.9345">getReactions(long long message_id,                                                                            long long receiver_id);</text><ellipse cx="369.93" cy="618.8847" fill="#84BE84" rx="3" ry="3" style="stroke:#038048;stroke-width:1;"/><text fill="#000000" font-family="sans-serif" font-size="14" lengthAdjust="spacing" textLength="343.0479" x="378.93" y="622.2314">getReactionInfo(long long message_reaction_id);</text></g><!--class IRabitMQClient--><g class="entity" data-entity="IRabitMQClient" data-source-line="34" data-uid="ent0005" id="entity_IRabitMQClient"><rect fill="#F1F1F1" height="80.5938" rx="2.5" ry="2.5" style="stroke:#181818;stroke-width:0.5;" width="353.2158" x="1168.51" y="443.01"/><ellipse cx="1288.7029" cy="459.01" fill="#B4A7E5" rx="11" ry="11" style="stroke:#181818;stroke-width:1;"/><path d="M1284.6247,454.7756 L1284.6247,452.6194 L1292.0154,452.6194 L1292.0154,454.7756 L1289.5466,454.7756 L1289.5466,462.8538 L1292.0154,462.8538 L1292.0154,465.01 L1284.6247,465.01 L1284.6247,462.8538 L1287.0935,462.8538 L1287.0935,454.7756 L1284.6247,454.7756 Z " fill="#000000"/><text fill="#000000" font-family="sans-serif" font-size="14" font-style="italic" lengthAdjust="spacing" textLength="104.3301" x="1309.2029" y="463.8567">IRabitMQClient</text><line style="stroke:#181818;stroke-width:0.5;" x1="1169.51" x2="1520.7258" y1="475.01" y2="475.01"/><line style="stroke:#181818;stroke-width:0.5;" x1="1169.51" x2="1520.7258" y1="483.01" y2="483.01"/><ellipse cx="1179.51" cy="496.6584" fill="#84BE84" rx="3" ry="3" style="stroke:#038048;stroke-width:1;"/><text fill="#000000" font-family="sans-serif" font-size="14" lengthAdjust="spacing" textLength="186.0127" x="1188.51" y="500.0051">publish(publich_req) : void</text><ellipse cx="1179.51" cy="512.9553" fill="#84BE84" rx="3" ry="3" style="stroke:#038048;stroke-width:1;"/><text fill="#000000" font-family="sans-serif" font-size="14" lengthAdjust="spacing" textLength="327.2158" x="1188.51" y="516.302">subscribe(subscribe_req, EventCallback) : void</text></g><!--class RabbitMQClient--><g class="entity" data-entity="RabbitMQClient" data-source-line="39" data-uid="ent0006" id="entity_RabbitMQClient"><rect fill="#F1F1F1" height="48" rx="2.5" ry="2.5" style="stroke:#181818;stroke-width:0.5;" width="141.0879" x="940.58" y="180.19"/><ellipse cx="955.58" cy="196.19" fill="#ADD1B2" rx="11" ry="11" style="stroke:#181818;stroke-width:1;"/><path d="M958.5488,201.8306 Q957.9706,202.1275 957.33,202.2681 Q956.6894,202.4244 955.9863,202.4244 Q953.4863,202.4244 952.1581,200.7838 Q950.8456,199.1275 950.8456,196.0025 Q950.8456,192.8775 952.1581,191.2213 Q953.4863,189.565 955.9863,189.565 Q956.6894,189.565 957.33,189.7213 Q957.9863,189.8775 958.5488,190.1744 L958.5488,192.8931 Q957.9238,192.315 957.33,192.0494 Q956.7363,191.7681 956.1113,191.7681 Q954.7675,191.7681 954.08,192.8463 Q953.3925,193.9088 953.3925,196.0025 Q953.3925,198.0963 954.08,199.1744 Q954.7675,200.2369 956.1113,200.2369 Q956.7363,200.2369 957.33,199.9713 Q957.9238,199.69 958.5488,199.1119 L958.5488,201.8306 Z " fill="#000000"/><text fill="#000000" font-family="sans-serif" font-size="14" lengthAdjust="spacing" textLength="109.0879" x="969.58" y="201.0367">RabbitMQClient</text><line style="stroke:#181818;stroke-width:0.5;" x1="941.58" x2="1080.6679" y1="212.19" y2="212.19"/><line style="stroke:#181818;stroke-width:0.5;" x1="941.58" x2="1080.6679" y1="220.19" y2="220.19"/></g><!--class IThreadPool--><g class="entity" data-entity="IThreadPool" data-source-line="43" data-uid="ent0007" id="entity_IThreadPool"><rect fill="#F1F1F1" height="48" rx="2.5" ry="2.5" style="stroke:#181818;stroke-width:0.5;" width="114.8516" x="1581.69" y="459.3"/><ellipse cx="1596.69" cy="475.3" fill="#B4A7E5" rx="11" ry="11" style="stroke:#181818;stroke-width:1;"/><path d="M1592.6119,471.0656 L1592.6119,468.9094 L1600.0025,468.9094 L1600.0025,471.0656 L1597.5338,471.0656 L1597.5338,479.1437 L1600.0025,479.1437 L1600.0025,481.3 L1592.6119,481.3 L1592.6119,479.1437 L1595.0806,479.1437 L1595.0806,471.0656 L1592.6119,471.0656 Z " fill="#000000"/><text fill="#000000" font-family="sans-serif" font-size="14" font-style="italic" lengthAdjust="spacing" textLength="82.8516" x="1610.69" y="480.1467">IThreadPool</text><line style="stroke:#181818;stroke-width:0.5;" x1="1582.69" x2="1695.5416" y1="491.3" y2="491.3"/><line style="stroke:#181818;stroke-width:0.5;" x1="1582.69" x2="1695.5416" y1="499.3" y2="499.3"/></g><!--class ThreadPool--><g class="entity" data-entity="ThreadPool" data-source-line="46" data-uid="ent0008" id="entity_ThreadPool"><rect fill="#F1F1F1" height="48" rx="2.5" ry="2.5" style="stroke:#181818;stroke-width:0.5;" width="110.7227" x="1608.76" y="180.19"/><ellipse cx="1623.76" cy="196.19" fill="#ADD1B2" rx="11" ry="11" style="stroke:#181818;stroke-width:1;"/><path d="M1626.7288,201.8306 Q1626.1506,202.1275 1625.51,202.2681 Q1624.8694,202.4244 1624.1663,202.4244 Q1621.6663,202.4244 1620.3381,200.7838 Q1619.0256,199.1275 1619.0256,196.0025 Q1619.0256,192.8775 1620.3381,191.2213 Q1621.6663,189.565 1624.1663,189.565 Q1624.8694,189.565 1625.51,189.7213 Q1626.1663,189.8775 1626.7288,190.1744 L1626.7288,192.8931 Q1626.1038,192.315 1625.51,192.0494 Q1624.9163,191.7681 1624.2913,191.7681 Q1622.9475,191.7681 1622.26,192.8463 Q1621.5725,193.9088 1621.5725,196.0025 Q1621.5725,198.0963 1622.26,199.1744 Q1622.9475,200.2369 1624.2913,200.2369 Q1624.9163,200.2369 1625.51,199.9713 Q1626.1038,199.69 1626.7288,199.1119 L1626.7288,201.8306 Z " fill="#000000"/><text fill="#000000" font-family="sans-serif" font-size="14" lengthAdjust="spacing" textLength="78.7227" x="1637.76" y="201.0367">ThreadPool</text><line style="stroke:#181818;stroke-width:0.5;" x1="1609.76" x2="1718.4827" y1="212.19" y2="212.19"/><line style="stroke:#181818;stroke-width:0.5;" x1="1609.76" x2="1718.4827" y1="220.19" y2="220.19"/></g><!--class IIdGenerator--><g class="entity" data-entity="IIdGenerator" data-source-line="49" data-uid="ent0009" id="entity_IIdGenerator"><rect fill="#F1F1F1" height="48" rx="2.5" ry="2.5" style="stroke:#181818;stroke-width:0.5;" width="120.2383" x="7" y="459.3"/><ellipse cx="22" cy="475.3" fill="#B4A7E5" rx="11" ry="11" style="stroke:#181818;stroke-width:1;"/><path d="M17.9219,471.0656 L17.9219,468.9094 L25.3125,468.9094 L25.3125,471.0656 L22.8438,471.0656 L22.8438,479.1437 L25.3125,479.1437 L25.3125,481.3 L17.9219,481.3 L17.9219,479.1437 L20.3906,479.1437 L20.3906,471.0656 L17.9219,471.0656 Z " fill="#000000"/><text fill="#000000" font-family="sans-serif" font-size="14" font-style="italic" lengthAdjust="spacing" textLength="88.2383" x="36" y="480.1467">IIdGenerator</text><line style="stroke:#181818;stroke-width:0.5;" x1="8" x2="126.2383" y1="491.3" y2="491.3"/><line style="stroke:#181818;stroke-width:0.5;" x1="8" x2="126.2383" y1="499.3" y2="499.3"/></g><!--class MessageManager--><g class="entity" data-entity="MessageManager" data-source-line="61" data-uid="ent0015" id="entity_MessageManager"><rect fill="#F1F1F1" height="48" rx="2.5" ry="2.5" style="stroke:#181818;stroke-width:0.5;" width="154.7256" x="165.76" y="180.19"/><ellipse cx="180.76" cy="196.19" fill="#ADD1B2" rx="11" ry="11" style="stroke:#181818;stroke-width:1;"/><path d="M183.7288,201.8306 Q183.1506,202.1275 182.51,202.2681 Q181.8694,202.4244 181.1663,202.4244 Q178.6663,202.4244 177.3381,200.7838 Q176.0256,199.1275 176.0256,196.0025 Q176.0256,192.8775 177.3381,191.2213 Q178.6663,189.565 181.1663,189.565 Q181.8694,189.565 182.51,189.7213 Q183.1663,189.8775 183.7288,190.1744 L183.7288,192.8931 Q183.1038,192.315 182.51,192.0494 Q181.9163,191.7681 181.2913,191.7681 Q179.9475,191.7681 179.26,192.8463 Q178.5725,193.9088 178.5725,196.0025 Q178.5725,198.0963 179.26,199.1744 Q179.9475,200.2369 181.2913,200.2369 Q181.9163,200.2369 182.51,199.9713 Q183.1038,199.69 183.7288,199.1119 L183.7288,201.8306 Z " fill="#000000"/><text fill="#000000" font-family="sans-serif" font-size="14" lengthAdjust="spacing" textLength="122.7256" x="194.76" y="201.0367">MessageManager</text><line style="stroke:#181818;stroke-width:0.5;" x1="166.76" x2="319.4856" y1="212.19" y2="212.19"/><line style="stroke:#181818;stroke-width:0.5;" x1="166.76" x2="319.4856" y1="220.19" y2="220.19"/></g><!--class GenericRepository--><g class="entity" data-entity="GenericRepository" data-source-line="62" data-uid="ent0017" id="entity_GenericRepository"><rect fill="#F1F1F1" height="48" rx="2.5" ry="2.5" style="stroke:#181818;stroke-width:0.5;" width="161.3633" x="162.44" y="459.3"/><ellipse cx="177.44" cy="475.3" fill="#ADD1B2" rx="11" ry="11" style="stroke:#181818;stroke-width:1;"/><path d="M180.4088,480.9406 Q179.8306,481.2375 179.19,481.3781 Q178.5494,481.5344 177.8463,481.5344 Q175.3463,481.5344 174.0181,479.8937 Q172.7056,478.2375 172.7056,475.1125 Q172.7056,471.9875 174.0181,470.3312 Q175.3463,468.675 177.8463,468.675 Q178.5494,468.675 179.19,468.8312 Q179.8463,468.9875 180.4088,469.2844 L180.4088,472.0031 Q179.7838,471.425 179.19,471.1594 Q178.5963,470.8781 177.9713,470.8781 Q176.6275,470.8781 175.94,471.9562 Q175.2525,473.0187 175.2525,475.1125 Q175.2525,477.2062 175.94,478.2844 Q176.6275,479.3469 177.9713,479.3469 Q178.5963,479.3469 179.19,479.0812 Q179.7838,478.8 180.4088,478.2219 L180.4088,480.9406 Z " fill="#000000"/><text fill="#000000" font-family="sans-serif" font-size="14" lengthAdjust="spacing" textLength="129.3633" x="191.44" y="480.1467">GenericRepository</text><line style="stroke:#181818;stroke-width:0.5;" x1="163.44" x2="322.8033" y1="491.3" y2="491.3"/><line style="stroke:#181818;stroke-width:0.5;" x1="163.44" x2="322.8033" y1="499.3" y2="499.3"/></g><!--class GeneratorId--><g class="entity" data-entity="GeneratorId" data-source-line="65" data-uid="ent0020" id="entity_GeneratorId"><rect fill="#F1F1F1" height="48" rx="2.5" ry="2.5" style="stroke:#181818;stroke-width:0.5;" width="116.1094" x="9.06" y="180.19"/><ellipse cx="24.06" cy="196.19" fill="#ADD1B2" rx="11" ry="11" style="stroke:#181818;stroke-width:1;"/><path d="M27.0288,201.8306 Q26.4506,202.1275 25.81,202.2681 Q25.1694,202.4244 24.4663,202.4244 Q21.9663,202.4244 20.6381,200.7838 Q19.3256,199.1275 19.3256,196.0025 Q19.3256,192.8775 20.6381,191.2213 Q21.9663,189.565 24.4663,189.565 Q25.1694,189.565 25.81,189.7213 Q26.4663,189.8775 27.0288,190.1744 L27.0288,192.8931 Q26.4038,192.315 25.81,192.0494 Q25.2163,191.7681 24.5913,191.7681 Q23.2475,191.7681 22.56,192.8463 Q21.8725,193.9088 21.8725,196.0025 Q21.8725,198.0963 22.56,199.1744 Q23.2475,200.2369 24.5913,200.2369 Q25.2163,200.2369 25.81,199.9713 Q26.4038,199.69 27.0288,199.1119 L27.0288,201.8306 Z " fill="#000000"/><text fill="#000000" font-family="sans-serif" font-size="14" lengthAdjust="spacing" textLength="84.1094" x="38.06" y="201.0367">GeneratorId</text><line style="stroke:#181818;stroke-width:0.5;" x1="10.06" x2="124.1694" y1="212.19" y2="212.19"/><line style="stroke:#181818;stroke-width:0.5;" x1="10.06" x2="124.1694" y1="220.19" y2="220.19"/></g><!--link RabbitMQClient to IRabitMQClient--><g class="link" data-entity-1="RabbitMQClient" data-entity-2="IRabitMQClient" data-source-line="53" data-uid="lnk10" id="link_RabbitMQClient_IRabitMQClient"><path codeLine="53" d="M1039.31,228.57 C1096.48,276.01 1212.757,372.4868 1283.437,431.1268" fill="none" id="RabbitMQClient-to-IRabitMQClient" style="stroke:#181818;stroke-width:1;stroke-dasharray:7,7;"/><polygon fill="none" points="1297.29,442.62,1287.2681,426.5091,1279.6059,435.7445,1297.29,442.62" style="stroke:#181818;stroke-width:1;"/></g><!--link Server to Controller--><g class="link" data-entity-1="Server" data-entity-2="Controller" data-source-line="55" data-uid="lnk11" id="link_Server_Controller"><path codeLine="55" d="M1345.12,83.58 C1345.12,100.52 1345.12,104.16 1345.12,124.98" fill="none" id="Server-Controller" style="stroke:#181818;stroke-width:1;"/><polygon fill="none" points="1345.12,71.58,1341.12,77.58,1345.12,83.58,1349.12,77.58,1345.12,71.58" style="stroke:#181818;stroke-width:1;"/><polygon fill="#181818" points="1345.12,130.98,1349.12,121.98,1345.12,125.98,1341.12,121.98,1345.12,130.98" style="stroke:#181818;stroke-width:1;"/></g><!--link Controller to IRabitMQClient--><g class="link" data-entity-1="Controller" data-entity-2="IRabitMQClient" data-source-line="57" data-uid="lnk12" id="link_Controller_IRabitMQClient"><path codeLine="57" d="M1345.12,289.27 C1345.12,342.03 1345.12,393.65 1345.12,436.67" fill="none" id="Controller-IRabitMQClient" style="stroke:#181818;stroke-width:1;"/><polygon fill="none" points="1345.12,277.27,1341.12,283.27,1345.12,289.27,1349.12,283.27,1345.12,277.27" style="stroke:#181818;stroke-width:1;"/><polygon fill="#181818" points="1345.12,442.67,1349.12,433.67,1345.12,437.67,1341.12,433.67,1345.12,442.67" style="stroke:#181818;stroke-width:1;"/></g><!--link Controller to IThreadPool--><g class="link" data-entity-1="Controller" data-entity-2="IThreadPool" data-source-line="58" data-uid="lnk13" id="link_Controller_IThreadPool"><path codeLine="58" d="M1476.2475,284.3505 C1501.6575,302.2105 1517.46,315.54 1539.12,337.08 C1577,374.74 1606.7758,423.2908 1623.7658,453.7308" fill="none" id="Controller-IThreadPool" style="stroke:#181818;stroke-width:1;"/><polygon fill="none" points="1466.43,277.45,1469.0386,284.1727,1476.2475,284.3505,1473.6389,277.6277,1466.43,277.45" style="stroke:#181818;stroke-width:1;"/><polygon fill="#181818" points="1626.69,458.97,1625.7964,449.1618,1624.2531,454.604,1618.8109,453.0607,1626.69,458.97" style="stroke:#181818;stroke-width:1;"/></g><!--link Controller to IMessageManager--><g class="link" data-entity-1="Controller" data-entity-2="IMessageManager" data-source-line="59" data-uid="lnk14" id="link_Controller_IMessageManager"><path codeLine="59" d="M1178.019,282.4885 C1138.419,300.8085 1110.7757,313.6012 1066.3457,334.1512" fill="none" id="Controller-IMessageManager" style="stroke:#181818;stroke-width:1;"/><polygon fill="none" points="1188.91,277.45,1181.785,276.3389,1178.019,282.4885,1185.144,283.5996,1188.91,277.45" style="stroke:#181818;stroke-width:1;"/><polygon fill="#181818" points="1060.9,336.67,1070.7478,336.5223,1065.4381,334.571,1067.3894,329.2614,1060.9,336.67" style="stroke:#181818;stroke-width:1;"/></g><!--link MessageManager to IMessageManager--><g class="link" data-entity-1="MessageManager" data-entity-2="IMessageManager" data-source-line="61" data-uid="lnk16" id="link_MessageManager_IMessageManager"><path codeLine="61" d="M285.57,228.57 C330.51,253.33 389.6348,285.9033 466.0948,328.0333" fill="none" id="MessageManager-to-IMessageManager" style="stroke:#181818;stroke-width:1;stroke-dasharray:7,7;"/><polygon fill="none" points="481.86,336.72,468.9904,322.7782,463.1992,333.2883,481.86,336.72" style="stroke:#181818;stroke-width:1;"/></g><!--link MessageManager to GenericRepository--><g class="link" data-entity-1="MessageManager" data-entity-2="GenericRepository" data-source-line="62" data-uid="lnk18" id="link_MessageManager_GenericRepository"><path codeLine="62" d="M243.12,240.34 C243.12,292.5 243.12,400.74 243.12,453.02" fill="none" id="MessageManager-GenericRepository" style="stroke:#181818;stroke-width:1;"/><polygon fill="none" points="243.12,228.34,239.12,234.34,243.12,240.34,247.12,234.34,243.12,228.34" style="stroke:#181818;stroke-width:1;"/><polygon fill="#181818" points="243.12,459.02,247.12,450.02,243.12,454.02,239.12,450.02,243.12,459.02" style="stroke:#181818;stroke-width:1;"/></g><!--link MessageManager to IIdGenerator--><g class="link" data-entity-1="MessageManager" data-entity-2="IIdGenerator" data-source-line="63" data-uid="lnk19" id="link_MessageManager_IIdGenerator"><path codeLine="63" d="M216.8539,237.6486 C196.2839,263.4186 170.36,297.35 145.12,337.08 C118.8,378.51 95.3834,424.2137 81.0434,453.4337" fill="none" id="MessageManager-IIdGenerator" style="stroke:#181818;stroke-width:1;"/><polygon fill="none" points="224.34,228.27,217.4707,230.4639,216.8539,237.6486,223.7231,235.4547,224.34,228.27" style="stroke:#181818;stroke-width:1;"/><polygon fill="#181818" points="78.4,458.82,85.956,452.5028,80.6028,454.3314,78.7742,448.9783,78.4,458.82" style="stroke:#181818;stroke-width:1;"/></g><!--link GeneratorId to IIdGenerator--><g class="link" data-entity-1="GeneratorId" data-entity-2="IIdGenerator" data-source-line="65" data-uid="lnk21" id="link_GeneratorId_IIdGenerator"><path codeLine="65" d="M67.12,228.34 C67.12,280.5 67.12,388.74 67.12,441.02" fill="none" id="GeneratorId-to-IIdGenerator" style="stroke:#181818;stroke-width:1;stroke-dasharray:7,7;"/><polygon fill="none" points="67.12,459.02,73.12,441.02,61.12,441.02,67.12,459.02" style="stroke:#181818;stroke-width:1;"/></g><!--link ThreadPool to IThreadPool--><g class="link" data-entity-1="ThreadPool" data-entity-2="IThreadPool" data-source-line="67" data-uid="lnk22" id="link_ThreadPool_IThreadPool"><path codeLine="67" d="M1662.03,228.34 C1657.32,280.5 1647.5585,388.8129 1642.8385,441.0929" fill="none" id="ThreadPool-to-IThreadPool" style="stroke:#181818;stroke-width:1;stroke-dasharray:7,7;"/><polygon fill="none" points="1641.22,459.02,1648.8142,441.6324,1636.8628,440.5534,1641.22,459.02" style="stroke:#181818;stroke-width:1;"/></g><!--SRC=[hLJ1Rjim3BthAtGAN2pj1sH33WlQ8eS0NRgT0rbY4s6gv8foW6BRlq-M5LbMtAm3weDjYO-FV1H5hXWYVGHx14j_4Ke_KTlgweekwD58GVuGmWDaPRIpHga4Qnl176m0aUsXil0ofy_zOYV53ftjEBQ0ZT48mKE0Wl_ps8EByA-lQr6z6urtrZol3inrKLf0jsiO_pcdt6zTyDu2uquQNNZPkFsM9u9hcsgqxSicjGFxn3ZGTSngmxH_d-g7x9Xg4OLr5BKndmirbJ9wJyDhgC1LYNfqpBKuYPtJOTS21-aFUqJHbUfKkefx1OxU9-87NmGwY-0iwnXmjA8p3D-1-eVsnzu5194Y3DcqM6HomaJoFXTqOh4u0dV6Vec09Pr5VNXPtRXDUxwuIXGHEkxFYz2-MKJIrASBUEceijAbHkk3d9PqTcgrgOpUwpGHPwsVp4GjS_DouDb9lyQHqh3_LdDzuFEFFXtfEKyckwZUnz_1_19kMItTvjjAIT0kti6chPN4GnM-_E09NjBa2wLiQ-HMrb2blrsOMxT7Jx9YIjN-SfmFInzh7AmO2DyFFbNnO8pojkHLxcOEQt4F6YppfnRPYX0tDx-NXKP2ubWtrzVBR7uJaitoO2lypin3OkUsyMmZf9XrVLu5gC04eg1FyYqq1gMN-Jg9oWj1IFfTYnXePCxgsLip7OJy1G00]--></g></svg>