<svg xmlns="http://www.w3.org/2000/svg" xmlns:xlink="http://www.w3.org/1999/xlink" contentStyleType="text/css" data-diagram-type="CLASS" height="500px" preserveAspectRatio="none" style="width:2340px;height:500px;background:#FFFFFF;" version="1.1" viewBox="0 0 2340 500" width="2340px" zoomAndPan="magnify"><defs/><g><!--class GatewayServer--><g class="entity" data-entity="GatewayServer" data-source-line="2" data-uid="ent0002" id="entity_GatewayServer"><rect fill="#F1F1F1" height="80.5938" rx="2.5" ry="2.5" style="stroke:#181818;stroke-width:0.5;" width="169.0283" x="800.23" y="7"/><ellipse cx="828.403" cy="23" fill="#ADD1B2" rx="11" ry="11" style="stroke:#181818;stroke-width:1;"/><path d="M831.3718,28.6406 Q830.7937,28.9375 830.153,29.0781 Q829.5124,29.2344 828.8093,29.2344 Q826.3093,29.2344 824.9812,27.5938 Q823.6687,25.9375 823.6687,22.8125 Q823.6687,19.6875 824.9812,18.0313 Q826.3093,16.375 828.8093,16.375 Q829.5124,16.375 830.153,16.5313 Q830.8093,16.6875 831.3718,16.9844 L831.3718,19.7031 Q830.7468,19.125 830.153,18.8594 Q829.5593,18.5781 828.9343,18.5781 Q827.5905,18.5781 826.903,19.6563 Q826.2155,20.7188 826.2155,22.8125 Q826.2155,24.9063 826.903,25.9844 Q827.5905,27.0469 828.9343,27.0469 Q829.5593,27.0469 830.153,26.7813 Q830.7468,26.5 831.3718,25.9219 L831.3718,28.6406 Z " fill="#000000"/><text fill="#000000" font-family="sans-serif" font-size="14" lengthAdjust="spacing" textLength="107.7549" x="845.3304" y="27.8467">GatewayServer</text><line style="stroke:#181818;stroke-width:0.5;" x1="801.23" x2="968.2583" y1="39" y2="39"/><line style="stroke:#181818;stroke-width:0.5;" x1="801.23" x2="968.2583" y1="47" y2="47"/><text fill="#000000" font-family="sans-serif" font-size="14" lengthAdjust="spacing" textLength="77.6699" x="806.23" y="63.9951">run() : void</text><text fill="#000000" font-family="sans-serif" font-size="14" lengthAdjust="spacing" textLength="157.0283" x="806.23" y="80.292">registerRoutes() : void</text></g><!--class ProxyClient--><g class="entity" data-entity="ProxyClient" data-source-line="7" data-uid="ent0003" id="entity_ProxyClient"><rect fill="#F1F1F1" height="64.2969" rx="2.5" ry="2.5" style="stroke:#181818;stroke-width:0.5;" width="460.5879" x="1221.45" y="255.6"/><ellipse cx="1407.5618" cy="271.6" fill="#ADD1B2" rx="11" ry="11" style="stroke:#181818;stroke-width:1;"/><path d="M1410.5306,277.2406 Q1409.9524,277.5375 1409.3118,277.6781 Q1408.6712,277.8344 1407.9681,277.8344 Q1405.4681,277.8344 1404.1399,276.1937 Q1402.8274,274.5375 1402.8274,271.4125 Q1402.8274,268.2875 1404.1399,266.6312 Q1405.4681,264.975 1407.9681,264.975 Q1408.6712,264.975 1409.3118,265.1312 Q1409.9681,265.2875 1410.5306,265.5844 L1410.5306,268.3031 Q1409.9056,267.725 1409.3118,267.4594 Q1408.7181,267.1781 1408.0931,267.1781 Q1406.7493,267.1781 1406.0618,268.2562 Q1405.3743,269.3187 1405.3743,271.4125 Q1405.3743,273.5062 1406.0618,274.5844 Q1406.7493,275.6469 1408.0931,275.6469 Q1408.7181,275.6469 1409.3118,275.3812 Q1409.9056,275.1 1410.5306,274.5219 L1410.5306,277.2406 Z " fill="#000000"/><text fill="#000000" font-family="sans-serif" font-size="14" lengthAdjust="spacing" textLength="79.8643" x="1428.0618" y="276.4467">ProxyClient</text><line style="stroke:#181818;stroke-width:0.5;" x1="1222.45" x2="1681.0379" y1="287.6" y2="287.6"/><line style="stroke:#181818;stroke-width:0.5;" x1="1222.45" x2="1681.0379" y1="295.6" y2="295.6"/><text fill="#000000" font-family="sans-serif" font-size="14" lengthAdjust="spacing" textLength="448.5879" x="1227.45" y="312.5951">NetworkResponse forward(const RequestDTO &amp;, const int port);</text></g><!--class IClient--><g class="entity" data-entity="IClient" data-source-line="11" data-uid="ent0004" id="entity_IClient"><rect fill="#F1F1F1" height="113.1875" rx="2.5" ry="2.5" style="stroke:#181818;stroke-width:0.5;" width="416.3252" x="1474.58" y="379.89"/><ellipse cx="1656.163" cy="395.89" fill="#B4A7E5" rx="11" ry="11" style="stroke:#181818;stroke-width:1;"/><path d="M1652.0849,391.6556 L1652.0849,389.4994 L1659.4755,389.4994 L1659.4755,391.6556 L1657.0068,391.6556 L1657.0068,399.7338 L1659.4755,399.7338 L1659.4755,401.89 L1652.0849,401.89 L1652.0849,399.7338 L1654.5536,399.7338 L1654.5536,391.6556 L1652.0849,391.6556 Z " fill="#000000"/><text fill="#000000" font-family="sans-serif" font-size="14" font-style="italic" lengthAdjust="spacing" textLength="44.6592" x="1676.663" y="400.7367">IClient</text><line style="stroke:#181818;stroke-width:0.5;" x1="1475.58" x2="1889.9052" y1="411.89" y2="411.89"/><line style="stroke:#181818;stroke-width:0.5;" x1="1475.58" x2="1889.9052" y1="419.89" y2="419.89"/><ellipse cx="1485.58" cy="433.5384" fill="#84BE84" rx="3" ry="3" style="stroke:#038048;stroke-width:1;"/><text fill="#000000" font-family="sans-serif" font-size="14" lengthAdjust="spacing" textLength="369.2773" x="1494.58" y="436.8851">NetworkResponse Get(const ForwardRequestDTO &amp;)</text><ellipse cx="1485.58" cy="449.8353" fill="#84BE84" rx="3" ry="3" style="stroke:#038048;stroke-width:1;"/><text fill="#000000" font-family="sans-serif" font-size="14" lengthAdjust="spacing" textLength="390.3252" x="1494.58" y="453.182">NetworkResponse Delete(const ForwardRequestDTO &amp;)</text><ellipse cx="1485.58" cy="466.1322" fill="#84BE84" rx="3" ry="3" style="stroke:#038048;stroke-width:1;"/><text fill="#000000" font-family="sans-serif" font-size="14" lengthAdjust="spacing" textLength="367.1309" x="1494.58" y="469.4789">NetworkResponse Put(const ForwardRequestDTO &amp;)</text><ellipse cx="1485.58" cy="482.4291" fill="#84BE84" rx="3" ry="3" style="stroke:#038048;stroke-width:1;"/><text fill="#000000" font-family="sans-serif" font-size="14" lengthAdjust="spacing" textLength="374.1172" x="1494.58" y="485.7757">NetworkResponse Post(const ForwardRequestDTO &amp;)</text></g><!--class IVerifier--><g class="entity" data-entity="IVerifier" data-source-line="18" data-uid="ent0005" id="entity_IVerifier"><rect fill="#F1F1F1" height="48" rx="2.5" ry="2.5" style="stroke:#181818;stroke-width:0.5;" width="87.1523" x="633.17" y="263.74"/><ellipse cx="648.17" cy="279.74" fill="#B4A7E5" rx="11" ry="11" style="stroke:#181818;stroke-width:1;"/><path d="M644.0919,275.5056 L644.0919,273.3494 L651.4825,273.3494 L651.4825,275.5056 L649.0138,275.5056 L649.0138,283.5837 L651.4825,283.5837 L651.4825,285.74 L644.0919,285.74 L644.0919,283.5837 L646.5606,283.5837 L646.5606,275.5056 L644.0919,275.5056 Z " fill="#000000"/><text fill="#000000" font-family="sans-serif" font-size="14" font-style="italic" lengthAdjust="spacing" textLength="55.1523" x="662.17" y="284.5867">IVerifier</text><line style="stroke:#181818;stroke-width:0.5;" x1="634.17" x2="719.3223" y1="295.74" y2="295.74"/><line style="stroke:#181818;stroke-width:0.5;" x1="634.17" x2="719.3223" y1="303.74" y2="303.74"/></g><!--class IRateLimiter--><g class="entity" data-entity="IRateLimiter" data-source-line="19" data-uid="ent0006" id="entity_IRateLimiter"><rect fill="#F1F1F1" height="64.2969" rx="2.5" ry="2.5" style="stroke:#181818;stroke-width:0.5;" width="129.5986" x="89.94" y="255.6"/><ellipse cx="110.3334" cy="271.6" fill="#B4A7E5" rx="11" ry="11" style="stroke:#181818;stroke-width:1;"/><path d="M106.2553,267.3656 L106.2553,265.2094 L113.6459,265.2094 L113.6459,267.3656 L111.1772,267.3656 L111.1772,275.4437 L113.6459,275.4437 L113.6459,277.6 L106.2553,277.6 L106.2553,275.4437 L108.724,275.4437 L108.724,267.3656 L106.2553,267.3656 Z " fill="#000000"/><text fill="#000000" font-family="sans-serif" font-size="14" font-style="italic" lengthAdjust="spacing" textLength="85.6133" x="125.5319" y="276.4467">IRateLimiter</text><line style="stroke:#181818;stroke-width:0.5;" x1="90.94" x2="218.5386" y1="287.6" y2="287.6"/><line style="stroke:#181818;stroke-width:0.5;" x1="90.94" x2="218.5386" y1="295.6" y2="295.6"/><ellipse cx="100.94" cy="309.2484" fill="#84BE84" rx="3" ry="3" style="stroke:#038048;stroke-width:1;"/><text fill="#000000" font-family="sans-serif" font-size="14" lengthAdjust="spacing" textLength="103.5986" x="109.94" y="312.5951">allow(ip) : bool</text></g><!--class IMetrics--><g class="entity" data-entity="IMetrics" data-source-line="22" data-uid="ent0007" id="entity_IMetrics"><rect fill="#F1F1F1" height="48" rx="2.5" ry="2.5" style="stroke:#181818;stroke-width:0.5;" width="86.9473" x="2122.27" y="263.74"/><ellipse cx="2137.27" cy="279.74" fill="#B4A7E5" rx="11" ry="11" style="stroke:#181818;stroke-width:1;"/><path d="M2133.1919,275.5056 L2133.1919,273.3494 L2140.5825,273.3494 L2140.5825,275.5056 L2138.1138,275.5056 L2138.1138,283.5837 L2140.5825,283.5837 L2140.5825,285.74 L2133.1919,285.74 L2133.1919,283.5837 L2135.6606,283.5837 L2135.6606,275.5056 L2133.1919,275.5056 Z " fill="#000000"/><text fill="#000000" font-family="sans-serif" font-size="14" font-style="italic" lengthAdjust="spacing" textLength="54.9473" x="2151.27" y="284.5867">IMetrics</text><line style="stroke:#181818;stroke-width:0.5;" x1="2123.27" x2="2208.2173" y1="295.74" y2="295.74"/><line style="stroke:#181818;stroke-width:0.5;" x1="2123.27" x2="2208.2173" y1="303.74" y2="303.74"/></g><!--class IThreadPool--><g class="entity" data-entity="IThreadPool" data-source-line="24" data-uid="ent0008" id="entity_IThreadPool"><rect fill="#F1F1F1" height="64.2969" rx="2.5" ry="2.5" style="stroke:#181818;stroke-width:0.5;" width="171.3594" x="1015.06" y="255.6"/><ellipse cx="1055.4885" cy="271.6" fill="#B4A7E5" rx="11" ry="11" style="stroke:#181818;stroke-width:1;"/><path d="M1051.4104,267.3656 L1051.4104,265.2094 L1058.801,265.2094 L1058.801,267.3656 L1056.3323,267.3656 L1056.3323,275.4437 L1058.801,275.4437 L1058.801,277.6 L1051.4104,277.6 L1051.4104,275.4437 L1053.8791,275.4437 L1053.8791,267.3656 L1051.4104,267.3656 Z " fill="#000000"/><text fill="#000000" font-family="sans-serif" font-size="14" font-style="italic" lengthAdjust="spacing" textLength="82.8516" x="1075.1393" y="276.4467">IThreadPool</text><line style="stroke:#181818;stroke-width:0.5;" x1="1016.06" x2="1185.4194" y1="287.6" y2="287.6"/><line style="stroke:#181818;stroke-width:0.5;" x1="1016.06" x2="1185.4194" y1="295.6" y2="295.6"/><text fill="#000000" font-family="sans-serif" font-size="14" lengthAdjust="spacing" textLength="159.3594" x="1021.06" y="312.5951">enqueu(lambda) : void</text></g><!--class ISubscribeEvent--><g class="entity" data-entity="ISubscribeEvent" data-source-line="28" data-uid="ent0009" id="entity_ISubscribeEvent"><rect fill="#F1F1F1" height="64.2969" rx="2.5" ry="2.5" style="stroke:#181818;stroke-width:0.5;" width="162.7188" x="1926.38" y="404.34"/><ellipse cx="1949.3451" cy="420.34" fill="#B4A7E5" rx="11" ry="11" style="stroke:#181818;stroke-width:1;"/><path d="M1945.267,416.1056 L1945.267,413.9494 L1952.6576,413.9494 L1952.6576,416.1056 L1950.1888,416.1056 L1950.1888,424.1838 L1952.6576,424.1838 L1952.6576,426.34 L1945.267,426.34 L1945.267,424.1838 L1947.7357,424.1838 L1947.7357,416.1056 L1945.267,416.1056 Z " fill="#000000"/><text fill="#000000" font-family="sans-serif" font-size="14" font-style="italic" lengthAdjust="spacing" textLength="113.0186" x="1965.1151" y="425.1867">ISubscribeEvent</text><line style="stroke:#181818;stroke-width:0.5;" x1="1927.38" x2="2088.0988" y1="436.34" y2="436.34"/><line style="stroke:#181818;stroke-width:0.5;" x1="1927.38" x2="2088.0988" y1="444.34" y2="444.34"/><ellipse cx="1937.38" cy="457.9884" fill="#84BE84" rx="3" ry="3" style="stroke:#038048;stroke-width:1;"/><text fill="#000000" font-family="sans-serif" font-size="14" lengthAdjust="spacing" textLength="136.7188" x="1946.38" y="461.3351">subcrive(req) : void</text></g><!--class IPublishEvent--><g class="entity" data-entity="IPublishEvent" data-source-line="32" data-uid="ent0010" id="entity_IPublishEvent"><rect fill="#F1F1F1" height="64.2969" rx="2.5" ry="2.5" style="stroke:#181818;stroke-width:0.5;" width="154.0166" x="2123.73" y="404.34"/><ellipse cx="2151.1648" cy="420.34" fill="#B4A7E5" rx="11" ry="11" style="stroke:#181818;stroke-width:1;"/><path d="M2147.0866,416.1056 L2147.0866,413.9494 L2154.4773,413.9494 L2154.4773,416.1056 L2152.0085,416.1056 L2152.0085,424.1838 L2154.4773,424.1838 L2154.4773,426.34 L2147.0866,426.34 L2147.0866,424.1838 L2149.5554,424.1838 L2149.5554,416.1056 L2147.0866,416.1056 Z " fill="#000000"/><text fill="#000000" font-family="sans-serif" font-size="14" font-style="italic" lengthAdjust="spacing" textLength="94.3838" x="2167.928" y="425.1867">IPublishEvent</text><line style="stroke:#181818;stroke-width:0.5;" x1="2124.73" x2="2276.7466" y1="436.34" y2="436.34"/><line style="stroke:#181818;stroke-width:0.5;" x1="2124.73" x2="2276.7466" y1="444.34" y2="444.34"/><ellipse cx="2134.73" cy="457.9884" fill="#84BE84" rx="3" ry="3" style="stroke:#038048;stroke-width:1;"/><text fill="#000000" font-family="sans-serif" font-size="14" lengthAdjust="spacing" textLength="128.0166" x="2143.73" y="461.3351">publish(req) : void</text></g><!--class ICacheService--><g class="entity" data-entity="ICacheService" data-source-line="36" data-uid="ent0011" id="entity_ICacheService"><rect fill="#F1F1F1" height="48" rx="2.5" ry="2.5" style="stroke:#181818;stroke-width:0.5;" width="131.4082" x="849.04" y="263.74"/><ellipse cx="864.04" cy="279.74" fill="#B4A7E5" rx="11" ry="11" style="stroke:#181818;stroke-width:1;"/><path d="M859.9619,275.5056 L859.9619,273.3494 L867.3525,273.3494 L867.3525,275.5056 L864.8838,275.5056 L864.8838,283.5837 L867.3525,283.5837 L867.3525,285.74 L859.9619,285.74 L859.9619,283.5837 L862.4306,283.5837 L862.4306,275.5056 L859.9619,275.5056 Z " fill="#000000"/><text fill="#000000" font-family="sans-serif" font-size="14" font-style="italic" lengthAdjust="spacing" textLength="99.4082" x="878.04" y="284.5867">ICacheService</text><line style="stroke:#181818;stroke-width:0.5;" x1="850.04" x2="979.4482" y1="295.74" y2="295.74"/><line style="stroke:#181818;stroke-width:0.5;" x1="850.04" x2="979.4482" y1="303.74" y2="303.74"/></g><!--class RabbitMQClient--><g class="entity" data-entity="RabbitMQClient" data-source-line="38" data-uid="ent0012" id="entity_RabbitMQClient"><rect fill="#F1F1F1" height="48" rx="2.5" ry="2.5" style="stroke:#181818;stroke-width:0.5;" width="141.0879" x="1814.2" y="147.6"/><ellipse cx="1829.2" cy="163.6" fill="#ADD1B2" rx="11" ry="11" style="stroke:#181818;stroke-width:1;"/><path d="M1832.1688,169.2406 Q1831.5906,169.5375 1830.95,169.6781 Q1830.3094,169.8344 1829.6063,169.8344 Q1827.1063,169.8344 1825.7781,168.1937 Q1824.4656,166.5375 1824.4656,163.4125 Q1824.4656,160.2875 1825.7781,158.6312 Q1827.1063,156.975 1829.6063,156.975 Q1830.3094,156.975 1830.95,157.1312 Q1831.6063,157.2875 1832.1688,157.5844 L1832.1688,160.3031 Q1831.5438,159.725 1830.95,159.4594 Q1830.3563,159.1781 1829.7313,159.1781 Q1828.3875,159.1781 1827.7,160.2562 Q1827.0125,161.3187 1827.0125,163.4125 Q1827.0125,165.5062 1827.7,166.5844 Q1828.3875,167.6469 1829.7313,167.6469 Q1830.3563,167.6469 1830.95,167.3812 Q1831.5438,167.1 1832.1688,166.5219 L1832.1688,169.2406 Z " fill="#000000"/><text fill="#000000" font-family="sans-serif" font-size="14" lengthAdjust="spacing" textLength="109.0879" x="1843.2" y="168.4467">RabbitMQClient</text><line style="stroke:#181818;stroke-width:0.5;" x1="1815.2" x2="1954.2879" y1="179.6" y2="179.6"/><line style="stroke:#181818;stroke-width:0.5;" x1="1815.2" x2="1954.2879" y1="187.6" y2="187.6"/></g><!--class IEventBus--><g class="entity" data-entity="IEventBus" data-source-line="38" data-uid="ent0013" id="entity_IEventBus"><rect fill="#F1F1F1" height="48" rx="2.5" ry="2.5" style="stroke:#181818;stroke-width:0.5;" width="102.0068" x="1956.74" y="263.74"/><ellipse cx="1971.74" cy="279.74" fill="#ADD1B2" rx="11" ry="11" style="stroke:#181818;stroke-width:1;"/><path d="M1974.7088,285.3806 Q1974.1306,285.6775 1973.49,285.8181 Q1972.8494,285.9744 1972.1463,285.9744 Q1969.6463,285.9744 1968.3181,284.3337 Q1967.0056,282.6775 1967.0056,279.5525 Q1967.0056,276.4275 1968.3181,274.7712 Q1969.6463,273.115 1972.1463,273.115 Q1972.8494,273.115 1973.49,273.2712 Q1974.1463,273.4275 1974.7088,273.7244 L1974.7088,276.4431 Q1974.0838,275.865 1973.49,275.5994 Q1972.8963,275.3181 1972.2713,275.3181 Q1970.9275,275.3181 1970.24,276.3962 Q1969.5525,277.4587 1969.5525,279.5525 Q1969.5525,281.6462 1970.24,282.7244 Q1970.9275,283.7869 1972.2713,283.7869 Q1972.8963,283.7869 1973.49,283.5212 Q1974.0838,283.24 1974.7088,282.6619 L1974.7088,285.3806 Z " fill="#000000"/><text fill="#000000" font-family="sans-serif" font-size="14" lengthAdjust="spacing" textLength="70.0068" x="1985.74" y="284.5867">IEventBus</text><line style="stroke:#181818;stroke-width:0.5;" x1="1957.74" x2="2057.7468" y1="295.74" y2="295.74"/><line style="stroke:#181818;stroke-width:0.5;" x1="1957.74" x2="2057.7468" y1="303.74" y2="303.74"/></g><!--class ThreadPool--><g class="entity" data-entity="ThreadPool" data-source-line="42" data-uid="ent0017" id="entity_ThreadPool"><rect fill="#F1F1F1" height="48" rx="2.5" ry="2.5" style="stroke:#181818;stroke-width:0.5;" width="110.7227" x="1090.38" y="147.6"/><ellipse cx="1105.38" cy="163.6" fill="#ADD1B2" rx="11" ry="11" style="stroke:#181818;stroke-width:1;"/><path d="M1108.3488,169.2406 Q1107.7706,169.5375 1107.13,169.6781 Q1106.4894,169.8344 1105.7863,169.8344 Q1103.2863,169.8344 1101.9581,168.1937 Q1100.6456,166.5375 1100.6456,163.4125 Q1100.6456,160.2875 1101.9581,158.6312 Q1103.2863,156.975 1105.7863,156.975 Q1106.4894,156.975 1107.13,157.1312 Q1107.7863,157.2875 1108.3488,157.5844 L1108.3488,160.3031 Q1107.7238,159.725 1107.13,159.4594 Q1106.5363,159.1781 1105.9113,159.1781 Q1104.5675,159.1781 1103.88,160.2562 Q1103.1925,161.3187 1103.1925,163.4125 Q1103.1925,165.5062 1103.88,166.5844 Q1104.5675,167.6469 1105.9113,167.6469 Q1106.5363,167.6469 1107.13,167.3812 Q1107.7238,167.1 1108.3488,166.5219 L1108.3488,169.2406 Z " fill="#000000"/><text fill="#000000" font-family="sans-serif" font-size="14" lengthAdjust="spacing" textLength="78.7227" x="1119.38" y="168.4467">ThreadPool</text><line style="stroke:#181818;stroke-width:0.5;" x1="1091.38" x2="1200.1027" y1="179.6" y2="179.6"/><line style="stroke:#181818;stroke-width:0.5;" x1="1091.38" x2="1200.1027" y1="187.6" y2="187.6"/></g><!--class LoggingMiddleware--><g class="entity" data-entity="LoggingMiddleware" data-source-line="45" data-uid="ent0019" id="entity_LoggingMiddleware"><rect fill="#F1F1F1" height="48" rx="2.5" ry="2.5" style="stroke:#181818;stroke-width:0.5;" width="168.4316" x="370.53" y="147.6"/><ellipse cx="385.53" cy="163.6" fill="#ADD1B2" rx="11" ry="11" style="stroke:#181818;stroke-width:1;"/><path d="M388.4988,169.2406 Q387.9206,169.5375 387.28,169.6781 Q386.6394,169.8344 385.9363,169.8344 Q383.4363,169.8344 382.1081,168.1937 Q380.7956,166.5375 380.7956,163.4125 Q380.7956,160.2875 382.1081,158.6312 Q383.4363,156.975 385.9363,156.975 Q386.6394,156.975 387.28,157.1312 Q387.9363,157.2875 388.4988,157.5844 L388.4988,160.3031 Q387.8738,159.725 387.28,159.4594 Q386.6863,159.1781 386.0613,159.1781 Q384.7175,159.1781 384.03,160.2562 Q383.3425,161.3187 383.3425,163.4125 Q383.3425,165.5062 384.03,166.5844 Q384.7175,167.6469 386.0613,167.6469 Q386.6863,167.6469 387.28,167.3812 Q387.8738,167.1 388.4988,166.5219 L388.4988,169.2406 Z " fill="#000000"/><text fill="#000000" font-family="sans-serif" font-size="14" lengthAdjust="spacing" textLength="136.4316" x="399.53" y="168.4467">LoggingMiddleware</text><line style="stroke:#181818;stroke-width:0.5;" x1="371.53" x2="537.9616" y1="179.6" y2="179.6"/><line style="stroke:#181818;stroke-width:0.5;" x1="371.53" x2="537.9616" y1="187.6" y2="187.6"/></g><!--class RateLimitMiddleware--><g class="entity" data-entity="RateLimitMiddleware" data-source-line="46" data-uid="ent0021" id="entity_RateLimitMiddleware"><rect fill="#F1F1F1" height="48" rx="2.5" ry="2.5" style="stroke:#181818;stroke-width:0.5;" width="179.7588" x="155.86" y="147.6"/><ellipse cx="170.86" cy="163.6" fill="#ADD1B2" rx="11" ry="11" style="stroke:#181818;stroke-width:1;"/><path d="M173.8288,169.2406 Q173.2506,169.5375 172.61,169.6781 Q171.9694,169.8344 171.2663,169.8344 Q168.7663,169.8344 167.4381,168.1937 Q166.1256,166.5375 166.1256,163.4125 Q166.1256,160.2875 167.4381,158.6312 Q168.7663,156.975 171.2663,156.975 Q171.9694,156.975 172.61,157.1312 Q173.2663,157.2875 173.8288,157.5844 L173.8288,160.3031 Q173.2038,159.725 172.61,159.4594 Q172.0163,159.1781 171.3913,159.1781 Q170.0475,159.1781 169.36,160.2562 Q168.6725,161.3187 168.6725,163.4125 Q168.6725,165.5062 169.36,166.5844 Q170.0475,167.6469 171.3913,167.6469 Q172.0163,167.6469 172.61,167.3812 Q173.2038,167.1 173.8288,166.5219 L173.8288,169.2406 Z " fill="#000000"/><text fill="#000000" font-family="sans-serif" font-size="14" lengthAdjust="spacing" textLength="147.7588" x="184.86" y="168.4467">RateLimitMiddleware</text><line style="stroke:#181818;stroke-width:0.5;" x1="156.86" x2="334.6188" y1="179.6" y2="179.6"/><line style="stroke:#181818;stroke-width:0.5;" x1="156.86" x2="334.6188" y1="187.6" y2="187.6"/></g><!--class MetricsMiddleware--><g class="entity" data-entity="MetricsMiddleware" data-source-line="47" data-uid="ent0023" id="entity_MetricsMiddleware"><rect fill="#F1F1F1" height="48" rx="2.5" ry="2.5" style="stroke:#181818;stroke-width:0.5;" width="163.4619" x="1990.01" y="147.6"/><ellipse cx="2005.01" cy="163.6" fill="#ADD1B2" rx="11" ry="11" style="stroke:#181818;stroke-width:1;"/><path d="M2007.9788,169.2406 Q2007.4006,169.5375 2006.76,169.6781 Q2006.1194,169.8344 2005.4163,169.8344 Q2002.9163,169.8344 2001.5881,168.1937 Q2000.2756,166.5375 2000.2756,163.4125 Q2000.2756,160.2875 2001.5881,158.6312 Q2002.9163,156.975 2005.4163,156.975 Q2006.1194,156.975 2006.76,157.1312 Q2007.4163,157.2875 2007.9788,157.5844 L2007.9788,160.3031 Q2007.3538,159.725 2006.76,159.4594 Q2006.1663,159.1781 2005.5413,159.1781 Q2004.1975,159.1781 2003.51,160.2562 Q2002.8225,161.3187 2002.8225,163.4125 Q2002.8225,165.5062 2003.51,166.5844 Q2004.1975,167.6469 2005.5413,167.6469 Q2006.1663,167.6469 2006.76,167.3812 Q2007.3538,167.1 2007.9788,166.5219 L2007.9788,169.2406 Z " fill="#000000"/><text fill="#000000" font-family="sans-serif" font-size="14" lengthAdjust="spacing" textLength="131.4619" x="2019.01" y="168.4467">MetricsMiddleware</text><line style="stroke:#181818;stroke-width:0.5;" x1="1991.01" x2="2152.4719" y1="179.6" y2="179.6"/><line style="stroke:#181818;stroke-width:0.5;" x1="1991.01" x2="2152.4719" y1="187.6" y2="187.6"/></g><!--class AuthMiddleware--><g class="entity" data-entity="AuthMiddleware" data-source-line="48" data-uid="ent0025" id="entity_AuthMiddleware"><rect fill="#F1F1F1" height="48" rx="2.5" ry="2.5" style="stroke:#181818;stroke-width:0.5;" width="145.4561" x="719.01" y="147.6"/><ellipse cx="734.01" cy="163.6" fill="#ADD1B2" rx="11" ry="11" style="stroke:#181818;stroke-width:1;"/><path d="M736.9788,169.2406 Q736.4006,169.5375 735.76,169.6781 Q735.1194,169.8344 734.4163,169.8344 Q731.9163,169.8344 730.5881,168.1937 Q729.2756,166.5375 729.2756,163.4125 Q729.2756,160.2875 730.5881,158.6312 Q731.9163,156.975 734.4163,156.975 Q735.1194,156.975 735.76,157.1312 Q736.4163,157.2875 736.9788,157.5844 L736.9788,160.3031 Q736.3538,159.725 735.76,159.4594 Q735.1663,159.1781 734.5413,159.1781 Q733.1975,159.1781 732.51,160.2562 Q731.8225,161.3187 731.8225,163.4125 Q731.8225,165.5062 732.51,166.5844 Q733.1975,167.6469 734.5413,167.6469 Q735.1663,167.6469 735.76,167.3812 Q736.3538,167.1 736.9788,166.5219 L736.9788,169.2406 Z " fill="#000000"/><text fill="#000000" font-family="sans-serif" font-size="14" lengthAdjust="spacing" textLength="113.4561" x="748.01" y="168.4467">AuthMiddleware</text><line style="stroke:#181818;stroke-width:0.5;" x1="720.01" x2="863.4661" y1="179.6" y2="179.6"/><line style="stroke:#181818;stroke-width:0.5;" x1="720.01" x2="863.4661" y1="187.6" y2="187.6"/></g><!--class CacheMiddleware--><g class="entity" data-entity="CacheMiddleware" data-source-line="49" data-uid="ent0027" id="entity_CacheMiddleware"><rect fill="#F1F1F1" height="48" rx="2.5" ry="2.5" style="stroke:#181818;stroke-width:0.5;" width="156.1816" x="899.65" y="147.6"/><ellipse cx="914.65" cy="163.6" fill="#ADD1B2" rx="11" ry="11" style="stroke:#181818;stroke-width:1;"/><path d="M917.6188,169.2406 Q917.0406,169.5375 916.4,169.6781 Q915.7594,169.8344 915.0563,169.8344 Q912.5563,169.8344 911.2281,168.1937 Q909.9156,166.5375 909.9156,163.4125 Q909.9156,160.2875 911.2281,158.6312 Q912.5563,156.975 915.0563,156.975 Q915.7594,156.975 916.4,157.1312 Q917.0563,157.2875 917.6188,157.5844 L917.6188,160.3031 Q916.9938,159.725 916.4,159.4594 Q915.8063,159.1781 915.1813,159.1781 Q913.8375,159.1781 913.15,160.2562 Q912.4625,161.3187 912.4625,163.4125 Q912.4625,165.5062 913.15,166.5844 Q913.8375,167.6469 915.1813,167.6469 Q915.8063,167.6469 916.4,167.3812 Q916.9938,167.1 917.6188,166.5219 L917.6188,169.2406 Z " fill="#000000"/><text fill="#000000" font-family="sans-serif" font-size="14" lengthAdjust="spacing" textLength="124.1816" x="928.65" y="168.4467">CacheMiddleware</text><line style="stroke:#181818;stroke-width:0.5;" x1="900.65" x2="1054.8316" y1="179.6" y2="179.6"/><line style="stroke:#181818;stroke-width:0.5;" x1="900.65" x2="1054.8316" y1="187.6" y2="187.6"/></g><!--class GatewayController--><g class="entity" data-entity="GatewayController" data-source-line="50" data-uid="ent0029" id="entity_GatewayController"><rect fill="#F1F1F1" height="48" rx="2.5" ry="2.5" style="stroke:#181818;stroke-width:0.5;" width="163.0176" x="1325.23" y="147.6"/><ellipse cx="1340.23" cy="163.6" fill="#ADD1B2" rx="11" ry="11" style="stroke:#181818;stroke-width:1;"/><path d="M1343.1988,169.2406 Q1342.6206,169.5375 1341.98,169.6781 Q1341.3394,169.8344 1340.6363,169.8344 Q1338.1363,169.8344 1336.8081,168.1937 Q1335.4956,166.5375 1335.4956,163.4125 Q1335.4956,160.2875 1336.8081,158.6312 Q1338.1363,156.975 1340.6363,156.975 Q1341.3394,156.975 1341.98,157.1312 Q1342.6363,157.2875 1343.1988,157.5844 L1343.1988,160.3031 Q1342.5738,159.725 1341.98,159.4594 Q1341.3863,159.1781 1340.7613,159.1781 Q1339.4175,159.1781 1338.73,160.2562 Q1338.0425,161.3187 1338.0425,163.4125 Q1338.0425,165.5062 1338.73,166.5844 Q1339.4175,167.6469 1340.7613,167.6469 Q1341.3863,167.6469 1341.98,167.3812 Q1342.5738,167.1 1343.1988,166.5219 L1343.1988,169.2406 Z " fill="#000000"/><text fill="#000000" font-family="sans-serif" font-size="14" lengthAdjust="spacing" textLength="131.0176" x="1354.23" y="168.4467">GatewayController</text><line style="stroke:#181818;stroke-width:0.5;" x1="1326.23" x2="1487.2476" y1="179.6" y2="179.6"/><line style="stroke:#181818;stroke-width:0.5;" x1="1326.23" x2="1487.2476" y1="187.6" y2="187.6"/></g><!--class JWTVerifier--><g class="entity" data-entity="JWTVerifier" data-source-line="60" data-uid="ent0038" id="entity_JWTVerifier"><rect fill="#F1F1F1" height="48" rx="2.5" ry="2.5" style="stroke:#181818;stroke-width:0.5;" width="109.5469" x="573.97" y="147.6"/><ellipse cx="588.97" cy="163.6" fill="#ADD1B2" rx="11" ry="11" style="stroke:#181818;stroke-width:1;"/><path d="M591.9388,169.2406 Q591.3606,169.5375 590.72,169.6781 Q590.0794,169.8344 589.3763,169.8344 Q586.8763,169.8344 585.5481,168.1937 Q584.2356,166.5375 584.2356,163.4125 Q584.2356,160.2875 585.5481,158.6312 Q586.8763,156.975 589.3763,156.975 Q590.0794,156.975 590.72,157.1312 Q591.3763,157.2875 591.9388,157.5844 L591.9388,160.3031 Q591.3138,159.725 590.72,159.4594 Q590.1263,159.1781 589.5013,159.1781 Q588.1575,159.1781 587.47,160.2562 Q586.7825,161.3187 586.7825,163.4125 Q586.7825,165.5062 587.47,166.5844 Q588.1575,167.6469 589.5013,167.6469 Q590.1263,167.6469 590.72,167.3812 Q591.3138,167.1 591.9388,166.5219 L591.9388,169.2406 Z " fill="#000000"/><text fill="#000000" font-family="sans-serif" font-size="14" lengthAdjust="spacing" textLength="77.5469" x="602.97" y="168.4467">JWTVerifier</text><line style="stroke:#181818;stroke-width:0.5;" x1="574.97" x2="682.5169" y1="179.6" y2="179.6"/><line style="stroke:#181818;stroke-width:0.5;" x1="574.97" x2="682.5169" y1="187.6" y2="187.6"/></g><!--class GatewayMetrics--><g class="entity" data-entity="GatewayMetrics" data-source-line="67" data-uid="ent0043" id="entity_GatewayMetrics"><rect fill="#F1F1F1" height="48" rx="2.5" ry="2.5" style="stroke:#181818;stroke-width:0.5;" width="144.6631" x="2188.41" y="147.6"/><ellipse cx="2203.41" cy="163.6" fill="#ADD1B2" rx="11" ry="11" style="stroke:#181818;stroke-width:1;"/><path d="M2206.3788,169.2406 Q2205.8006,169.5375 2205.16,169.6781 Q2204.5194,169.8344 2203.8163,169.8344 Q2201.3163,169.8344 2199.9881,168.1937 Q2198.6756,166.5375 2198.6756,163.4125 Q2198.6756,160.2875 2199.9881,158.6312 Q2201.3163,156.975 2203.8163,156.975 Q2204.5194,156.975 2205.16,157.1312 Q2205.8163,157.2875 2206.3788,157.5844 L2206.3788,160.3031 Q2205.7538,159.725 2205.16,159.4594 Q2204.5663,159.1781 2203.9413,159.1781 Q2202.5975,159.1781 2201.91,160.2562 Q2201.2225,161.3187 2201.2225,163.4125 Q2201.2225,165.5062 2201.91,166.5844 Q2202.5975,167.6469 2203.9413,167.6469 Q2204.5663,167.6469 2205.16,167.3812 Q2205.7538,167.1 2206.3788,166.5219 L2206.3788,169.2406 Z " fill="#000000"/><text fill="#000000" font-family="sans-serif" font-size="14" lengthAdjust="spacing" textLength="112.6631" x="2217.41" y="168.4467">GatewayMetrics</text><line style="stroke:#181818;stroke-width:0.5;" x1="2189.41" x2="2332.0731" y1="179.6" y2="179.6"/><line style="stroke:#181818;stroke-width:0.5;" x1="2189.41" x2="2332.0731" y1="187.6" y2="187.6"/></g><!--class RateLimiter--><g class="entity" data-entity="RateLimiter" data-source-line="68" data-uid="ent0045" id="entity_RateLimiter"><rect fill="#F1F1F1" height="48" rx="2.5" ry="2.5" style="stroke:#181818;stroke-width:0.5;" width="113.4844" x="7" y="147.6"/><ellipse cx="22" cy="163.6" fill="#ADD1B2" rx="11" ry="11" style="stroke:#181818;stroke-width:1;"/><path d="M24.9688,169.2406 Q24.3906,169.5375 23.75,169.6781 Q23.1094,169.8344 22.4063,169.8344 Q19.9063,169.8344 18.5781,168.1937 Q17.2656,166.5375 17.2656,163.4125 Q17.2656,160.2875 18.5781,158.6312 Q19.9063,156.975 22.4063,156.975 Q23.1094,156.975 23.75,157.1312 Q24.4063,157.2875 24.9688,157.5844 L24.9688,160.3031 Q24.3438,159.725 23.75,159.4594 Q23.1563,159.1781 22.5313,159.1781 Q21.1875,159.1781 20.5,160.2562 Q19.8125,161.3187 19.8125,163.4125 Q19.8125,165.5062 20.5,166.5844 Q21.1875,167.6469 22.5313,167.6469 Q23.1563,167.6469 23.75,167.3812 Q24.3438,167.1 24.9688,166.5219 L24.9688,169.2406 Z " fill="#000000"/><text fill="#000000" font-family="sans-serif" font-size="14" lengthAdjust="spacing" textLength="81.4844" x="36" y="168.4467">RateLimiter</text><line style="stroke:#181818;stroke-width:0.5;" x1="8" x2="119.4844" y1="179.6" y2="179.6"/><line style="stroke:#181818;stroke-width:0.5;" x1="8" x2="119.4844" y1="187.6" y2="187.6"/></g><!--class RealHttpClient--><g class="entity" data-entity="RealHttpClient" data-source-line="69" data-uid="ent0047" id="entity_RealHttpClient"><rect fill="#F1F1F1" height="48" rx="2.5" ry="2.5" style="stroke:#181818;stroke-width:0.5;" width="133.7324" x="1787.88" y="263.74"/><ellipse cx="1802.88" cy="279.74" fill="#ADD1B2" rx="11" ry="11" style="stroke:#181818;stroke-width:1;"/><path d="M1805.8488,285.3806 Q1805.2706,285.6775 1804.63,285.8181 Q1803.9894,285.9744 1803.2863,285.9744 Q1800.7863,285.9744 1799.4581,284.3337 Q1798.1456,282.6775 1798.1456,279.5525 Q1798.1456,276.4275 1799.4581,274.7712 Q1800.7863,273.115 1803.2863,273.115 Q1803.9894,273.115 1804.63,273.2712 Q1805.2863,273.4275 1805.8488,273.7244 L1805.8488,276.4431 Q1805.2238,275.865 1804.63,275.5994 Q1804.0363,275.3181 1803.4113,275.3181 Q1802.0675,275.3181 1801.38,276.3962 Q1800.6925,277.4587 1800.6925,279.5525 Q1800.6925,281.6462 1801.38,282.7244 Q1802.0675,283.7869 1803.4113,283.7869 Q1804.0363,283.7869 1804.63,283.5212 Q1805.2238,283.24 1805.8488,282.6619 L1805.8488,285.3806 Z " fill="#000000"/><text fill="#000000" font-family="sans-serif" font-size="14" lengthAdjust="spacing" textLength="101.7324" x="1816.88" y="284.5867">RealHttpClient</text><line style="stroke:#181818;stroke-width:0.5;" x1="1788.88" x2="1920.6124" y1="295.74" y2="295.74"/><line style="stroke:#181818;stroke-width:0.5;" x1="1788.88" x2="1920.6124" y1="303.74" y2="303.74"/></g><!--link RabbitMQClient to IEventBus--><g class="link" data-entity-1="RabbitMQClient" data-entity-2="IEventBus" data-source-line="38" data-uid="lnk14" id="link_RabbitMQClient_IEventBus"><path codeLine="38" d="M1909.93,195.97 C1931.16,215.67 1948.1753,231.4667 1969.3953,251.1567" fill="none" id="RabbitMQClient-to-IEventBus" style="stroke:#181818;stroke-width:1;"/><polygon fill="none" points="1982.59,263.4,1973.4764,246.7584,1965.3142,255.5549,1982.59,263.4" style="stroke:#181818;stroke-width:1;"/></g><!--link IEventBus to ISubscribeEvent--><g class="link" data-entity-1="IEventBus" data-entity-2="ISubscribeEvent" data-source-line="40" data-uid="lnk15" id="link_IEventBus_ISubscribeEvent"><path codeLine="40" d="M2007.74,312 C2007.74,336.81 2007.74,358.26 2007.74,385.88" fill="none" id="IEventBus-to-ISubscribeEvent" style="stroke:#181818;stroke-width:1;"/><polygon fill="none" points="2007.74,403.88,2013.74,385.88,2001.74,385.88,2007.74,403.88" style="stroke:#181818;stroke-width:1;"/></g><!--link IEventBus to IPublishEvent--><g class="link" data-entity-1="IEventBus" data-entity-2="IPublishEvent" data-source-line="41" data-uid="lnk16" id="link_IEventBus_IPublishEvent"><path codeLine="41" d="M2038.32,312 C2070.95,336.81 2108.5223,365.3643 2144.8423,392.9843" fill="none" id="IEventBus-to-IPublishEvent" style="stroke:#181818;stroke-width:1;"/><polygon fill="none" points="2159.17,403.88,2148.4742,388.2084,2141.2104,397.7602,2159.17,403.88" style="stroke:#181818;stroke-width:1;"/></g><!--link ThreadPool to IThreadPool--><g class="link" data-entity-1="ThreadPool" data-entity-2="IThreadPool" data-source-line="42" data-uid="lnk18" id="link_ThreadPool_IThreadPool"><path codeLine="42" d="M1136.53,195.97 C1129.79,213.06 1127.1803,219.6838 1119.7903,238.4338" fill="none" id="ThreadPool-to-IThreadPool" style="stroke:#181818;stroke-width:1;"/><polygon fill="none" points="1113.19,255.18,1125.3723,240.6338,1114.2082,236.2337,1113.19,255.18" style="stroke:#181818;stroke-width:1;"/></g><!--link GatewayServer to LoggingMiddleware--><g class="link" data-entity-1="GatewayServer" data-entity-2="LoggingMiddleware" data-source-line="45" data-uid="lnk20" id="link_GatewayServer_LoggingMiddleware"><path codeLine="45" d="M799.79,72.46 C723.67,94.11 618.4811,124.0286 543.1011,145.4686" fill="none" id="GatewayServer-to-LoggingMiddleware" style="stroke:#181818;stroke-width:1;"/><polygon fill="#181818" points="537.33,147.11,547.081,148.4952,542.1393,145.7421,544.8924,140.8004,537.33,147.11" style="stroke:#181818;stroke-width:1;"/></g><!--link GatewayServer to RateLimitMiddleware--><g class="link" data-entity-1="GatewayServer" data-entity-2="RateLimitMiddleware" data-source-line="46" data-uid="lnk22" id="link_GatewayServer_RateLimitMiddleware"><path codeLine="46" d="M799.84,63.41 C694.72,82.29 510.26,115.97 352.74,147.6 C347.25,148.7 347.4754,148.6337 341.7754,149.8137" fill="none" id="GatewayServer-to-RateLimitMiddleware" style="stroke:#181818;stroke-width:1;"/><polygon fill="#181818" points="335.9,151.03,345.524,153.1225,340.7962,150.0164,343.9023,145.2886,335.9,151.03" style="stroke:#181818;stroke-width:1;"/></g><!--link GatewayServer to MetricsMiddleware--><g class="link" data-entity-1="GatewayServer" data-entity-2="MetricsMiddleware" data-source-line="47" data-uid="lnk24" id="link_GatewayServer_MetricsMiddleware"><path codeLine="47" d="M969.53,52.07 C1153.32,61.11 1601.73,87.86 1972.74,147.6 C1978.23,148.48 1977.9802,148.3453 1983.6402,149.4453" fill="none" id="GatewayServer-to-MetricsMiddleware" style="stroke:#181818;stroke-width:1;"/><polygon fill="#181818" points="1989.53,150.59,1981.4584,144.9465,1984.6218,149.6361,1979.9322,152.7995,1989.53,150.59" style="stroke:#181818;stroke-width:1;"/></g><!--link GatewayServer to AuthMiddleware--><g class="link" data-entity-1="GatewayServer" data-entity-2="AuthMiddleware" data-source-line="48" data-uid="lnk26" id="link_GatewayServer_AuthMiddleware"><path codeLine="48" d="M854.55,88 C839.7,107.53 825.9428,125.6248 813.2228,142.3448" fill="none" id="GatewayServer-to-AuthMiddleware" style="stroke:#181818;stroke-width:1;"/><polygon fill="#181818" points="809.59,147.12,818.2227,142.3791,812.6173,143.1407,811.8558,137.5353,809.59,147.12" style="stroke:#181818;stroke-width:1;"/></g><!--link GatewayServer to CacheMiddleware--><g class="link" data-entity-1="GatewayServer" data-entity-2="CacheMiddleware" data-source-line="49" data-uid="lnk28" id="link_GatewayServer_CacheMiddleware"><path codeLine="49" d="M914.94,88 C929.79,107.53 943.549,125.6234 956.259,142.3434" fill="none" id="GatewayServer-to-CacheMiddleware" style="stroke:#181818;stroke-width:1;"/><polygon fill="#181818" points="959.89,147.12,957.6279,137.5344,956.8642,143.1395,951.2591,142.3758,959.89,147.12" style="stroke:#181818;stroke-width:1;"/></g><!--link GatewayServer to GatewayController--><g class="link" data-entity-1="GatewayServer" data-entity-2="GatewayController" data-source-line="50" data-uid="lnk30" id="link_GatewayServer_GatewayController"><path codeLine="50" d="M969.48,68.15 C1067.65,91.15 1222.4182,127.4111 1319.2482,150.1011" fill="none" id="GatewayServer-to-GatewayController" style="stroke:#181818;stroke-width:1;"/><polygon fill="#181818" points="1325.09,151.47,1317.24,145.5222,1320.2219,150.3293,1315.4148,153.3112,1325.09,151.47" style="stroke:#181818;stroke-width:1;"/></g><!--link GatewayController to ICacheService--><g class="link" data-entity-1="GatewayController" data-entity-2="ICacheService" data-source-line="52" data-uid="lnk31" id="link_GatewayController_ICacheService"><path codeLine="52" d="M1325.12,185.23 C1241.9,199.03 1109.51,223.5 997.74,255.6 C989.9,257.85 987.4154,258.5242 979.4154,261.3142" fill="none" id="GatewayController-to-ICacheService" style="stroke:#181818;stroke-width:1;"/><polygon fill="#181818" points="973.75,263.29,983.5652,264.1032,978.4711,261.6435,980.9308,256.5494,973.75,263.29" style="stroke:#181818;stroke-width:1;"/></g><!--link GatewayController to IThreadPool--><g class="link" data-entity-1="GatewayController" data-entity-2="IThreadPool" data-source-line="53" data-uid="lnk32" id="link_GatewayController_IThreadPool"><path codeLine="53" d="M1344.08,195.97 C1298.27,213.06 1241.2414,234.3325 1190.9914,253.0825" fill="none" id="GatewayController-to-IThreadPool" style="stroke:#181818;stroke-width:1;"/><polygon fill="#181818" points="1185.37,255.18,1195.2005,255.7813,1190.0545,253.432,1192.4038,248.2861,1185.37,255.18" style="stroke:#181818;stroke-width:1;"/></g><!--link GatewayController to IEventBus--><g class="link" data-entity-1="GatewayController" data-entity-2="IEventBus" data-source-line="54" data-uid="lnk33" id="link_GatewayController_IEventBus"><path codeLine="54" d="M1488.45,178.48 C1594.2,187.64 1783.3,209.31 1938.74,255.6 C1945.8,257.7 1947.5184,258.0942 1954.5684,260.9842" fill="none" id="GatewayController-to-IEventBus" style="stroke:#181818;stroke-width:1;"/><polygon fill="#181818" points="1960.12,263.26,1953.3097,256.1452,1955.4936,261.3635,1950.2753,263.5474,1960.12,263.26" style="stroke:#181818;stroke-width:1;"/></g><!--link GatewayController to ProxyClient--><g class="link" data-entity-1="GatewayController" data-entity-2="ProxyClient" data-source-line="55" data-uid="lnk34" id="link_GatewayController_ProxyClient"><path codeLine="55" d="M1415.96,195.97 C1422.69,213.06 1429.7099,230.8479 1437.0999,249.5979" fill="none" id="GatewayController-to-ProxyClient" style="stroke:#181818;stroke-width:1;"/><polygon fill="#181818" points="1439.3,255.18,1439.7213,245.3402,1437.4666,250.5283,1432.2785,248.2736,1439.3,255.18" style="stroke:#181818;stroke-width:1;"/></g><!--link GatewayController to IClient--><g class="link" data-entity-1="GatewayController" data-entity-2="IClient" data-source-line="56" data-uid="lnk35" id="link_GatewayController_IClient"><path codeLine="56" d="M1488.69,184.62 C1566.16,197.87 1674.23,221.86 1699.74,255.6 C1726.23,290.63 1720.4808,335.4229 1708.1908,374.0129" fill="none" id="GatewayController-to-IClient" style="stroke:#181818;stroke-width:1;"/><polygon fill="#181818" points="1706.37,379.73,1712.9125,372.3682,1707.8873,374.9658,1705.2897,369.9406,1706.37,379.73" style="stroke:#181818;stroke-width:1;"/></g><!--link ProxyClient to IClient--><g class="link" data-entity-1="ProxyClient" data-entity-2="IClient" data-source-line="57" data-uid="lnk36" id="link_ProxyClient_IClient"><path codeLine="57" d="M1501.3,320.22 C1528.47,337.49 1557.9152,356.1932 1589.5152,376.2632" fill="none" id="ProxyClient-to-IClient" style="stroke:#181818;stroke-width:1;"/><polygon fill="#181818" points="1594.58,379.48,1589.1273,371.2783,1590.3593,376.7993,1584.8383,378.0313,1594.58,379.48" style="stroke:#181818;stroke-width:1;"/></g><!--link AuthMiddleware to IVerifier--><g class="link" data-entity-1="AuthMiddleware" data-entity-2="IVerifier" data-source-line="59" data-uid="lnk37" id="link_AuthMiddleware_IVerifier"><path codeLine="59" d="M768.19,195.97 C748.35,215.67 724.3587,239.4835 704.5187,259.1735" fill="none" id="AuthMiddleware-to-IVerifier" style="stroke:#181818;stroke-width:1;"/><polygon fill="#181818" points="700.26,263.4,709.4657,259.8994,703.8089,259.8779,703.8304,254.2211,700.26,263.4" style="stroke:#181818;stroke-width:1;"/></g><!--link JWTVerifier to IVerifier--><g class="link" data-entity-1="JWTVerifier" data-entity-2="IVerifier" data-source-line="60" data-uid="lnk39" id="link_JWTVerifier_IVerifier"><path codeLine="60" d="M638.57,195.97 C646.85,215.67 651.6725,227.1174 659.9525,246.8074" fill="none" id="JWTVerifier-to-IVerifier" style="stroke:#181818;stroke-width:1;"/><polygon fill="none" points="666.93,263.4,665.4834,244.4816,654.4216,249.1332,666.93,263.4" style="stroke:#181818;stroke-width:1;"/></g><!--link CacheMiddleware to ICacheService--><g class="link" data-entity-1="CacheMiddleware" data-entity-2="ICacheService" data-source-line="62" data-uid="lnk40" id="link_CacheMiddleware_ICacheService"><path codeLine="62" d="M964.84,195.97 C953.97,215.67 941.3878,238.4561 930.5278,258.1461" fill="none" id="CacheMiddleware-to-ICacheService" style="stroke:#181818;stroke-width:1;"/><polygon fill="#181818" points="927.63,263.4,935.4792,257.4511,930.0448,259.0218,928.4741,253.5874,927.63,263.4" style="stroke:#181818;stroke-width:1;"/></g><!--link MetricsMiddleware to IMetrics--><g class="link" data-entity-1="MetricsMiddleware" data-entity-2="IMetrics" data-source-line="63" data-uid="lnk41" id="link_MetricsMiddleware_IMetrics"><path codeLine="63" d="M2090.99,195.97 C2107.21,215.67 2126.4851,239.079 2142.7051,258.769" fill="none" id="MetricsMiddleware-to-IMetrics" style="stroke:#181818;stroke-width:1;"/><polygon fill="#181818" points="2146.52,263.4,2143.885,253.9102,2143.3409,259.5408,2137.7103,258.9967,2146.52,263.4" style="stroke:#181818;stroke-width:1;"/></g><!--link RateLimitMiddleware to IRateLimiter--><g class="link" data-entity-1="RateLimitMiddleware" data-entity-2="IRateLimiter" data-source-line="64" data-uid="lnk42" id="link_RateLimitMiddleware_IRateLimiter"><path codeLine="64" d="M227.11,195.97 C213.48,213.06 198.589,231.7375 183.649,250.4875" fill="none" id="RateLimitMiddleware-to-IRateLimiter" style="stroke:#181818;stroke-width:1;"/><polygon fill="#181818" points="179.91,255.18,188.6469,250.6339,183.0258,251.2696,182.3902,245.6485,179.91,255.18" style="stroke:#181818;stroke-width:1;"/></g><!--link GatewayMetrics to IMetrics--><g class="link" data-entity-1="GatewayMetrics" data-entity-2="IMetrics" data-source-line="67" data-uid="lnk44" id="link_GatewayMetrics_IMetrics"><path codeLine="67" d="M2241.29,195.97 C2224.89,215.67 2213.0757,229.8757 2196.6857,249.5657" fill="none" id="GatewayMetrics-to-IMetrics" style="stroke:#181818;stroke-width:1;"/><polygon fill="none" points="2185.17,263.4,2201.2972,253.4043,2192.0743,245.7271,2185.17,263.4" style="stroke:#181818;stroke-width:1;"/></g><!--link RateLimiter to IRateLimiter--><g class="link" data-entity-1="RateLimiter" data-entity-2="IRateLimiter" data-source-line="68" data-uid="lnk46" id="link_RateLimiter_IRateLimiter"><path codeLine="68" d="M82.38,195.97 C96,213.06 103.4084,222.3561 118.3584,241.1061" fill="none" id="RateLimiter-to-IRateLimiter" style="stroke:#181818;stroke-width:1;"/><polygon fill="none" points="129.58,255.18,123.0497,237.3655,113.6671,244.8466,129.58,255.18" style="stroke:#181818;stroke-width:1;"/></g><!--link RealHttpClient to IClient--><g class="link" data-entity-1="RealHttpClient" data-entity-2="IClient" data-source-line="69" data-uid="lnk48" id="link_RealHttpClient_IClient"><path codeLine="69" d="M1827.49,312 C1806.27,330.1 1789.6037,344.3174 1762.1637,367.7274" fill="none" id="RealHttpClient-to-IClient" style="stroke:#181818;stroke-width:1;"/><polygon fill="none" points="1748.47,379.41,1766.0579,372.292,1758.2695,363.1629,1748.47,379.41" style="stroke:#181818;stroke-width:1;"/></g><!--SRC=[bLHVJzim47_tfxWdb0hw1JO9YPMDCT6HXGgUdUJQMZDnE9_ReS5tnqrCwj0q4c_n_VxuV3yxXPRMmfLatChdEwGD4lmN0EIgP09VO6DKkLlYIbb6oenZj7laLOYYSKZ9_7kUQOKLU_rlvAsXlndQsbGMOMbeAwbC2hzYoF39eUNBnIsSd45RKrvN6-B9rvsdNo4jPO5mtNa2dC97tolauFcZtI6sdWnABb4ZusTLgVlqHgcnevh-CU-Hr58XnRNCftAZ7XM7J4v1QcssYQftyy-DqTuaui-HIHMsvxjO4yeozTp60YlVWakqVCnB6QSOIUvSRWjIENxVx2TlNUvh6qm8duxeKfThPTUngcvB8wAPBDQuktUgG24ocUUAvtz2wDFfopbSDuRVd3zNzncGVgS7SDoGY0RHelk24AB_0ARJSxWngvMgLdDLbjf3X0ESBg1HLeXbb7FXU3rAQEOqoWYLcQcOZDR-Aec3KaFip_m89vhE4KONop0U_H2Ezj6YyQyZhel-K5giUoU_7XRlto7G3X8VXZLmweDCMixx2ne8jYL4Jt9_Qu8gj77WqJKOYpEK-YTptRlfuU1l]--></g></svg>