<svg xmlns="http://www.w3.org/2000/svg" xmlns:xlink="http://www.w3.org/1999/xlink" contentStyleType="text/css" data-diagram-type="CLASS" height="500px" preserveAspectRatio="none" style="width:2711px;height:500px;background:#FFFFFF;" version="1.1" viewBox="0 0 2711 500" width="2711px" zoomAndPan="magnify"><defs/><g><!--class GatewayServer--><g class="entity" data-entity="GatewayServer" data-source-line="2" data-uid="ent0002" id="entity_GatewayServer"><rect fill="#F1F1F1" height="80.5938" rx="2.5" ry="2.5" style="stroke:#181818;stroke-width:0.5;" width="169.0283" x="1011.37" y="7"/><ellipse cx="1039.543" cy="23" fill="#ADD1B2" rx="11" ry="11" style="stroke:#181818;stroke-width:1;"/><path d="M1042.5118,28.6406 Q1041.9337,28.9375 1041.293,29.0781 Q1040.6524,29.2344 1039.9493,29.2344 Q1037.4493,29.2344 1036.1212,27.5938 Q1034.8087,25.9375 1034.8087,22.8125 Q1034.8087,19.6875 1036.1212,18.0313 Q1037.4493,16.375 1039.9493,16.375 Q1040.6524,16.375 1041.293,16.5313 Q1041.9493,16.6875 1042.5118,16.9844 L1042.5118,19.7031 Q1041.8868,19.125 1041.293,18.8594 Q1040.6993,18.5781 1040.0743,18.5781 Q1038.7305,18.5781 1038.043,19.6563 Q1037.3555,20.7188 1037.3555,22.8125 Q1037.3555,24.9063 1038.043,25.9844 Q1038.7305,27.0469 1040.0743,27.0469 Q1040.6993,27.0469 1041.293,26.7813 Q1041.8868,26.5 1042.5118,25.9219 L1042.5118,28.6406 Z " fill="#000000"/><text fill="#000000" font-family="sans-serif" font-size="14" lengthAdjust="spacing" textLength="107.7549" x="1056.4704" y="27.8467">GatewayServer</text><line style="stroke:#181818;stroke-width:0.5;" x1="1012.37" x2="1179.3983" y1="39" y2="39"/><line style="stroke:#181818;stroke-width:0.5;" x1="1012.37" x2="1179.3983" y1="47" y2="47"/><text fill="#000000" font-family="sans-serif" font-size="14" lengthAdjust="spacing" textLength="77.6699" x="1017.37" y="63.9951">run() : void</text><text fill="#000000" font-family="sans-serif" font-size="14" lengthAdjust="spacing" textLength="157.0283" x="1017.37" y="80.292">registerRoutes() : void</text></g><!--class ProxyClient--><g class="entity" data-entity="ProxyClient" data-source-line="7" data-uid="ent0003" id="entity_ProxyClient"><rect fill="#F1F1F1" height="64.2969" rx="2.5" ry="2.5" style="stroke:#181818;stroke-width:0.5;" width="460.5879" x="1609.59" y="255.6"/><ellipse cx="1795.7018" cy="271.6" fill="#ADD1B2" rx="11" ry="11" style="stroke:#181818;stroke-width:1;"/><path d="M1798.6706,277.2406 Q1798.0924,277.5375 1797.4518,277.6781 Q1796.8112,277.8344 1796.1081,277.8344 Q1793.6081,277.8344 1792.2799,276.1937 Q1790.9674,274.5375 1790.9674,271.4125 Q1790.9674,268.2875 1792.2799,266.6312 Q1793.6081,264.975 1796.1081,264.975 Q1796.8112,264.975 1797.4518,265.1312 Q1798.1081,265.2875 1798.6706,265.5844 L1798.6706,268.3031 Q1798.0456,267.725 1797.4518,267.4594 Q1796.8581,267.1781 1796.2331,267.1781 Q1794.8893,267.1781 1794.2018,268.2562 Q1793.5143,269.3187 1793.5143,271.4125 Q1793.5143,273.5062 1794.2018,274.5844 Q1794.8893,275.6469 1796.2331,275.6469 Q1796.8581,275.6469 1797.4518,275.3812 Q1798.0456,275.1 1798.6706,274.5219 L1798.6706,277.2406 Z " fill="#000000"/><text fill="#000000" font-family="sans-serif" font-size="14" lengthAdjust="spacing" textLength="79.8643" x="1816.2018" y="276.4467">ProxyClient</text><line style="stroke:#181818;stroke-width:0.5;" x1="1610.59" x2="2069.1779" y1="287.6" y2="287.6"/><line style="stroke:#181818;stroke-width:0.5;" x1="1610.59" x2="2069.1779" y1="295.6" y2="295.6"/><text fill="#000000" font-family="sans-serif" font-size="14" lengthAdjust="spacing" textLength="448.5879" x="1615.59" y="312.5951">NetworkResponse forward(const RequestDTO &amp;, const int port);</text></g><!--class IClient--><g class="entity" data-entity="IClient" data-source-line="11" data-uid="ent0004" id="entity_IClient"><rect fill="#F1F1F1" height="113.1875" rx="2.5" ry="2.5" style="stroke:#181818;stroke-width:0.5;" width="416.3252" x="1631.72" y="379.89"/><ellipse cx="1813.303" cy="395.89" fill="#B4A7E5" rx="11" ry="11" style="stroke:#181818;stroke-width:1;"/><path d="M1809.2249,391.6556 L1809.2249,389.4994 L1816.6155,389.4994 L1816.6155,391.6556 L1814.1468,391.6556 L1814.1468,399.7338 L1816.6155,399.7338 L1816.6155,401.89 L1809.2249,401.89 L1809.2249,399.7338 L1811.6936,399.7338 L1811.6936,391.6556 L1809.2249,391.6556 Z " fill="#000000"/><text fill="#000000" font-family="sans-serif" font-size="14" font-style="italic" lengthAdjust="spacing" textLength="44.6592" x="1833.803" y="400.7367">IClient</text><line style="stroke:#181818;stroke-width:0.5;" x1="1632.72" x2="2047.0452" y1="411.89" y2="411.89"/><line style="stroke:#181818;stroke-width:0.5;" x1="1632.72" x2="2047.0452" y1="419.89" y2="419.89"/><ellipse cx="1642.72" cy="433.5384" fill="#84BE84" rx="3" ry="3" style="stroke:#038048;stroke-width:1;"/><text fill="#000000" font-family="sans-serif" font-size="14" lengthAdjust="spacing" textLength="369.2773" x="1651.72" y="436.8851">NetworkResponse Get(const ForwardRequestDTO &amp;)</text><ellipse cx="1642.72" cy="449.8353" fill="#84BE84" rx="3" ry="3" style="stroke:#038048;stroke-width:1;"/><text fill="#000000" font-family="sans-serif" font-size="14" lengthAdjust="spacing" textLength="390.3252" x="1651.72" y="453.182">NetworkResponse Delete(const ForwardRequestDTO &amp;)</text><ellipse cx="1642.72" cy="466.1322" fill="#84BE84" rx="3" ry="3" style="stroke:#038048;stroke-width:1;"/><text fill="#000000" font-family="sans-serif" font-size="14" lengthAdjust="spacing" textLength="367.1309" x="1651.72" y="469.4789">NetworkResponse Put(const ForwardRequestDTO &amp;)</text><ellipse cx="1642.72" cy="482.4291" fill="#84BE84" rx="3" ry="3" style="stroke:#038048;stroke-width:1;"/><text fill="#000000" font-family="sans-serif" font-size="14" lengthAdjust="spacing" textLength="374.1172" x="1651.72" y="485.7757">NetworkResponse Post(const ForwardRequestDTO &amp;)</text></g><!--class IVerifier--><g class="entity" data-entity="IVerifier" data-source-line="18" data-uid="ent0005" id="entity_IVerifier"><rect fill="#F1F1F1" height="48" rx="2.5" ry="2.5" style="stroke:#181818;stroke-width:0.5;" width="87.1523" x="582.3" y="412.49"/><ellipse cx="597.3" cy="428.49" fill="#B4A7E5" rx="11" ry="11" style="stroke:#181818;stroke-width:1;"/><path d="M593.2219,424.2556 L593.2219,422.0994 L600.6125,422.0994 L600.6125,424.2556 L598.1438,424.2556 L598.1438,432.3337 L600.6125,432.3337 L600.6125,434.49 L593.2219,434.49 L593.2219,432.3337 L595.6906,432.3337 L595.6906,424.2556 L593.2219,424.2556 Z " fill="#000000"/><text fill="#000000" font-family="sans-serif" font-size="14" font-style="italic" lengthAdjust="spacing" textLength="55.1523" x="611.3" y="433.3367">IVerifier</text><line style="stroke:#181818;stroke-width:0.5;" x1="583.3" x2="668.4523" y1="444.49" y2="444.49"/><line style="stroke:#181818;stroke-width:0.5;" x1="583.3" x2="668.4523" y1="452.49" y2="452.49"/></g><!--class IRateLimiter--><g class="entity" data-entity="IRateLimiter" data-source-line="19" data-uid="ent0006" id="entity_IRateLimiter"><rect fill="#F1F1F1" height="64.2969" rx="2.5" ry="2.5" style="stroke:#181818;stroke-width:0.5;" width="129.5986" x="123.08" y="404.34"/><ellipse cx="143.4734" cy="420.34" fill="#B4A7E5" rx="11" ry="11" style="stroke:#181818;stroke-width:1;"/><path d="M139.3953,416.1056 L139.3953,413.9494 L146.7859,413.9494 L146.7859,416.1056 L144.3172,416.1056 L144.3172,424.1838 L146.7859,424.1838 L146.7859,426.34 L139.3953,426.34 L139.3953,424.1838 L141.864,424.1838 L141.864,416.1056 L139.3953,416.1056 Z " fill="#000000"/><text fill="#000000" font-family="sans-serif" font-size="14" font-style="italic" lengthAdjust="spacing" textLength="85.6133" x="158.6719" y="425.1867">IRateLimiter</text><line style="stroke:#181818;stroke-width:0.5;" x1="124.08" x2="251.6786" y1="436.34" y2="436.34"/><line style="stroke:#181818;stroke-width:0.5;" x1="124.08" x2="251.6786" y1="444.34" y2="444.34"/><ellipse cx="134.08" cy="457.9884" fill="#84BE84" rx="3" ry="3" style="stroke:#038048;stroke-width:1;"/><text fill="#000000" font-family="sans-serif" font-size="14" lengthAdjust="spacing" textLength="103.5986" x="143.08" y="461.3351">allow(ip) : bool</text></g><!--class IMetrics--><g class="entity" data-entity="IMetrics" data-source-line="22" data-uid="ent0007" id="entity_IMetrics"><rect fill="#F1F1F1" height="48" rx="2.5" ry="2.5" style="stroke:#181818;stroke-width:0.5;" width="86.9473" x="1021.41" y="412.49"/><ellipse cx="1036.41" cy="428.49" fill="#B4A7E5" rx="11" ry="11" style="stroke:#181818;stroke-width:1;"/><path d="M1032.3319,424.2556 L1032.3319,422.0994 L1039.7225,422.0994 L1039.7225,424.2556 L1037.2537,424.2556 L1037.2537,432.3337 L1039.7225,432.3337 L1039.7225,434.49 L1032.3319,434.49 L1032.3319,432.3337 L1034.8006,432.3337 L1034.8006,424.2556 L1032.3319,424.2556 Z " fill="#000000"/><text fill="#000000" font-family="sans-serif" font-size="14" font-style="italic" lengthAdjust="spacing" textLength="54.9473" x="1050.41" y="433.3367">IMetrics</text><line style="stroke:#181818;stroke-width:0.5;" x1="1022.41" x2="1107.3573" y1="444.49" y2="444.49"/><line style="stroke:#181818;stroke-width:0.5;" x1="1022.41" x2="1107.3573" y1="452.49" y2="452.49"/></g><!--class IThreadPool--><g class="entity" data-entity="IThreadPool" data-source-line="24" data-uid="ent0008" id="entity_IThreadPool"><rect fill="#F1F1F1" height="64.2969" rx="2.5" ry="2.5" style="stroke:#181818;stroke-width:0.5;" width="171.3594" x="2274.2" y="255.6"/><ellipse cx="2314.6285" cy="271.6" fill="#B4A7E5" rx="11" ry="11" style="stroke:#181818;stroke-width:1;"/><path d="M2310.5504,267.3656 L2310.5504,265.2094 L2317.941,265.2094 L2317.941,267.3656 L2315.4723,267.3656 L2315.4723,275.4437 L2317.941,275.4437 L2317.941,277.6 L2310.5504,277.6 L2310.5504,275.4437 L2313.0191,275.4437 L2313.0191,267.3656 L2310.5504,267.3656 Z " fill="#000000"/><text fill="#000000" font-family="sans-serif" font-size="14" font-style="italic" lengthAdjust="spacing" textLength="82.8516" x="2334.2793" y="276.4467">IThreadPool</text><line style="stroke:#181818;stroke-width:0.5;" x1="2275.2" x2="2444.5594" y1="287.6" y2="287.6"/><line style="stroke:#181818;stroke-width:0.5;" x1="2275.2" x2="2444.5594" y1="295.6" y2="295.6"/><text fill="#000000" font-family="sans-serif" font-size="14" lengthAdjust="spacing" textLength="159.3594" x="2280.2" y="312.5951">enqueu(lambda) : void</text></g><!--class ISubscribeEvent--><g class="entity" data-entity="ISubscribeEvent" data-source-line="28" data-uid="ent0009" id="entity_ISubscribeEvent"><rect fill="#F1F1F1" height="64.2969" rx="2.5" ry="2.5" style="stroke:#181818;stroke-width:0.5;" width="162.7188" x="2353.52" y="404.34"/><ellipse cx="2376.4851" cy="420.34" fill="#B4A7E5" rx="11" ry="11" style="stroke:#181818;stroke-width:1;"/><path d="M2372.407,416.1056 L2372.407,413.9494 L2379.7976,413.9494 L2379.7976,416.1056 L2377.3288,416.1056 L2377.3288,424.1838 L2379.7976,424.1838 L2379.7976,426.34 L2372.407,426.34 L2372.407,424.1838 L2374.8757,424.1838 L2374.8757,416.1056 L2372.407,416.1056 Z " fill="#000000"/><text fill="#000000" font-family="sans-serif" font-size="14" font-style="italic" lengthAdjust="spacing" textLength="113.0186" x="2392.2551" y="425.1867">ISubscribeEvent</text><line style="stroke:#181818;stroke-width:0.5;" x1="2354.52" x2="2515.2388" y1="436.34" y2="436.34"/><line style="stroke:#181818;stroke-width:0.5;" x1="2354.52" x2="2515.2388" y1="444.34" y2="444.34"/><ellipse cx="2364.52" cy="457.9884" fill="#84BE84" rx="3" ry="3" style="stroke:#038048;stroke-width:1;"/><text fill="#000000" font-family="sans-serif" font-size="14" lengthAdjust="spacing" textLength="136.7188" x="2373.52" y="461.3351">subcrive(req) : void</text></g><!--class IPublishEvent--><g class="entity" data-entity="IPublishEvent" data-source-line="32" data-uid="ent0010" id="entity_IPublishEvent"><rect fill="#F1F1F1" height="64.2969" rx="2.5" ry="2.5" style="stroke:#181818;stroke-width:0.5;" width="154.0166" x="2550.87" y="404.34"/><ellipse cx="2578.3048" cy="420.34" fill="#B4A7E5" rx="11" ry="11" style="stroke:#181818;stroke-width:1;"/><path d="M2574.2266,416.1056 L2574.2266,413.9494 L2581.6173,413.9494 L2581.6173,416.1056 L2579.1485,416.1056 L2579.1485,424.1838 L2581.6173,424.1838 L2581.6173,426.34 L2574.2266,426.34 L2574.2266,424.1838 L2576.6954,424.1838 L2576.6954,416.1056 L2574.2266,416.1056 Z " fill="#000000"/><text fill="#000000" font-family="sans-serif" font-size="14" font-style="italic" lengthAdjust="spacing" textLength="94.3838" x="2595.068" y="425.1867">IPublishEvent</text><line style="stroke:#181818;stroke-width:0.5;" x1="2551.87" x2="2703.8866" y1="436.34" y2="436.34"/><line style="stroke:#181818;stroke-width:0.5;" x1="2551.87" x2="2703.8866" y1="444.34" y2="444.34"/><ellipse cx="2561.87" cy="457.9884" fill="#84BE84" rx="3" ry="3" style="stroke:#038048;stroke-width:1;"/><text fill="#000000" font-family="sans-serif" font-size="14" lengthAdjust="spacing" textLength="128.0166" x="2570.87" y="461.3351">publish(req) : void</text></g><!--class ICacheService--><g class="entity" data-entity="ICacheService" data-source-line="36" data-uid="ent0011" id="entity_ICacheService"><rect fill="#F1F1F1" height="48" rx="2.5" ry="2.5" style="stroke:#181818;stroke-width:0.5;" width="131.4082" x="1354.18" y="412.49"/><ellipse cx="1369.18" cy="428.49" fill="#B4A7E5" rx="11" ry="11" style="stroke:#181818;stroke-width:1;"/><path d="M1365.1019,424.2556 L1365.1019,422.0994 L1372.4925,422.0994 L1372.4925,424.2556 L1370.0238,424.2556 L1370.0238,432.3337 L1372.4925,432.3337 L1372.4925,434.49 L1365.1019,434.49 L1365.1019,432.3337 L1367.5706,432.3337 L1367.5706,424.2556 L1365.1019,424.2556 Z " fill="#000000"/><text fill="#000000" font-family="sans-serif" font-size="14" font-style="italic" lengthAdjust="spacing" textLength="99.4082" x="1383.18" y="433.3367">ICacheService</text><line style="stroke:#181818;stroke-width:0.5;" x1="1355.18" x2="1484.5882" y1="444.49" y2="444.49"/><line style="stroke:#181818;stroke-width:0.5;" x1="1355.18" x2="1484.5882" y1="452.49" y2="452.49"/></g><!--class IEventBus--><g class="entity" data-entity="IEventBus" data-source-line="37" data-uid="ent0012" id="entity_IEventBus"><rect fill="#F1F1F1" height="48" rx="2.5" ry="2.5" style="stroke:#181818;stroke-width:0.5;" width="102.0068" x="2480.88" y="263.74"/><ellipse cx="2495.88" cy="279.74" fill="#B4A7E5" rx="11" ry="11" style="stroke:#181818;stroke-width:1;"/><path d="M2491.8019,275.5056 L2491.8019,273.3494 L2499.1925,273.3494 L2499.1925,275.5056 L2496.7238,275.5056 L2496.7238,283.5837 L2499.1925,283.5837 L2499.1925,285.74 L2491.8019,285.74 L2491.8019,283.5837 L2494.2706,283.5837 L2494.2706,275.5056 L2491.8019,275.5056 Z " fill="#000000"/><text fill="#000000" font-family="sans-serif" font-size="14" font-style="italic" lengthAdjust="spacing" textLength="70.0068" x="2509.88" y="284.5867">IEventBus</text><line style="stroke:#181818;stroke-width:0.5;" x1="2481.88" x2="2581.8868" y1="295.74" y2="295.74"/><line style="stroke:#181818;stroke-width:0.5;" x1="2481.88" x2="2581.8868" y1="303.74" y2="303.74"/></g><!--class RabbitMQClient--><g class="entity" data-entity="RabbitMQClient" data-source-line="39" data-uid="ent0013" id="entity_RabbitMQClient"><rect fill="#F1F1F1" height="48" rx="2.5" ry="2.5" style="stroke:#181818;stroke-width:0.5;" width="141.0879" x="2461.34" y="147.6"/><ellipse cx="2476.34" cy="163.6" fill="#ADD1B2" rx="11" ry="11" style="stroke:#181818;stroke-width:1;"/><path d="M2479.3088,169.2406 Q2478.7306,169.5375 2478.09,169.6781 Q2477.4494,169.8344 2476.7463,169.8344 Q2474.2463,169.8344 2472.9181,168.1937 Q2471.6056,166.5375 2471.6056,163.4125 Q2471.6056,160.2875 2472.9181,158.6312 Q2474.2463,156.975 2476.7463,156.975 Q2477.4494,156.975 2478.09,157.1312 Q2478.7463,157.2875 2479.3088,157.5844 L2479.3088,160.3031 Q2478.6838,159.725 2478.09,159.4594 Q2477.4963,159.1781 2476.8713,159.1781 Q2475.5275,159.1781 2474.84,160.2562 Q2474.1525,161.3187 2474.1525,163.4125 Q2474.1525,165.5062 2474.84,166.5844 Q2475.5275,167.6469 2476.8713,167.6469 Q2477.4963,167.6469 2478.09,167.3812 Q2478.6838,167.1 2479.3088,166.5219 L2479.3088,169.2406 Z " fill="#000000"/><text fill="#000000" font-family="sans-serif" font-size="14" lengthAdjust="spacing" textLength="109.0879" x="2490.34" y="168.4467">RabbitMQClient</text><line style="stroke:#181818;stroke-width:0.5;" x1="2462.34" x2="2601.4279" y1="179.6" y2="179.6"/><line style="stroke:#181818;stroke-width:0.5;" x1="2462.34" x2="2601.4279" y1="187.6" y2="187.6"/></g><!--class ThreadPool--><g class="entity" data-entity="ThreadPool" data-source-line="43" data-uid="ent0017" id="entity_ThreadPool"><rect fill="#F1F1F1" height="48" rx="2.5" ry="2.5" style="stroke:#181818;stroke-width:0.5;" width="110.7227" x="2304.52" y="147.6"/><ellipse cx="2319.52" cy="163.6" fill="#ADD1B2" rx="11" ry="11" style="stroke:#181818;stroke-width:1;"/><path d="M2322.4888,169.2406 Q2321.9106,169.5375 2321.27,169.6781 Q2320.6294,169.8344 2319.9263,169.8344 Q2317.4263,169.8344 2316.0981,168.1937 Q2314.7856,166.5375 2314.7856,163.4125 Q2314.7856,160.2875 2316.0981,158.6312 Q2317.4263,156.975 2319.9263,156.975 Q2320.6294,156.975 2321.27,157.1312 Q2321.9263,157.2875 2322.4888,157.5844 L2322.4888,160.3031 Q2321.8638,159.725 2321.27,159.4594 Q2320.6763,159.1781 2320.0513,159.1781 Q2318.7075,159.1781 2318.02,160.2562 Q2317.3325,161.3187 2317.3325,163.4125 Q2317.3325,165.5062 2318.02,166.5844 Q2318.7075,167.6469 2320.0513,167.6469 Q2320.6763,167.6469 2321.27,167.3812 Q2321.8638,167.1 2322.4888,166.5219 L2322.4888,169.2406 Z " fill="#000000"/><text fill="#000000" font-family="sans-serif" font-size="14" lengthAdjust="spacing" textLength="78.7227" x="2333.52" y="168.4467">ThreadPool</text><line style="stroke:#181818;stroke-width:0.5;" x1="2305.52" x2="2414.2427" y1="179.6" y2="179.6"/><line style="stroke:#181818;stroke-width:0.5;" x1="2305.52" x2="2414.2427" y1="187.6" y2="187.6"/></g><!--class GatewayApp--><g class="entity" data-entity="GatewayApp" data-source-line="46" data-uid="ent0019" id="entity_GatewayApp"><rect fill="#F1F1F1" height="48" rx="2.5" ry="2.5" style="stroke:#181818;stroke-width:0.5;" width="121.1953" x="837.28" y="147.6"/><ellipse cx="852.28" cy="163.6" fill="#ADD1B2" rx="11" ry="11" style="stroke:#181818;stroke-width:1;"/><path d="M855.2488,169.2406 Q854.6706,169.5375 854.03,169.6781 Q853.3894,169.8344 852.6863,169.8344 Q850.1863,169.8344 848.8581,168.1937 Q847.5456,166.5375 847.5456,163.4125 Q847.5456,160.2875 848.8581,158.6312 Q850.1863,156.975 852.6863,156.975 Q853.3894,156.975 854.03,157.1312 Q854.6863,157.2875 855.2488,157.5844 L855.2488,160.3031 Q854.6238,159.725 854.03,159.4594 Q853.4363,159.1781 852.8113,159.1781 Q851.4675,159.1781 850.78,160.2562 Q850.0925,161.3187 850.0925,163.4125 Q850.0925,165.5062 850.78,166.5844 Q851.4675,167.6469 852.8113,167.6469 Q853.4363,167.6469 854.03,167.3812 Q854.6238,167.1 855.2488,166.5219 L855.2488,169.2406 Z " fill="#000000"/><text fill="#000000" font-family="sans-serif" font-size="14" lengthAdjust="spacing" textLength="89.1953" x="866.28" y="168.4467">GatewayApp</text><line style="stroke:#181818;stroke-width:0.5;" x1="838.28" x2="957.4753" y1="179.6" y2="179.6"/><line style="stroke:#181818;stroke-width:0.5;" x1="838.28" x2="957.4753" y1="187.6" y2="187.6"/></g><!--class LoggingMiddleware--><g class="entity" data-entity="LoggingMiddleware" data-source-line="46" data-uid="ent0020" id="entity_LoggingMiddleware"><rect fill="#F1F1F1" height="48" rx="2.5" ry="2.5" style="stroke:#181818;stroke-width:0.5;" width="168.4316" x="550.66" y="263.74"/><ellipse cx="565.66" cy="279.74" fill="#ADD1B2" rx="11" ry="11" style="stroke:#181818;stroke-width:1;"/><path d="M568.6288,285.3806 Q568.0506,285.6775 567.41,285.8181 Q566.7694,285.9744 566.0663,285.9744 Q563.5663,285.9744 562.2381,284.3337 Q560.9256,282.6775 560.9256,279.5525 Q560.9256,276.4275 562.2381,274.7712 Q563.5663,273.115 566.0663,273.115 Q566.7694,273.115 567.41,273.2712 Q568.0663,273.4275 568.6288,273.7244 L568.6288,276.4431 Q568.0038,275.865 567.41,275.5994 Q566.8163,275.3181 566.1913,275.3181 Q564.8475,275.3181 564.16,276.3962 Q563.4725,277.4587 563.4725,279.5525 Q563.4725,281.6462 564.16,282.7244 Q564.8475,283.7869 566.1913,283.7869 Q566.8163,283.7869 567.41,283.5212 Q568.0038,283.24 568.6288,282.6619 L568.6288,285.3806 Z " fill="#000000"/><text fill="#000000" font-family="sans-serif" font-size="14" lengthAdjust="spacing" textLength="136.4316" x="579.66" y="284.5867">LoggingMiddleware</text><line style="stroke:#181818;stroke-width:0.5;" x1="551.66" x2="718.0916" y1="295.74" y2="295.74"/><line style="stroke:#181818;stroke-width:0.5;" x1="551.66" x2="718.0916" y1="303.74" y2="303.74"/></g><!--class RateLimitMiddleware--><g class="entity" data-entity="RateLimitMiddleware" data-source-line="47" data-uid="ent0022" id="entity_RateLimitMiddleware"><rect fill="#F1F1F1" height="48" rx="2.5" ry="2.5" style="stroke:#181818;stroke-width:0.5;" width="179.7588" x="7" y="263.74"/><ellipse cx="22" cy="279.74" fill="#ADD1B2" rx="11" ry="11" style="stroke:#181818;stroke-width:1;"/><path d="M24.9688,285.3806 Q24.3906,285.6775 23.75,285.8181 Q23.1094,285.9744 22.4063,285.9744 Q19.9063,285.9744 18.5781,284.3337 Q17.2656,282.6775 17.2656,279.5525 Q17.2656,276.4275 18.5781,274.7712 Q19.9063,273.115 22.4063,273.115 Q23.1094,273.115 23.75,273.2712 Q24.4063,273.4275 24.9688,273.7244 L24.9688,276.4431 Q24.3438,275.865 23.75,275.5994 Q23.1563,275.3181 22.5313,275.3181 Q21.1875,275.3181 20.5,276.3962 Q19.8125,277.4587 19.8125,279.5525 Q19.8125,281.6462 20.5,282.7244 Q21.1875,283.7869 22.5313,283.7869 Q23.1563,283.7869 23.75,283.5212 Q24.3438,283.24 24.9688,282.6619 L24.9688,285.3806 Z " fill="#000000"/><text fill="#000000" font-family="sans-serif" font-size="14" lengthAdjust="spacing" textLength="147.7588" x="36" y="284.5867">RateLimitMiddleware</text><line style="stroke:#181818;stroke-width:0.5;" x1="8" x2="185.7588" y1="295.74" y2="295.74"/><line style="stroke:#181818;stroke-width:0.5;" x1="8" x2="185.7588" y1="303.74" y2="303.74"/></g><!--class MetricsMiddleware--><g class="entity" data-entity="MetricsMiddleware" data-source-line="48" data-uid="ent0024" id="entity_MetricsMiddleware"><rect fill="#F1F1F1" height="48" rx="2.5" ry="2.5" style="stroke:#181818;stroke-width:0.5;" width="163.4619" x="1078.15" y="263.74"/><ellipse cx="1093.15" cy="279.74" fill="#ADD1B2" rx="11" ry="11" style="stroke:#181818;stroke-width:1;"/><path d="M1096.1188,285.3806 Q1095.5406,285.6775 1094.9,285.8181 Q1094.2594,285.9744 1093.5563,285.9744 Q1091.0563,285.9744 1089.7281,284.3337 Q1088.4156,282.6775 1088.4156,279.5525 Q1088.4156,276.4275 1089.7281,274.7712 Q1091.0563,273.115 1093.5563,273.115 Q1094.2594,273.115 1094.9,273.2712 Q1095.5563,273.4275 1096.1188,273.7244 L1096.1188,276.4431 Q1095.4938,275.865 1094.9,275.5994 Q1094.3063,275.3181 1093.6813,275.3181 Q1092.3375,275.3181 1091.65,276.3962 Q1090.9625,277.4587 1090.9625,279.5525 Q1090.9625,281.6462 1091.65,282.7244 Q1092.3375,283.7869 1093.6813,283.7869 Q1094.3063,283.7869 1094.9,283.5212 Q1095.4938,283.24 1096.1188,282.6619 L1096.1188,285.3806 Z " fill="#000000"/><text fill="#000000" font-family="sans-serif" font-size="14" lengthAdjust="spacing" textLength="131.4619" x="1107.15" y="284.5867">MetricsMiddleware</text><line style="stroke:#181818;stroke-width:0.5;" x1="1079.15" x2="1240.6119" y1="295.74" y2="295.74"/><line style="stroke:#181818;stroke-width:0.5;" x1="1079.15" x2="1240.6119" y1="303.74" y2="303.74"/></g><!--class AuthMiddleware--><g class="entity" data-entity="AuthMiddleware" data-source-line="49" data-uid="ent0026" id="entity_AuthMiddleware"><rect fill="#F1F1F1" height="48" rx="2.5" ry="2.5" style="stroke:#181818;stroke-width:0.5;" width="145.4561" x="370.15" y="263.74"/><ellipse cx="385.15" cy="279.74" fill="#ADD1B2" rx="11" ry="11" style="stroke:#181818;stroke-width:1;"/><path d="M388.1188,285.3806 Q387.5406,285.6775 386.9,285.8181 Q386.2594,285.9744 385.5563,285.9744 Q383.0563,285.9744 381.7281,284.3337 Q380.4156,282.6775 380.4156,279.5525 Q380.4156,276.4275 381.7281,274.7712 Q383.0563,273.115 385.5563,273.115 Q386.2594,273.115 386.9,273.2712 Q387.5563,273.4275 388.1188,273.7244 L388.1188,276.4431 Q387.4938,275.865 386.9,275.5994 Q386.3063,275.3181 385.6813,275.3181 Q384.3375,275.3181 383.65,276.3962 Q382.9625,277.4587 382.9625,279.5525 Q382.9625,281.6462 383.65,282.7244 Q384.3375,283.7869 385.6813,283.7869 Q386.3063,283.7869 386.9,283.5212 Q387.4938,283.24 388.1188,282.6619 L388.1188,285.3806 Z " fill="#000000"/><text fill="#000000" font-family="sans-serif" font-size="14" lengthAdjust="spacing" textLength="113.4561" x="399.15" y="284.5867">AuthMiddleware</text><line style="stroke:#181818;stroke-width:0.5;" x1="371.15" x2="514.6061" y1="295.74" y2="295.74"/><line style="stroke:#181818;stroke-width:0.5;" x1="371.15" x2="514.6061" y1="303.74" y2="303.74"/></g><!--class CacheMiddleware--><g class="entity" data-entity="CacheMiddleware" data-source-line="50" data-uid="ent0028" id="entity_CacheMiddleware"><rect fill="#F1F1F1" height="48" rx="2.5" ry="2.5" style="stroke:#181818;stroke-width:0.5;" width="156.1816" x="1276.79" y="263.74"/><ellipse cx="1291.79" cy="279.74" fill="#ADD1B2" rx="11" ry="11" style="stroke:#181818;stroke-width:1;"/><path d="M1294.7588,285.3806 Q1294.1806,285.6775 1293.54,285.8181 Q1292.8994,285.9744 1292.1963,285.9744 Q1289.6963,285.9744 1288.3681,284.3337 Q1287.0556,282.6775 1287.0556,279.5525 Q1287.0556,276.4275 1288.3681,274.7712 Q1289.6963,273.115 1292.1963,273.115 Q1292.8994,273.115 1293.54,273.2712 Q1294.1963,273.4275 1294.7588,273.7244 L1294.7588,276.4431 Q1294.1338,275.865 1293.54,275.5994 Q1292.9463,275.3181 1292.3213,275.3181 Q1290.9775,275.3181 1290.29,276.3962 Q1289.6025,277.4587 1289.6025,279.5525 Q1289.6025,281.6462 1290.29,282.7244 Q1290.9775,283.7869 1292.3213,283.7869 Q1292.9463,283.7869 1293.54,283.5212 Q1294.1338,283.24 1294.7588,282.6619 L1294.7588,285.3806 Z " fill="#000000"/><text fill="#000000" font-family="sans-serif" font-size="14" lengthAdjust="spacing" textLength="124.1816" x="1305.79" y="284.5867">CacheMiddleware</text><line style="stroke:#181818;stroke-width:0.5;" x1="1277.79" x2="1431.9716" y1="295.74" y2="295.74"/><line style="stroke:#181818;stroke-width:0.5;" x1="1277.79" x2="1431.9716" y1="303.74" y2="303.74"/></g><!--class GatewayController--><g class="entity" data-entity="GatewayController" data-source-line="52" data-uid="ent0031" id="entity_GatewayController"><rect fill="#F1F1F1" height="48" rx="2.5" ry="2.5" style="stroke:#181818;stroke-width:0.5;" width="163.0176" x="1616.37" y="147.6"/><ellipse cx="1631.37" cy="163.6" fill="#ADD1B2" rx="11" ry="11" style="stroke:#181818;stroke-width:1;"/><path d="M1634.3388,169.2406 Q1633.7606,169.5375 1633.12,169.6781 Q1632.4794,169.8344 1631.7763,169.8344 Q1629.2763,169.8344 1627.9481,168.1937 Q1626.6356,166.5375 1626.6356,163.4125 Q1626.6356,160.2875 1627.9481,158.6312 Q1629.2763,156.975 1631.7763,156.975 Q1632.4794,156.975 1633.12,157.1312 Q1633.7763,157.2875 1634.3388,157.5844 L1634.3388,160.3031 Q1633.7138,159.725 1633.12,159.4594 Q1632.5263,159.1781 1631.9013,159.1781 Q1630.5575,159.1781 1629.87,160.2562 Q1629.1825,161.3187 1629.1825,163.4125 Q1629.1825,165.5062 1629.87,166.5844 Q1630.5575,167.6469 1631.9013,167.6469 Q1632.5263,167.6469 1633.12,167.3812 Q1633.7138,167.1 1634.3388,166.5219 L1634.3388,169.2406 Z " fill="#000000"/><text fill="#000000" font-family="sans-serif" font-size="14" lengthAdjust="spacing" textLength="131.0176" x="1645.37" y="168.4467">GatewayController</text><line style="stroke:#181818;stroke-width:0.5;" x1="1617.37" x2="1778.3876" y1="179.6" y2="179.6"/><line style="stroke:#181818;stroke-width:0.5;" x1="1617.37" x2="1778.3876" y1="187.6" y2="187.6"/></g><!--class JWTVerifier--><g class="entity" data-entity="JWTVerifier" data-source-line="62" data-uid="ent0040" id="entity_JWTVerifier"><rect fill="#F1F1F1" height="48" rx="2.5" ry="2.5" style="stroke:#181818;stroke-width:0.5;" width="109.5469" x="754.11" y="263.74"/><ellipse cx="769.11" cy="279.74" fill="#ADD1B2" rx="11" ry="11" style="stroke:#181818;stroke-width:1;"/><path d="M772.0788,285.3806 Q771.5006,285.6775 770.86,285.8181 Q770.2194,285.9744 769.5163,285.9744 Q767.0163,285.9744 765.6881,284.3337 Q764.3756,282.6775 764.3756,279.5525 Q764.3756,276.4275 765.6881,274.7712 Q767.0163,273.115 769.5163,273.115 Q770.2194,273.115 770.86,273.2712 Q771.5163,273.4275 772.0788,273.7244 L772.0788,276.4431 Q771.4538,275.865 770.86,275.5994 Q770.2663,275.3181 769.6413,275.3181 Q768.2975,275.3181 767.61,276.3962 Q766.9225,277.4587 766.9225,279.5525 Q766.9225,281.6462 767.61,282.7244 Q768.2975,283.7869 769.6413,283.7869 Q770.2663,283.7869 770.86,283.5212 Q771.4538,283.24 772.0788,282.6619 L772.0788,285.3806 Z " fill="#000000"/><text fill="#000000" font-family="sans-serif" font-size="14" lengthAdjust="spacing" textLength="77.5469" x="783.11" y="284.5867">JWTVerifier</text><line style="stroke:#181818;stroke-width:0.5;" x1="755.11" x2="862.6569" y1="295.74" y2="295.74"/><line style="stroke:#181818;stroke-width:0.5;" x1="755.11" x2="862.6569" y1="303.74" y2="303.74"/></g><!--class GatewayMetrics--><g class="entity" data-entity="GatewayMetrics" data-source-line="69" data-uid="ent0045" id="entity_GatewayMetrics"><rect fill="#F1F1F1" height="48" rx="2.5" ry="2.5" style="stroke:#181818;stroke-width:0.5;" width="144.6631" x="898.55" y="263.74"/><ellipse cx="913.55" cy="279.74" fill="#ADD1B2" rx="11" ry="11" style="stroke:#181818;stroke-width:1;"/><path d="M916.5188,285.3806 Q915.9406,285.6775 915.3,285.8181 Q914.6594,285.9744 913.9563,285.9744 Q911.4563,285.9744 910.1281,284.3337 Q908.8156,282.6775 908.8156,279.5525 Q908.8156,276.4275 910.1281,274.7712 Q911.4563,273.115 913.9563,273.115 Q914.6594,273.115 915.3,273.2712 Q915.9563,273.4275 916.5188,273.7244 L916.5188,276.4431 Q915.8938,275.865 915.3,275.5994 Q914.7063,275.3181 914.0813,275.3181 Q912.7375,275.3181 912.05,276.3962 Q911.3625,277.4587 911.3625,279.5525 Q911.3625,281.6462 912.05,282.7244 Q912.7375,283.7869 914.0813,283.7869 Q914.7063,283.7869 915.3,283.5212 Q915.8938,283.24 916.5188,282.6619 L916.5188,285.3806 Z " fill="#000000"/><text fill="#000000" font-family="sans-serif" font-size="14" lengthAdjust="spacing" textLength="112.6631" x="927.55" y="284.5867">GatewayMetrics</text><line style="stroke:#181818;stroke-width:0.5;" x1="899.55" x2="1042.2131" y1="295.74" y2="295.74"/><line style="stroke:#181818;stroke-width:0.5;" x1="899.55" x2="1042.2131" y1="303.74" y2="303.74"/></g><!--class RateLimiter--><g class="entity" data-entity="RateLimiter" data-source-line="70" data-uid="ent0047" id="entity_RateLimiter"><rect fill="#F1F1F1" height="48" rx="2.5" ry="2.5" style="stroke:#181818;stroke-width:0.5;" width="113.4844" x="222.14" y="263.74"/><ellipse cx="237.14" cy="279.74" fill="#ADD1B2" rx="11" ry="11" style="stroke:#181818;stroke-width:1;"/><path d="M240.1088,285.3806 Q239.5306,285.6775 238.89,285.8181 Q238.2494,285.9744 237.5463,285.9744 Q235.0463,285.9744 233.7181,284.3337 Q232.4056,282.6775 232.4056,279.5525 Q232.4056,276.4275 233.7181,274.7712 Q235.0463,273.115 237.5463,273.115 Q238.2494,273.115 238.89,273.2712 Q239.5463,273.4275 240.1088,273.7244 L240.1088,276.4431 Q239.4838,275.865 238.89,275.5994 Q238.2963,275.3181 237.6713,275.3181 Q236.3275,275.3181 235.64,276.3962 Q234.9525,277.4587 234.9525,279.5525 Q234.9525,281.6462 235.64,282.7244 Q236.3275,283.7869 237.6713,283.7869 Q238.2963,283.7869 238.89,283.5212 Q239.4838,283.24 240.1088,282.6619 L240.1088,285.3806 Z " fill="#000000"/><text fill="#000000" font-family="sans-serif" font-size="14" lengthAdjust="spacing" textLength="81.4844" x="251.14" y="284.5867">RateLimiter</text><line style="stroke:#181818;stroke-width:0.5;" x1="223.14" x2="334.6244" y1="295.74" y2="295.74"/><line style="stroke:#181818;stroke-width:0.5;" x1="223.14" x2="334.6244" y1="303.74" y2="303.74"/></g><!--class RealHttpClient--><g class="entity" data-entity="RealHttpClient" data-source-line="71" data-uid="ent0049" id="entity_RealHttpClient"><rect fill="#F1F1F1" height="48" rx="2.5" ry="2.5" style="stroke:#181818;stroke-width:0.5;" width="133.7324" x="2105.01" y="263.74"/><ellipse cx="2120.01" cy="279.74" fill="#ADD1B2" rx="11" ry="11" style="stroke:#181818;stroke-width:1;"/><path d="M2122.9788,285.3806 Q2122.4006,285.6775 2121.76,285.8181 Q2121.1194,285.9744 2120.4163,285.9744 Q2117.9163,285.9744 2116.5881,284.3337 Q2115.2756,282.6775 2115.2756,279.5525 Q2115.2756,276.4275 2116.5881,274.7712 Q2117.9163,273.115 2120.4163,273.115 Q2121.1194,273.115 2121.76,273.2712 Q2122.4163,273.4275 2122.9788,273.7244 L2122.9788,276.4431 Q2122.3538,275.865 2121.76,275.5994 Q2121.1663,275.3181 2120.5413,275.3181 Q2119.1975,275.3181 2118.51,276.3962 Q2117.8225,277.4587 2117.8225,279.5525 Q2117.8225,281.6462 2118.51,282.7244 Q2119.1975,283.7869 2120.5413,283.7869 Q2121.1663,283.7869 2121.76,283.5212 Q2122.3538,283.24 2122.9788,282.6619 L2122.9788,285.3806 Z " fill="#000000"/><text fill="#000000" font-family="sans-serif" font-size="14" lengthAdjust="spacing" textLength="101.7324" x="2134.01" y="284.5867">RealHttpClient</text><line style="stroke:#181818;stroke-width:0.5;" x1="2106.01" x2="2237.7424" y1="295.74" y2="295.74"/><line style="stroke:#181818;stroke-width:0.5;" x1="2106.01" x2="2237.7424" y1="303.74" y2="303.74"/></g><!--link RabbitMQClient to IEventBus--><g class="link" data-entity-1="RabbitMQClient" data-entity-2="IEventBus" data-source-line="39" data-uid="lnk14" id="link_RabbitMQClient_IEventBus"><path codeLine="39" d="M2531.88,195.97 C2531.88,215.67 2531.88,225.71 2531.88,245.4" fill="none" id="RabbitMQClient-to-IEventBus" style="stroke:#181818;stroke-width:1;stroke-dasharray:7,7;"/><polygon fill="none" points="2531.88,263.4,2537.88,245.4,2525.88,245.4,2531.88,263.4" style="stroke:#181818;stroke-width:1;"/></g><!--link IEventBus to ISubscribeEvent--><g class="link" data-entity-1="IEventBus" data-entity-2="ISubscribeEvent" data-source-line="41" data-uid="lnk15" id="link_IEventBus_ISubscribeEvent"><path codeLine="41" d="M2516.51,312 C2500.11,336.81 2483.9568,361.2447 2465.6968,388.8647" fill="none" id="IEventBus-to-ISubscribeEvent" style="stroke:#181818;stroke-width:1;stroke-dasharray:7,7;"/><polygon fill="none" points="2455.77,403.88,2470.7019,392.1737,2460.6917,385.5558,2455.77,403.88" style="stroke:#181818;stroke-width:1;"/></g><!--link IEventBus to IPublishEvent--><g class="link" data-entity-1="IEventBus" data-entity-2="IPublishEvent" data-source-line="42" data-uid="lnk16" id="link_IEventBus_IPublishEvent"><path codeLine="42" d="M2547.09,312 C2563.32,336.81 2579.2754,361.1972 2597.3454,388.8172" fill="none" id="IEventBus-to-IPublishEvent" style="stroke:#181818;stroke-width:1;stroke-dasharray:7,7;"/><polygon fill="none" points="2607.2,403.88,2602.3663,385.5324,2592.3245,392.1021,2607.2,403.88" style="stroke:#181818;stroke-width:1;"/></g><!--link ThreadPool to IThreadPool--><g class="link" data-entity-1="ThreadPool" data-entity-2="IThreadPool" data-source-line="43" data-uid="lnk18" id="link_ThreadPool_IThreadPool"><path codeLine="43" d="M2359.88,195.97 C2359.88,213.06 2359.88,218.43 2359.88,237.18" fill="none" id="ThreadPool-to-IThreadPool" style="stroke:#181818;stroke-width:1;stroke-dasharray:7,7;"/><polygon fill="none" points="2359.88,255.18,2365.88,237.18,2353.88,237.18,2359.88,255.18" style="stroke:#181818;stroke-width:1;"/></g><!--reverse link GatewayApp to LoggingMiddleware--><g class="link" data-entity-1="GatewayApp" data-entity-2="LoggingMiddleware" data-source-line="46" data-uid="lnk21" id="link_GatewayApp_LoggingMiddleware"><path codeLine="46" d="M833.0125,200.7485 C787.6325,220.4485 734.03,243.71 688.66,263.4" fill="none" id="GatewayApp-backto-LoggingMiddleware" style="stroke:#181818;stroke-width:1;"/><polygon fill="#181818" points="844.02,195.97,836.9234,194.6901,833.0125,200.7485,840.1091,202.0284,844.02,195.97" style="stroke:#181818;stroke-width:1;"/></g><!--reverse link GatewayApp to RateLimitMiddleware--><g class="link" data-entity-1="GatewayApp" data-entity-2="RateLimitMiddleware" data-source-line="47" data-uid="lnk23" id="link_GatewayApp_RateLimitMiddleware"><path codeLine="47" d="M825.1303,177.4122 C703.9203,186.0422 435.86,208.77 204.88,255.6 C194.26,257.75 183.18,260.43 172.32,263.31" fill="none" id="GatewayApp-backto-RateLimitMiddleware" style="stroke:#181818;stroke-width:1;"/><polygon fill="#181818" points="837.1,176.56,830.8311,172.9962,825.1303,177.4122,831.3992,180.976,837.1,176.56" style="stroke:#181818;stroke-width:1;"/></g><!--reverse link GatewayApp to MetricsMiddleware--><g class="link" data-entity-1="GatewayApp" data-entity-2="MetricsMiddleware" data-source-line="48" data-uid="lnk25" id="link_GatewayApp_MetricsMiddleware"><path codeLine="48" d="M962.531,200.7636 C1007.741,220.4636 1061.11,243.71 1106.3,263.4" fill="none" id="GatewayApp-backto-MetricsMiddleware" style="stroke:#181818;stroke-width:1;"/><polygon fill="#181818" points="951.53,195.97,955.4326,202.0338,962.531,200.7636,958.6284,194.6998,951.53,195.97" style="stroke:#181818;stroke-width:1;"/></g><!--reverse link GatewayApp to AuthMiddleware--><g class="link" data-entity-1="GatewayApp" data-entity-2="AuthMiddleware" data-source-line="49" data-uid="lnk27" id="link_GatewayApp_AuthMiddleware"><path codeLine="49" d="M825.2109,186.6628 C752.3209,201.1728 638.63,225.37 532.88,255.6 C524.77,257.91 516.32,260.54 507.99,263.27" fill="none" id="GatewayApp-backto-AuthMiddleware" style="stroke:#181818;stroke-width:1;"/><polygon fill="#181818" points="836.98,184.32,830.3145,181.5684,825.2109,186.6628,831.8764,189.4144,836.98,184.32" style="stroke:#181818;stroke-width:1;"/></g><!--reverse link GatewayApp to CacheMiddleware--><g class="link" data-entity-1="GatewayApp" data-entity-2="CacheMiddleware" data-source-line="50" data-uid="lnk29" id="link_GatewayApp_CacheMiddleware"><path codeLine="50" d="M970.7199,187.3673 C1042.8399,202.3273 1154.44,226.71 1258.88,255.6 C1267.41,257.95 1276.31,260.6 1285.1,263.31" fill="none" id="GatewayApp-backto-CacheMiddleware" style="stroke:#181818;stroke-width:1;"/><polygon fill="#181818" points="958.97,184.93,964.0325,190.0653,970.7199,187.3673,965.6574,182.232,958.97,184.93" style="stroke:#181818;stroke-width:1;"/></g><!--link GatewayServer to GatewayApp--><g class="link" data-entity-1="GatewayServer" data-entity-2="GatewayApp" data-source-line="51" data-uid="lnk30" id="link_GatewayServer_GatewayApp"><path codeLine="51" d="M1021.3813,94.3074 C989.7713,113.8374 968.0542,127.2462 940.9942,143.9662" fill="none" id="GatewayServer-GatewayApp" style="stroke:#181818;stroke-width:1;"/><polygon fill="#181818" points="1031.59,88,1024.3832,87.7508,1021.3813,94.3074,1028.5881,94.5566,1031.59,88" style="stroke:#181818;stroke-width:1;"/><polygon fill="#181818" points="935.89,147.12,945.6489,145.7921,940.1435,144.4918,941.4438,138.9864,935.89,147.12" style="stroke:#181818;stroke-width:1;"/></g><!--link GatewayServer to GatewayController--><g class="link" data-entity-1="GatewayServer" data-entity-2="GatewayController" data-source-line="52" data-uid="lnk32" id="link_GatewayServer_GatewayController"><path codeLine="52" d="M1192.6097,67.9493 C1308.3197,91.4593 1496.4001,129.6654 1610.3501,152.8154" fill="none" id="GatewayServer-GatewayController" style="stroke:#181818;stroke-width:1;"/><polygon fill="none" points="1180.85,65.56,1185.9334,70.6746,1192.6097,67.9493,1187.5263,62.8348,1180.85,65.56" style="stroke:#181818;stroke-width:1;"/><polygon fill="#181818" points="1616.23,154.01,1608.2065,148.2982,1611.3301,153.0145,1606.6138,156.1381,1616.23,154.01" style="stroke:#181818;stroke-width:1;"/></g><!--link GatewayController to ICacheService--><g class="link" data-entity-1="GatewayController" data-entity-2="ICacheService" data-source-line="54" data-uid="lnk33" id="link_GatewayController_ICacheService"><path codeLine="54" d="M1646.817,202.2415 C1621.617,217.6215 1599.54,232.8 1573.88,255.6 C1517.63,305.56 1466.6625,371.1847 1440.1325,407.2947" fill="none" id="GatewayController-ICacheService" style="stroke:#181818;stroke-width:1;"/><polygon fill="none" points="1657.06,195.99,1649.8547,195.7014,1646.817,202.2415,1654.0223,202.5301,1657.06,195.99" style="stroke:#181818;stroke-width:1;"/><polygon fill="#181818" points="1436.58,412.13,1445.1322,407.2454,1439.5404,408.1006,1438.6852,402.5088,1436.58,412.13" style="stroke:#181818;stroke-width:1;"/></g><!--link GatewayController to IThreadPool--><g class="link" data-entity-1="GatewayController" data-entity-2="IThreadPool" data-source-line="55" data-uid="lnk34" id="link_GatewayController_IThreadPool"><path codeLine="55" d="M1791.7968,182.3936 C1901.1868,194.5336 2088.59,218.3 2255.88,255.6 C2261.77,256.91 2262.0018,256.8752 2268.0618,258.4452" fill="none" id="GatewayController-IThreadPool" style="stroke:#181818;stroke-width:1;"/><polygon fill="none" points="1779.87,181.07,1785.3922,185.7074,1791.7968,182.3936,1786.2746,177.7562,1779.87,181.07" style="stroke:#181818;stroke-width:1;"/><polygon fill="#181818" points="2273.87,259.95,2266.1608,253.8207,2269.0298,258.696,2264.1545,261.565,2273.87,259.95" style="stroke:#181818;stroke-width:1;"/></g><!--link GatewayController to IEventBus--><g class="link" data-entity-1="GatewayController" data-entity-2="IEventBus" data-source-line="56" data-uid="lnk35" id="link_GatewayController_IEventBus"><path codeLine="56" d="M1791.8379,173.306 C1933.5779,175.976 2220.56,189.56 2462.88,255.6 C2470.23,257.6 2472.2424,258.0289 2479.5424,260.9989" fill="none" id="GatewayController-IEventBus" style="stroke:#181818;stroke-width:1;"/><polygon fill="none" points="1779.84,173.08,1785.7636,177.1923,1791.8379,173.306,1785.9143,169.1937,1779.84,173.08" style="stroke:#181818;stroke-width:1;"/><polygon fill="#181818" points="2485.1,263.26,2478.271,256.1632,2480.4686,261.3757,2475.2561,263.5734,2485.1,263.26" style="stroke:#181818;stroke-width:1;"/></g><!--link GatewayController to ProxyClient--><g class="link" data-entity-1="GatewayController" data-entity-2="ProxyClient" data-source-line="57" data-uid="lnk36" id="link_GatewayController_ProxyClient"><path codeLine="57" d="M1736.3128,203.4883 C1757.5728,220.5783 1772.614,232.6703 1795.934,251.4203" fill="none" id="GatewayController-ProxyClient" style="stroke:#181818;stroke-width:1;"/><polygon fill="#181818" points="1726.96,195.97,1729.1303,202.8468,1736.3128,203.4883,1734.1425,196.6116,1726.96,195.97" style="stroke:#181818;stroke-width:1;"/><polygon fill="#181818" points="1800.61,255.18,1796.1024,246.4232,1796.7133,252.047,1791.0896,252.6579,1800.61,255.18" style="stroke:#181818;stroke-width:1;"/></g><!--link GatewayController to IClient--><g class="link" data-entity-1="GatewayController" data-entity-2="IClient" data-source-line="58" data-uid="lnk37" id="link_GatewayController_IClient"><path codeLine="58" d="M1641.2392,202.2922 C1618.8492,216.2622 1604.37,229.96 1591.88,255.6 C1579.37,281.29 1576.52,295.79 1591.88,319.89 C1607.64,344.63 1625.1094,361.0328 1650.3094,376.4228" fill="none" id="GatewayController-IClient" style="stroke:#181818;stroke-width:1;"/><polygon fill="none" points="1651.42,195.94,1644.2122,195.7225,1641.2392,202.2922,1648.447,202.5097,1651.42,195.94" style="stroke:#181818;stroke-width:1;"/><polygon fill="#181818" points="1655.43,379.55,1649.8339,371.4454,1651.1628,376.944,1645.6643,378.2729,1655.43,379.55" style="stroke:#181818;stroke-width:1;"/></g><!--link ProxyClient to IClient--><g class="link" data-entity-1="ProxyClient" data-entity-2="IClient" data-source-line="59" data-uid="lnk38" id="link_ProxyClient_IClient"><path codeLine="59" d="M1839.88,332.22 C1839.88,349.49 1839.88,353.41 1839.88,373.48" fill="none" id="ProxyClient-IClient" style="stroke:#181818;stroke-width:1;"/><polygon fill="none" points="1839.88,320.22,1835.88,326.22,1839.88,332.22,1843.88,326.22,1839.88,320.22" style="stroke:#181818;stroke-width:1;"/><polygon fill="#181818" points="1839.88,379.48,1843.88,370.48,1839.88,374.48,1835.88,370.48,1839.88,379.48" style="stroke:#181818;stroke-width:1;"/></g><!--link AuthMiddleware to IVerifier--><g class="link" data-entity-1="AuthMiddleware" data-entity-2="IVerifier" data-source-line="61" data-uid="lnk39" id="link_AuthMiddleware_IVerifier"><path codeLine="61" d="M481.2421,319.5067 C515.4021,346.8967 557.7987,380.897 592.0387,408.347" fill="none" id="AuthMiddleware-IVerifier" style="stroke:#181818;stroke-width:1;"/><polygon fill="none" points="471.88,312,474.0588,318.8741,481.2421,319.5067,479.0633,312.6326,471.88,312" style="stroke:#181818;stroke-width:1;"/><polygon fill="#181818" points="596.72,412.1,592.2,403.3496,592.8189,408.9725,587.196,409.5914,596.72,412.1" style="stroke:#181818;stroke-width:1;"/></g><!--link JWTVerifier to IVerifier--><g class="link" data-entity-1="JWTVerifier" data-entity-2="IVerifier" data-source-line="62" data-uid="lnk41" id="link_JWTVerifier_IVerifier"><path codeLine="62" d="M779.88,312 C745.72,339.39 703.324,373.391 669.084,400.841" fill="none" id="JWTVerifier-to-IVerifier" style="stroke:#181818;stroke-width:1;stroke-dasharray:7,7;"/><polygon fill="none" points="655.04,412.1,672.837,405.5223,665.331,396.1596,655.04,412.1" style="stroke:#181818;stroke-width:1;"/></g><!--link CacheMiddleware to ICacheService--><g class="link" data-entity-1="CacheMiddleware" data-entity-2="ICacheService" data-source-line="64" data-uid="lnk42" id="link_CacheMiddleware_ICacheService"><path codeLine="64" d="M1370.0407,322.9715 C1382.2107,350.4415 1395.05,379.4241 1407.2,406.8541" fill="none" id="CacheMiddleware-ICacheService" style="stroke:#181818;stroke-width:1;"/><polygon fill="none" points="1365.18,312,1363.9532,319.106,1370.0407,322.9715,1371.2675,315.8655,1365.18,312" style="stroke:#181818;stroke-width:1;"/><polygon fill="#181818" points="1409.63,412.34,1409.6423,402.4911,1407.605,407.7684,1402.3278,405.7311,1409.63,412.34" style="stroke:#181818;stroke-width:1;"/></g><!--link MetricsMiddleware to IMetrics--><g class="link" data-entity-1="MetricsMiddleware" data-entity-2="IMetrics" data-source-line="65" data-uid="lnk43" id="link_MetricsMiddleware_IMetrics"><path codeLine="65" d="M1138.307,322.0723 C1120.517,349.5423 1100.881,379.8735 1083.121,407.3035" fill="none" id="MetricsMiddleware-IMetrics" style="stroke:#181818;stroke-width:1;"/><polygon fill="none" points="1144.83,312,1138.2111,314.8618,1138.307,322.0723,1144.9259,319.2105,1144.83,312" style="stroke:#181818;stroke-width:1;"/><polygon fill="#181818" points="1079.86,412.34,1088.1091,406.9592,1082.5775,408.1429,1081.3938,402.6113,1079.86,412.34" style="stroke:#181818;stroke-width:1;"/></g><!--link RateLimitMiddleware to IRateLimiter--><g class="link" data-entity-1="RateLimitMiddleware" data-entity-2="IRateLimiter" data-source-line="66" data-uid="lnk44" id="link_RateLimitMiddleware_IRateLimiter"><path codeLine="66" d="M117.6226,322.1992 C133.0026,347.0092 147.9876,371.161 165.1176,398.781" fill="none" id="RateLimitMiddleware-IRateLimiter" style="stroke:#181818;stroke-width:1;"/><polygon fill="none" points="111.3,312,111.0616,319.2072,117.6226,322.1992,117.8611,314.9921,111.3,312" style="stroke:#181818;stroke-width:1;"/><polygon fill="#181818" points="168.28,403.88,166.9357,394.1233,165.6447,399.6309,160.1371,398.3398,168.28,403.88" style="stroke:#181818;stroke-width:1;"/></g><!--link GatewayMetrics to IMetrics--><g class="link" data-entity-1="GatewayMetrics" data-entity-2="IMetrics" data-source-line="69" data-uid="lnk46" id="link_GatewayMetrics_IMetrics"><path codeLine="69" d="M985.77,312 C1003.38,339.47 1022.7712,369.7528 1040.3412,397.1828" fill="none" id="GatewayMetrics-to-IMetrics" style="stroke:#181818;stroke-width:1;stroke-dasharray:7,7;"/><polygon fill="none" points="1050.05,412.34,1045.3936,393.9466,1035.2888,400.4191,1050.05,412.34" style="stroke:#181818;stroke-width:1;"/></g><!--link RateLimiter to IRateLimiter--><g class="link" data-entity-1="RateLimiter" data-entity-2="IRateLimiter" data-source-line="70" data-uid="lnk48" id="link_RateLimiter_IRateLimiter"><path codeLine="70" d="M264.46,312 C249.07,336.81 234.0972,360.9631 216.9672,388.5831" fill="none" id="RateLimiter-to-IRateLimiter" style="stroke:#181818;stroke-width:1;stroke-dasharray:7,7;"/><polygon fill="none" points="207.48,403.88,222.0661,391.7455,211.8682,385.4208,207.48,403.88" style="stroke:#181818;stroke-width:1;"/></g><!--link RealHttpClient to IClient--><g class="link" data-entity-1="RealHttpClient" data-entity-2="IClient" data-source-line="71" data-uid="lnk50" id="link_RealHttpClient_IClient"><path codeLine="71" d="M2118.91,312.16 C2077.9,330.28 2035.8222,348.8701 1982.9522,372.2501" fill="none" id="RealHttpClient-to-IClient" style="stroke:#181818;stroke-width:1;stroke-dasharray:7,7;"/><polygon fill="none" points="1966.49,379.53,1985.3788,377.7375,1980.5256,366.7627,1966.49,379.53" style="stroke:#181818;stroke-width:1;"/></g><!--SRC=[bLHVRvim47_tfxYdYQnhFy0gLUhIhTlKT8n6sxE1IsBDnVHyJbfr- -vpm0KJGgM-mVt-SBwVZq9BQ-5QCkxaqntI5WcU1G2vAfd1HzWQLUvVSQqi8sN6CTeU-IT4qJYaP1wVvbfXnLv_Yxmpz2T3MvlA8gmCxIILIU7V639yS6ZvQla3tds0jgQyhZR4i_Ezftz3Mia2uLld2N02XxxNoC7pI_k5s7fsL7A56XdVgahTcp-K6lkgPdZCNqXgfP3YMkPJkL7tYaCc9o2rDhj4rVlvvyPeRnBn5yYa2ZlmNMu8PPbwRcE1bM_19LhUvwMCKumaTowt1QaSFs_xoLkN-zeM4yA72LtgSgti9bRLRUaLqLmM6zpVErLWN6zSFZb_c4pckUB5pt0Hpix-NiHmznYGOVSZE6vIHCDfqRuWX0XBSLdNyFxq56xCUgsgzKALfVPrmaD25zSq9IGqJRXql9b6cs6DuR2sdd41lU80DH4wDnMJqTfVDp4gjSnXC5EaQ5vJb2wfCQ5fEFfnJFVIml4_PW28uTW2sAtKzz_Bb-UGSmU9Wv4UE_mej41wMRSZkGT6jC3zVGgoqCd8fEin5cSezLVcUh03uV3_0G00]--></g></svg>