<svg xmlns="http://www.w3.org/2000/svg" xmlns:xlink="http://www.w3.org/1999/xlink" contentStyleType="text/css" data-diagram-type="SEQUENCE" height="386px" preserveAspectRatio="none" style="width:905px;height:386px;background:#FFFFFF;" version="1.1" viewBox="0 0 905 386" width="905px" zoomAndPan="magnify"><defs/><g><g><title>User</title><rect fill="#000000" fill-opacity="0.00000" height="223.9297" width="8" x="19.9551" y="81.2969"/><line style="stroke:#181818;stroke-width:0.5;stroke-dasharray:5,5;" x1="23" x2="23" y1="81.2969" y2="305.2266"/></g><g><title>Frontend</title><rect fill="#000000" fill-opacity="0.00000" height="223.9297" width="8" x="139.2524" y="81.2969"/><line style="stroke:#181818;stroke-width:0.5;stroke-dasharray:5,5;" x1="142.6978" x2="142.6978" y1="81.2969" y2="305.2266"/></g><g><title>Gateway</title><rect fill="#000000" fill-opacity="0.00000" height="223.9297" width="8" x="264.4531" y="81.2969"/><line style="stroke:#181818;stroke-width:0.5;stroke-dasharray:5,5;" x1="267.5308" x2="267.5308" y1="81.2969" y2="305.2266"/></g><g><title>ChatService</title><rect fill="#000000" fill-opacity="0.00000" height="223.9297" width="8" x="381.1733" y="81.2969"/><line style="stroke:#181818;stroke-width:0.5;stroke-dasharray:5,5;" x1="384.9443" x2="384.9443" y1="81.2969" y2="305.2266"/></g><g><title>MessageService</title><rect fill="#000000" fill-opacity="0.00000" height="223.9297" width="8" x="513.8452" y="81.2969"/><line style="stroke:#181818;stroke-width:0.5;stroke-dasharray:5,5;" x1="517.2949" x2="517.2949" y1="81.2969" y2="305.2266"/></g><g><title>RabbitMQ</title><rect fill="#000000" fill-opacity="0.00000" height="223.9297" width="8" x="697.6665" y="81.2969"/><line style="stroke:#181818;stroke-width:0.5;stroke-dasharray:5,5;" x1="701.3877" x2="701.3877" y1="81.2969" y2="305.2266"/></g><g><title>NotificationService</title><rect fill="#000000" fill-opacity="0.00000" height="223.9297" width="8" x="821.9805" y="81.2969"/><line style="stroke:#181818;stroke-width:0.5;stroke-dasharray:5,5;" x1="825.9453" x2="825.9453" y1="81.2969" y2="305.2266"/></g><g class="participant participant-head" data-participant="User"><text fill="#000000" font-family="sans-serif" font-size="14" lengthAdjust="spacing" textLength="31.9102" x="5" y="77.9951">User</text><ellipse cx="23.9551" cy="13.5" fill="#E2E2F0" rx="8" ry="8" style="stroke:#181818;stroke-width:0.5;"/><path d="M23.9551,21.5 L23.9551,48.5 M10.9551,29.5 L36.9551,29.5 M23.9551,48.5 L10.9551,63.5 M23.9551,48.5 L36.9551,63.5" fill="none" style="stroke:#181818;stroke-width:0.5;"/></g><g class="participant participant-tail" data-participant="User"><text fill="#000000" font-family="sans-serif" font-size="14" lengthAdjust="spacing" textLength="31.9102" x="5" y="317.2217">User</text><ellipse cx="23.9551" cy="329.0234" fill="#E2E2F0" rx="8" ry="8" style="stroke:#181818;stroke-width:0.5;"/><path d="M23.9551,337.0234 L23.9551,364.0234 M10.9551,345.0234 L36.9551,345.0234 M23.9551,364.0234 L10.9551,379.0234 M23.9551,364.0234 L36.9551,379.0234" fill="none" style="stroke:#181818;stroke-width:0.5;"/></g><g class="participant participant-head" data-participant="Frontend"><rect fill="#E2E2F0" height="30.2969" rx="2.5" ry="2.5" style="stroke:#181818;stroke-width:0.5;" width="77.1094" x="104.6978" y="50"/><text fill="#000000" font-family="sans-serif" font-size="14" lengthAdjust="spacing" textLength="63.1094" x="111.6978" y="69.9951">Frontend</text></g><g class="participant participant-tail" data-participant="Frontend"><rect fill="#E2E2F0" height="30.2969" rx="2.5" ry="2.5" style="stroke:#181818;stroke-width:0.5;" width="77.1094" x="104.6978" y="304.2266"/><text fill="#000000" font-family="sans-serif" font-size="14" lengthAdjust="spacing" textLength="63.1094" x="111.6978" y="324.2217">Frontend</text></g><g class="participant participant-head" data-participant="Gateway"><rect fill="#E2E2F0" height="30.2969" rx="2.5" ry="2.5" style="stroke:#181818;stroke-width:0.5;" width="75.8447" x="230.5308" y="50"/><text fill="#000000" font-family="sans-serif" font-size="14" lengthAdjust="spacing" textLength="61.8447" x="237.5308" y="69.9951">Gateway</text></g><g class="participant participant-tail" data-participant="Gateway"><rect fill="#E2E2F0" height="30.2969" rx="2.5" ry="2.5" style="stroke:#181818;stroke-width:0.5;" width="75.8447" x="230.5308" y="304.2266"/><text fill="#000000" font-family="sans-serif" font-size="14" lengthAdjust="spacing" textLength="61.8447" x="237.5308" y="324.2217">Gateway</text></g><g class="participant participant-head" data-participant="ChatService"><rect fill="#E2E2F0" height="30.2969" rx="2.5" ry="2.5" style="stroke:#181818;stroke-width:0.5;" width="98.458" x="335.9443" y="50"/><text fill="#000000" font-family="sans-serif" font-size="14" lengthAdjust="spacing" textLength="84.458" x="342.9443" y="69.9951">ChatService</text></g><g class="participant participant-tail" data-participant="ChatService"><rect fill="#E2E2F0" height="30.2969" rx="2.5" ry="2.5" style="stroke:#181818;stroke-width:0.5;" width="98.458" x="335.9443" y="304.2266"/><text fill="#000000" font-family="sans-serif" font-size="14" lengthAdjust="spacing" textLength="84.458" x="342.9443" y="324.2217">ChatService</text></g><g class="participant participant-head" data-participant="MessageService"><rect fill="#E2E2F0" height="30.2969" rx="2.5" ry="2.5" style="stroke:#181818;stroke-width:0.5;" width="127.1006" x="454.2949" y="50"/><text fill="#000000" font-family="sans-serif" font-size="14" lengthAdjust="spacing" textLength="113.1006" x="461.2949" y="69.9951">MessageService</text></g><g class="participant participant-tail" data-participant="MessageService"><rect fill="#E2E2F0" height="30.2969" rx="2.5" ry="2.5" style="stroke:#181818;stroke-width:0.5;" width="127.1006" x="454.2949" y="304.2266"/><text fill="#000000" font-family="sans-serif" font-size="14" lengthAdjust="spacing" textLength="113.1006" x="461.2949" y="324.2217">MessageService</text></g><g class="participant participant-head" data-participant="RabbitMQ"><rect fill="#E2E2F0" height="30.2969" rx="2.5" ry="2.5" style="stroke:#181818;stroke-width:0.5;" width="82.5576" x="660.3877" y="50"/><text fill="#000000" font-family="sans-serif" font-size="14" lengthAdjust="spacing" textLength="68.5576" x="667.3877" y="69.9951">RabbitMQ</text></g><g class="participant participant-tail" data-participant="RabbitMQ"><rect fill="#E2E2F0" height="30.2969" rx="2.5" ry="2.5" style="stroke:#181818;stroke-width:0.5;" width="82.5576" x="660.3877" y="304.2266"/><text fill="#000000" font-family="sans-serif" font-size="14" lengthAdjust="spacing" textLength="68.5576" x="667.3877" y="324.2217">RabbitMQ</text></g><g class="participant participant-head" data-participant="NotificationService"><rect fill="#E2E2F0" height="30.2969" rx="2.5" ry="2.5" style="stroke:#181818;stroke-width:0.5;" width="146.0703" x="752.9453" y="50"/><text fill="#000000" font-family="sans-serif" font-size="14" lengthAdjust="spacing" textLength="132.0703" x="759.9453" y="69.9951">NotificationService</text></g><g class="participant participant-tail" data-participant="NotificationService"><rect fill="#E2E2F0" height="30.2969" rx="2.5" ry="2.5" style="stroke:#181818;stroke-width:0.5;" width="146.0703" x="752.9453" y="304.2266"/><text fill="#000000" font-family="sans-serif" font-size="14" lengthAdjust="spacing" textLength="132.0703" x="759.9453" y="324.2217">NotificationService</text></g><g class="message" data-participant-1="User" data-participant-2="Frontend"><polygon fill="#181818" points="131.2524,108.4297,141.2524,112.4297,131.2524,116.4297,135.2524,112.4297" style="stroke:#181818;stroke-width:1;"/><line style="stroke:#181818;stroke-width:1;" x1="23.9551" x2="137.2524" y1="112.4297" y2="112.4297"/><text fill="#000000" font-family="sans-serif" font-size="13" lengthAdjust="spacing" textLength="95.2974" x="30.9551" y="107.3638">Send message</text></g><g class="message" data-participant-1="Frontend" data-participant-2="Gateway"><polygon fill="#181818" points="256.4531,137.5625,266.4531,141.5625,256.4531,145.5625,260.4531,141.5625" style="stroke:#181818;stroke-width:1;"/><line style="stroke:#181818;stroke-width:1;" x1="143.2524" x2="262.4531" y1="141.5625" y2="141.5625"/><text fill="#000000" font-family="sans-serif" font-size="13" lengthAdjust="spacing" textLength="101.2007" x="150.2524" y="136.4966">POST /message</text></g><g class="message" data-participant-1="Gateway" data-participant-2="ChatService"><polygon fill="#181818" points="373.1733,166.6953,383.1733,170.6953,373.1733,174.6953,377.1733,170.6953" style="stroke:#181818;stroke-width:1;"/><line style="stroke:#181818;stroke-width:1;" x1="268.4531" x2="379.1733" y1="170.6953" y2="170.6953"/><text fill="#000000" font-family="sans-serif" font-size="13" lengthAdjust="spacing" textLength="92.7202" x="275.4531" y="165.6294">validateChat()</text></g><g class="message" data-participant-1="ChatService" data-participant-2="MessageService"><polygon fill="#181818" points="505.8452,195.8281,515.8452,199.8281,505.8452,203.8281,509.8452,199.8281" style="stroke:#181818;stroke-width:1;"/><line style="stroke:#181818;stroke-width:1;" x1="385.1733" x2="511.8452" y1="199.8281" y2="199.8281"/><text fill="#000000" font-family="sans-serif" font-size="13" lengthAdjust="spacing" textLength="108.6719" x="392.1733" y="194.7622">createMessage()</text></g><g class="message" data-participant-1="MessageService" data-participant-2="RabbitMQ"><polygon fill="#181818" points="689.6665,224.9609,699.6665,228.9609,689.6665,232.9609,693.6665,228.9609" style="stroke:#181818;stroke-width:1;"/><line style="stroke:#181818;stroke-width:1;" x1="517.8452" x2="695.6665" y1="228.9609" y2="228.9609"/><text fill="#000000" font-family="sans-serif" font-size="13" lengthAdjust="spacing" textLength="159.8213" x="524.8452" y="223.895">publish MessageCreated</text></g><g class="message" data-participant-1="RabbitMQ" data-participant-2="NotificationService"><polygon fill="#181818" points="813.9805,254.0938,823.9805,258.0938,813.9805,262.0938,817.9805,258.0938" style="stroke:#181818;stroke-width:1;"/><line style="stroke:#181818;stroke-width:1;" x1="701.6665" x2="819.9805" y1="258.0938" y2="258.0938"/><text fill="#000000" font-family="sans-serif" font-size="13" lengthAdjust="spacing" textLength="59.0142" x="708.6665" y="253.0278">consume</text></g><g class="message" data-participant-1="NotificationService" data-participant-2="User"><polygon fill="#181818" points="34.9551,283.2266,24.9551,287.2266,34.9551,291.2266,30.9551,287.2266" style="stroke:#181818;stroke-width:1;"/><line style="stroke:#181818;stroke-width:1;" x1="28.9551" x2="824.9805" y1="287.2266" y2="287.2266"/><text fill="#000000" font-family="sans-serif" font-size="13" lengthAdjust="spacing" textLength="108.7417" x="40.9551" y="282.1606">push notification</text></g><!--SRC=[RP2zRW8n48HxFyMMK4JqBcYGaehV8m-mvrjW9R1FzXueRnzlSaPdwHeNCz-CnqOd8S9tecXwZCAEU_G2dp5u8TzLuXSAlV2dqZOtb8RYanrL-fPImYlDMITiMvRjiH9tGVZ23eM3Bo6Zi-1Z_LvZeSadFFwxJP4L6RTPEEoRCwmACifAJ9PQUEATk-ofk5YQYQTeFTw2YvJPKSruxMkYlCb2FxHtJhVIiVcBTgO02i-yDTyHV1eUP6PCpUXNQ7bkzXFY5m00]--></g></svg>